<?xml version="1.0" encoding="utf-8"?>
<!-- Generator: Adobe Illustrator 23.1.0, SVG Export Plug-In . SVG Version: 6.00 Build 0)  -->
<svg version="1.1" id="Layer_1" xmlns="http://www.w3.org/2000/svg" xmlns:xlink="http://www.w3.org/1999/xlink" x="0px" y="0px"
	 viewBox="0 0 288 288" style="enable-background:new 0 0 288 288;" xml:space="preserve">
<style type="text/css">
	.st0{fill:#094B1A;}
	.st1{fill:#031709;}
</style>
<g>
	<rect x="115.89" y="126.88" class="st0" width="62" height="59"/>
	<rect x="112.39" y="124.88" class="st1" width="69" height="21"/>
	<rect x="140.04" y="125.38" class="st1" width="14" height="60"/>
	<g>
		<path class="st1" d="M144.6,127.9l-2.42-3.3c-8.83-12.04-6.59-19.11-4.47-22.26c2.07-3.07,5.67-4.92,9.63-4.96
			c0.04,0,0.08,0,0.12,0c3.74,0,7.15,1.66,9.13,4.44c6.56,9.21-7.22,21.84-8.81,23.25L144.6,127.9z M147.46,103.2
			c-0.01,0-0.03,0-0.04,0c-1.41,0.01-2.7,0.73-3.54,1.97c-0.75,1.12-2.55,5.03,1.89,12.71c3.4-3.89,7.19-9.66,4.73-13.11
			C149.78,103.76,148.7,103.2,147.46,103.2z"/>
		<path class="st1" d="M160.39,130.38c-3.74,0-8.47-0.83-14.24-3.28l-3.57-1.52l2.29-2.72c1.45-1.72,14.47-16.71,25.49-12.21
			c3.28,1.34,5.37,4.1,5.61,7.4c0.29,4.05-2.16,7.97-6.4,10.25C167.74,129.28,164.72,130.38,160.39,130.38z M153.26,123.37
			c5.17,1.6,9.51,1.64,12.45,0.06c2.53-1.36,3.31-3.56,3.2-5.03c-0.04-0.57-0.29-1.95-1.69-2.52
			C164.03,114.57,157.84,118.84,153.26,123.37z"/>
		<path class="st1" d="M132,129.29c-4.62,0-7.78-1.22-9.65-2.28c-4.2-2.37-6.56-6.36-6.16-10.41c0.32-3.27,2.48-5.97,5.77-7.24
			c10.89-4.18,22.92,9.85,25.23,12.71l2.23,2.77l-3.63,1.45C140.23,128.53,135.66,129.29,132,129.29z M126.16,114.43
			c-0.44,0-0.85,0.07-1.22,0.21c-1.39,0.53-1.67,1.88-1.72,2.44c-0.15,1.48,0.58,3.71,3.11,5.14c2.91,1.64,7.24,1.7,12.42,0.21
			C134.78,118.34,129.54,114.43,126.16,114.43z"/>
	</g>
</g>
</svg>
