<?xml version="1.0" encoding="utf-8"?>
<!-- Generator: Adobe Illustrator 23.1.0, SVG Export Plug-In . SVG Version: 6.00 Build 0)  -->
<svg version="1.1" id="Layer_1" xmlns="http://www.w3.org/2000/svg" xmlns:xlink="http://www.w3.org/1999/xlink" x="0px" y="0px"
	 viewBox="0 0 792 792" style="enable-background:new 0 0 792 792;" xml:space="preserve">
<style type="text/css">
	.st0{fill:#7D3834;stroke:#7D3834;stroke-width:4;stroke-miterlimit:10;}
	.st1{fill:#E9EBEA;}
	.st2{fill:#094B1A;stroke:#E9EBEA;stroke-miterlimit:10;}
	.st3{fill:#094B1A;stroke:#E9EBEA;stroke-width:1.2151;stroke-miterlimit:10;}
</style>
<g>
	<path class="st0" d="M455.58,299.03C455.58,299.03,455.58,299.03,455.58,299.03c-0.45-0.13-24.27-12.25-41.46,12.91
		c-8.49,13.06-56.68,126.41-57.26,132.08c-0.58,5.67,4.17,16.04,14.29,6.76c8.16-15.03,49.28-128.23,62.94-137.58
		c3.46-3.61,16.45-4.74,19.39,6.94c2.29,7.73,0.72,13.56,1.45,21.05s10.67,9.39,14.71,0.11
		C470.05,340.72,477.33,311.15,455.58,299.03z"/>
	<g>
		<path class="st1" d="M380.85,384.34c-2.06,4.81-4.08,9.56-6.02,14.17l19.25-3.18c1.9-4.66,3.83-9.4,5.79-14.13L380.85,384.34z"/>
		<path class="st1" d="M392.69,357.05c-2.04,4.63-4.12,9.39-6.2,14.2l18.86-3.11c2.06-4.86,4.11-9.62,6.13-14.19L392.69,357.05z"/>
		<path class="st1" d="M454.31,322.83c0.64,3.53,0.58,6.74,0.52,10.02l15.43,5.81c0.53-2.64,1.2-7.48,0.87-13.04L454.31,322.83z"/>
		<path class="st1" d="M383.1,422.48c1.79-4.42,3.7-9.16,5.7-14.12l-19.44,3.21c-2.14,5.15-4.1,9.92-5.79,14.13L383.1,422.48z"/>
		<path class="st1" d="M449.66,313.02l16.76-4.05c-2.37-4.02-5.8-7.69-10.76-10.45c0.12,0.08-0.78-0.38-2.42-0.97l-13.73,12.83
			C442.76,309.89,446.69,310.49,449.66,313.02z"/>
		<path class="st1" d="M404.46,330.89c-1.84,3.97-3.83,8.35-5.93,13.03l18.92-3.12c0.99-2.11,1.96-4.13,2.91-6.07L404.46,330.89z"/>
		<path class="st1" d="M427.21,299.13c-3.59,1.96-7.2,4.88-10.62,9.09l7.84,18.53c2.28-4.25,4.38-7.75,6.22-10.27L427.21,299.13z"/>
		<path class="st1" d="M358.49,438.7c-0.94,2.56-1.49,4.24-1.55,4.82c-0.58,5.67,4.82,16.94,14.29,6.76
			c1.36-2.5,3.64-7.74,6.55-14.76L358.49,438.7z"/>
	</g>
	<path class="st0" d="M339.09,297.12C339.09,297.12,339.09,297.12,339.09,297.12c0.45-0.12,24.53-11.73,41.18,13.79
		c8.21,13.23,53.97,127.59,54.44,133.27c0.46,5.68-4.51,15.94-14.43,6.46c-7.84-15.2-46.54-129.25-60-138.89
		c-3.38-3.68-16.34-5.09-19.53,6.52c-2.45,7.68-1.01,13.55-1.89,21.01c-0.89,7.46-10.87,9.16-14.71-0.21
		C323.74,338.5,317.09,308.78,339.09,297.12z"/>
	<g>
		<path class="st1" d="M411.96,384c1.96,4.85,3.87,9.65,5.72,14.29l-19.18-3.59c-1.8-4.7-3.63-9.48-5.49-14.25L411.96,384z"/>
		<path class="st1" d="M400.71,356.46c1.94,4.67,3.92,9.48,5.9,14.33l-18.79-3.51c-1.95-4.9-3.91-9.7-5.83-14.31L400.71,356.46z"/>
		<path class="st1" d="M339.83,320.94c-0.71,3.52-0.72,6.72-0.73,10.01l-15.55,5.48c-0.47-2.65-1.04-7.5-0.59-13.06L339.83,320.94z"
			/>
		<path class="st1" d="M408.9,422.08c-1.69-4.46-3.5-9.24-5.4-14.23l19.37,3.62c2.03,5.2,3.88,10.01,5.49,14.25L408.9,422.08z"/>
		<path class="st1" d="M344.69,311.23l-16.67-4.41c2.45-3.97,5.97-7.56,10.98-10.22c-0.12,0.08,0.79-0.36,2.44-0.92l13.46,13.12
			C351.65,308.25,347.72,308.77,344.69,311.23z"/>
		<path class="st1" d="M389.5,330.07c1.75,4,3.65,8.43,5.65,13.15l-18.85-3.52c-0.94-2.13-1.87-4.17-2.78-6.13L389.5,330.07z"/>
		<path class="st1" d="M367.43,297.83c3.55,2.04,7.1,5.03,10.42,9.32l-8.24,18.36c-2.19-4.3-4.21-7.84-6-10.4L367.43,297.83z"/>
		<path class="st1" d="M433.16,438.83c0.89,2.58,1.4,4.27,1.45,4.85c0.46,5.68-5.18,16.83-14.43,6.46
			c-1.31-2.53-3.47-7.82-6.23-14.9L433.16,438.83z"/>
	</g>
	<path class="st2" d="M437.15,347c0,0-25.16,2.52-37.85,21.17c-3.08,4.52,0.45,1.85-0.63,0.5c-15.87-19.66-36.64-22.18-36.64-22.18
		c-6.66-1.25-13.06,1.76-11.6,9.07c3.05,15.23,0,31.25,0,31.25c0,5.09,4.44,8.06,12.69,6.55c12.06-1.51,32.04-12.03,36.18-18.14
		c-0.22-5.68-3.05-3.28,0,0.5c8.94,11.09,37.4,18.14,37.4,18.14c6.35,1.51,12.06-1.46,12.06-6.55c0,0-3.05-16.02,0-31.25
		C450.21,348.77,443.81,345.75,437.15,347z"/>
	<path class="st3" d="M399.81,383.04h-2.31c-3.75,0-6.78-3.04-6.78-6.78v-9.62c0-3.75,3.04-6.78,6.78-6.78h2.31
		c3.75,0,6.78,3.04,6.78,6.78v9.62C406.59,380,403.56,383.04,399.81,383.04z"/>
	<g>
		<g>
			<path class="st1" d="M406.98,371.22c1.96-0.44,3.94-0.79,5.93-1.07c3.02-0.44,6.43-0.95,9.45-0.24c1.06,0.25,1.51-1.38,0.45-1.64
				c-3.22-0.76-6.75-0.27-9.98,0.18c-2.11,0.29-4.22,0.66-6.3,1.13C405.46,369.82,405.91,371.46,406.98,371.22L406.98,371.22z"/>
		</g>
	</g>
	<g>
		<g>
			<path class="st1" d="M390.52,368.82c-2.18-0.42-4.39-0.77-6.59-1.07c-3.13-0.43-6.56-1.03-9.71-0.44
				c-1.18,0.22-0.68,2.02,0.5,1.8c1.21-0.22,2.66-0.14,3.94-0.05c1.72,0.11,3.43,0.31,5.13,0.55c2.08,0.29,4.16,0.62,6.23,1.02
				C391.2,370.85,391.7,369.05,390.52,368.82L390.52,368.82z"/>
		</g>
	</g>
</g>
</svg>
