<?xml version="1.0" encoding="utf-8"?>
<!-- Generator: Adobe Illustrator 23.1.0, SVG Export Plug-In . SVG Version: 6.00 Build 0)  -->
<svg version="1.1" id="Layer_1" xmlns="http://www.w3.org/2000/svg" xmlns:xlink="http://www.w3.org/1999/xlink" x="0px" y="0px"
	 viewBox="0 0 792 792" style="enable-background:new 0 0 792 792;" xml:space="preserve">
<style type="text/css">
	.st0{fill:#7D3834;}
	.st1{fill:#094B1A;}
	.st2{fill:#71977B;}
</style>
<g>
	<g>
		<path class="st0" d="M377.34,353.92l-11.25,21.06l38.6,0.74l-16.84-16.3C387.85,359.41,378.98,351.81,377.34,353.92z"/>
		<path class="st0" d="M435.55,353.92l11.25,21.06l-38.6,0.74l16.84-16.3C425.04,359.41,433.91,351.81,435.55,353.92z"/>
		<ellipse class="st0" cx="406.47" cy="372.94" rx="5.26" ry="4.76"/>
	</g>
	<rect x="355.93" y="410.98" class="st0" width="104.58" height="7.47"/>
	<rect x="355.93" y="455.81" class="st0" width="104.58" height="7.47"/>
	<rect x="355.93" y="440.87" class="st0" width="104.58" height="7.47"/>
	<rect x="355.93" y="425.92" class="st0" width="104.58" height="7.47"/>
	<rect x="355.93" y="470.08" class="st0" width="104.58" height="7.47"/>
	<rect x="355.93" y="463.28" class="st1" width="104.58" height="7.47"/>
	<rect x="355.93" y="448.34" class="st2" width="104.58" height="7.47"/>
	<rect x="355.93" y="433.39" class="st1" width="104.58" height="7.47"/>
	<rect x="355.93" y="418.45" class="st2" width="104.58" height="7.47"/>
	<rect x="351.37" y="374.98" class="st1" width="113" height="36"/>
</g>
</svg>
