<?xml version="1.0" encoding="utf-8"?>
<!-- Generator: Adobe Illustrator 23.1.0, SVG Export Plug-In . SVG Version: 6.00 Build 0)  -->
<svg version="1.1" id="Layer_1" xmlns="http://www.w3.org/2000/svg" xmlns:xlink="http://www.w3.org/1999/xlink" x="0px" y="0px"
	 viewBox="0 0 792 792" style="enable-background:new 0 0 792 792;" xml:space="preserve">
<style type="text/css">
	.st0{fill:#031709;}
	.st1{fill:#97B39E;}
	.st2{fill:#094B1A;}
	.st3{fill:#396E46;}
	.st4{fill:#7D3834;}
</style>
<g>
	<rect x="300.04" y="380.11" class="st0" width="159.67" height="83.39"/>
	<ellipse class="st1" cx="320.99" cy="444.38" rx="13.73" ry="14.54"/>
	<ellipse class="st2" cx="384.57" cy="442.85" rx="13.73" ry="14.54"/>
	<ellipse class="st1" cx="384.57" cy="403.83" rx="13.73" ry="14.54"/>
	<ellipse class="st3" cx="354.22" cy="422.19" rx="13.73" ry="14.54"/>
	<ellipse class="st1" cx="441.64" cy="445.14" rx="13.73" ry="14.54"/>
	<ellipse class="st3" cx="413.59" cy="424.14" rx="13.73" ry="14.54"/>
	<ellipse class="st2" cx="321.71" cy="405.36" rx="13.73" ry="14.54"/>
	<ellipse class="st2" cx="440.92" cy="403.83" rx="13.73" ry="14.54"/>
	<path class="st3" d="M349.51,363.28h30.4h30.22c31.7-0.68,31.14-32.02,0-24.53l-29.48,10.9c0,0-31.4-10.92-31.86-11.11
		C322.82,327.85,317.81,362.6,349.51,363.28z"/>
	<path class="st2" d="M356.39,358.69l25.14,2.02l24.48-1.97c25.65-2.43,23.99-19.26-1.05-9.25l-23.25,7.58
		c0,0-27.14-10.04-27.52-10.11C332.49,342.9,331,354.93,356.39,358.69z"/>
	<ellipse class="st2" cx="381.32" cy="355.25" rx="13.37" ry="11.86"/>
	<rect x="297.87" y="362.52" class="st4" width="164" height="29.07"/>
</g>
</svg>
