<?xml version="1.0" encoding="utf-8"?>
<!-- Generator: Adobe Illustrator 23.1.0, SVG Export Plug-In . SVG Version: 6.00 Build 0)  -->
<svg version="1.1" id="Layer_1" xmlns="http://www.w3.org/2000/svg" xmlns:xlink="http://www.w3.org/1999/xlink" x="0px" y="0px"
	 viewBox="0 0 792 792" style="enable-background:new 0 0 792 792;" xml:space="preserve">
<style type="text/css">
	.st0{fill:#FFFFFF;}
	.st1{fill:#E9EBEA;}
	.st2{fill:#C3A4A2;}
	.st3{fill:#30673E;}
	.st4{fill:#094B1A;}
</style>
<g>
	<path class="st0" d="M478.49,467.27"/>
	<rect x="357.26" y="326.23" class="st1" width="117.71" height="139.02"/>
	<g>
		<polygon class="st2" points="388.99,375.14 397.13,385.92 406.3,373.77 398.16,362.99 		"/>
		<polygon class="st2" points="404.94,354.02 413.07,364.8 422.32,352.56 414.18,341.78 		"/>
		<polygon class="st2" points="371.63,398.14 379.76,408.92 390.35,394.9 382.21,384.12 		"/>
		<polygon class="st2" points="422.65,437.69 413.48,425.54 402.89,439.56 412.07,451.71 		"/>
		<polygon class="st2" points="452.63,435.15 445.37,425.54 436.2,437.69 443.46,447.3 		"/>
		<polygon class="st2" points="438.6,416.56 429.43,404.41 420.26,416.56 429.43,428.71 		"/>
		<polygon class="st2" points="406.7,416.56 397.2,403.97 386.61,417.99 396.12,430.59 		"/>
		<polygon class="st2" points="403.97,394.99 413.48,407.59 422.65,395.44 413.14,382.84 		"/>
		<polygon class="st2" points="466.18,435.15 474.46,446.12 474.46,424.18 		"/>
		<polygon class="st2" points="419.92,373.87 429.43,386.46 438.67,374.22 429.16,361.63 		"/>
		<polygon class="st2" points="462.13,343.14 474.46,326.8 474.46,326.09 455.99,326.09 452.63,330.54 		"/>
		<polygon class="st2" points="474.46,403.69 474.46,387 468.17,395.34 		"/>
		<polygon class="st2" points="435.94,352.65 445.44,365.24 455.36,352.11 445.85,339.52 		"/>
		<polygon class="st2" points="436.2,395.44 445.37,407.59 454.62,395.34 445.44,383.2 		"/>
		<polygon class="st2" points="452.22,374.22 461.39,386.37 471.31,373.24 462.13,361.09 		"/>
		<polygon class="st2" points="398.16,345.04 407.4,332.8 402.33,326.09 395.89,326.09 389.87,334.06 		"/>
		<polygon class="st2" points="405.29,460.69 396.12,448.54 385.83,462.16 388.06,465.11 401.95,465.11 		"/>
		<polygon class="st2" points="372.99,417.9 364.85,407.12 357.42,416.95 357.42,424.53 362.7,431.52 		"/>
		<polygon class="st2" points="389.34,439.56 379.83,426.97 369.55,440.59 379.06,453.18 		"/>
		<polygon class="st2" points="429.43,446.66 418.84,460.69 422.18,465.11 430.02,465.11 436.69,456.28 		"/>
		<polygon class="st2" points="372.28,462.16 362.77,449.57 357.42,456.65 357.42,465.11 370.05,465.11 		"/>
		<polygon class="st2" points="367.15,346.21 376.32,334.06 370.3,326.09 357.42,326.09 357.42,333.33 		"/>
		<polygon class="st2" points="468.65,413.93 461.39,404.32 452.15,416.56 459.41,426.18 		"/>
		<polygon class="st2" points="468.58,456.28 459.41,444.13 450.24,456.28 456.91,465.11 461.91,465.11 		"/>
		<polygon class="st2" points="382.21,366.17 391.38,354.02 383.09,343.04 373.92,355.18 		"/>
		<polygon class="st2" points="357.42,359.09 360.37,355.18 357.42,351.28 		"/>
		<polygon class="st2" points="474.46,359.47 474.46,344.75 468.91,352.11 		"/>
		<polygon class="st2" points="420.95,332.8 429.09,343.58 439,330.45 435.71,326.09 426.02,326.09 		"/>
		<polygon class="st2" points="357.42,397.28 357.42,399 358.07,398.14 		"/>
		<polygon class="st2" points="357.42,377.04 357.42,379.33 364.85,389.17 375.44,375.14 367.15,364.16 		"/>
	</g>
	<rect x="357.26" y="395.74" class="st3" width="117.71" height="7.19"/>
	<path class="st3" d="M419.81,465.26c0.06-58.61,0.13-120.16,0-139.02h-6.05v139.02H419.81z"/>
	<g>
		<path class="st4" d="M387.9,424.56c0.8,1.29,1.71,2.19,2.7,2.58c0.98,0.42,2.36,0.34,3.87-0.19c1.51-0.53,3.06-1.44,4.54-2.52
			c1.48-1.08,2.91-2.32,4.29-3.63c2.75-2.65,5.3-5.59,7.72-8.66c2.41-3.07,4.71-6.27,6.82-9.55l0.24-0.38h0.37h0
			c3.45-0.55,6.74-1.72,9.81-3.29c3.08-1.55,5.94-3.5,8.53-5.69c1.3-1.1,2.48-2.3,3.58-3.53c1.09-1.24,2.07-2.56,2.79-3.91
			c0.71-1.35,1.18-2.75,1.2-3.91c0.01-1.16-0.36-2-1.23-2.8c-0.94-0.83-2.03-1.36-3.25-1.5c-1.23-0.15-2.62,0.11-3.99,0.67
			c-2.78,1.09-5.38,3.22-7.59,5.68c-4.44,5-7.47,11.41-9.08,18.3l0,0l-0.06,2.76l-1.35-2.56c-2.71-5.15-4.98-10.5-7.39-15.69
			c-1.19-2.59-2.41-5.16-3.8-7.54c-1.34-2.37-2.9-4.66-4.7-6.02c-1.78-1.38-3.42-1.51-5.53-0.56c-1.01,0.47-2.08,1.18-3.06,1.96
			c-0.24,0.18-0.46,0.37-0.62,0.55c-0.18,0.16-0.37,0.39-0.55,0.59c-0.35,0.43-0.67,0.87-0.91,1.34c-1.06,1.83-1.02,4.01-0.08,6.27
			c0.93,2.25,2.67,4.38,4.63,6.3c1.98,1.91,4.23,3.65,6.62,5.18c2.38,1.55,4.88,2.94,7.47,4.17c2.58,1.24,5.25,2.29,7.95,3.3
			c2.75,1.01,5.44,2.23,8.03,3.62c2.59,1.4,5.09,2.99,7.5,4.67c2.41,1.64,4.77,3.43,7.07,4.68c1.16,0.59,2.29,0.95,3.24,0.97
			c0.95,0.02,1.81-0.28,2.74-0.84c1.86-1.11,3.67-3.15,5.25-5.32l5.61,5.77c-2.57,1.8-5.16,3.68-8.63,4.88
			c-1.72,0.57-3.81,0.79-5.72,0.36c-1.91-0.44-3.44-1.37-4.7-2.32c-2.56-1.89-4.52-3.96-6.69-5.82c-2.14-1.88-4.39-3.6-6.78-5.12
			c-2.39-1.51-4.93-2.81-7.55-3.89c-2.68-1.08-5.38-2.17-8.05-3.33c-5.31-2.36-10.66-4.8-15.52-8.42c-2.4-1.84-4.73-3.98-6.35-6.94
			c-0.81-1.46-1.41-3.17-1.52-5c-0.13-1.83,0.22-3.74,1.02-5.39c0.39-0.83,0.89-1.59,1.43-2.29c0.52-0.66,1.22-1.42,1.87-1.91
			c1.27-1.03,2.6-1.96,4.23-2.67c1.59-0.7,3.53-1.18,5.53-0.94c2,0.22,3.82,1.17,5.17,2.29c2.69,2.33,4.22,5.08,5.61,7.75
			c1.32,2.72,2.39,5.47,3.37,8.22c1.92,5.52,3.53,11.05,5.16,16.59l-1.41,0.2l0,0c-0.05-7.37,2.31-14.92,6.98-21.07
			c1.15-1.55,2.51-2.97,4.01-4.27c1.51-1.28,3.19-2.47,5.14-3.29c1.94-0.82,4.16-1.36,6.52-1.14c1.17,0.11,2.36,0.41,3.45,0.91
			c1.11,0.52,2.03,1.17,2.92,2c0.88,0.82,1.66,1.89,2.16,3.09c0.5,1.2,0.71,2.51,0.66,3.72c-0.09,2.46-0.99,4.5-2.03,6.26
			c-2.13,3.52-4.98,6.17-8.04,8.41c-3.06,2.24-6.43,3.98-9.96,5.25c-3.53,1.23-7.3,1.98-11.03,1.73l0,0l0.61-0.38
			c-1.78,3.58-3.72,7.03-5.83,10.43c-2.11,3.39-4.39,6.71-7,9.85c-1.31,1.57-2.71,3.09-4.27,4.52c-1.56,1.42-3.3,2.77-5.41,3.81
			c-1.06,0.51-2.23,0.95-3.53,1.17c-1.29,0.23-2.73,0.23-4.12-0.12c-1.39-0.34-2.69-1-3.77-1.8c-1.08-0.81-1.97-1.74-2.73-2.69
			L387.9,424.56z"/>
	</g>
</g>
</svg>
