<?xml version="1.0" encoding="utf-8"?>
<!-- Generator: Adobe Illustrator 23.1.0, SVG Export Plug-In . SVG Version: 6.00 Build 0)  -->
<svg version="1.1" id="Layer_1" xmlns="http://www.w3.org/2000/svg" xmlns:xlink="http://www.w3.org/1999/xlink" x="0px" y="0px"
	 viewBox="0 0 792 792" style="enable-background:new 0 0 792 792;" xml:space="preserve">
<style type="text/css">
	.st0{fill:#094B1A;}
	.st1{fill:#E9EBEA;}
	.st2{fill:none;stroke:#7D3834;stroke-width:9.1542;stroke-miterlimit:10;}
	.st3{fill:none;stroke:#7D3834;stroke-width:3.1768;stroke-miterlimit:10;}
</style>
<g>
	
		<rect x="124.7" y="320.5" transform="matrix(1.010050e-02 -0.9999 0.9999 1.010050e-02 -102.4114 891.3768)" class="st0" width="548.6" height="353.9"/>
	<g>
		<polygon class="st1" points="573.2,602.1 573.7,558.5 399.5,773.2 434.2,773.6 		"/>
		<polygon class="st1" points="571.4,774.6 571.9,726.2 532.7,774.5 571.1,774.9 		"/>
		<polygon class="st1" points="572.3,689.4 572.9,639 463.4,773.8 503.5,774.2 		"/>
		<polygon class="st1" points="576.5,291.3 218,733.3 217.6,771.4 227.3,771.5 576,341.7 		"/>
		<polygon class="st1" points="575,428.8 575.6,378.6 256.6,771.8 296.4,772.2 		"/>
		<polygon class="st1" points="574.1,521.7 574.6,465.6 325.7,772.4 370.3,772.9 		"/>
		<polygon class="st1" points="525,225.8 476.7,225.3 220,541.7 219.3,602.6 		"/>
		<polygon class="st1" points="447.4,225 400.7,224.5 221,446.1 220.4,504.9 		"/>
		<polygon class="st1" points="293.1,223.5 237.2,222.9 223.1,240.2 222.4,310.6 		"/>
		<polygon class="st1" points="218.9,639.4 218.3,696.4 576.9,254.5 577.2,226.3 554.3,226.1 		"/>
		<polygon class="st1" points="371.4,224.3 322.3,223.8 222,347.5 221.4,409.2 		"/>
	</g>
	
		<rect x="316.4" y="45.8" transform="matrix(1.010050e-02 -0.9999 0.9999 1.010050e-02 152.4575 631.6616)" class="st0" width="157.6" height="386"/>
	<g>
		<g>
			<path class="st2" d="M399.9,158.3C399-13.6,542.9-1.4,542.3,61.9S399.9,158.3,399.9,158.3z"/>
			<path class="st2" d="M399.3,158.4c169.7,70.8,216.4-55.5,153.5-80.8S399.3,158.4,399.3,158.4z"/>
		</g>
		<g>
			<path class="st2" d="M395.2,158.3C399.6-13.6,255.4-4.3,254.8,59S395.2,158.3,395.2,158.3z"/>
			<path class="st2" d="M395.7,158.4C224.6,225.8,180.6,98.6,244,74.6C307.4,50.6,395.7,158.4,395.7,158.4z"/>
		</g>
	</g>
	<path class="st3" d="M590.5,24.2"/>
</g>
</svg>
