<?xml version="1.0" encoding="utf-8"?>
<!-- Generator: Adobe Illustrator 23.1.0, SVG Export Plug-In . SVG Version: 6.00 Build 0)  -->
<svg version="1.1" id="Layer_1" xmlns="http://www.w3.org/2000/svg" xmlns:xlink="http://www.w3.org/1999/xlink" x="0px" y="0px"
	 viewBox="0 0 792 792" style="enable-background:new 0 0 792 792;" xml:space="preserve">
<style type="text/css">
	.st0{fill:#FFFFFF;}
	.st1{fill:#E9EBEA;}
	.st2{fill:#C3A4A2;}
	.st3{fill:#30673E;}
	.st4{fill:#094B1A;}
</style>
<g>
	<path class="st0" d="M716,765"/>
	<rect x="101.6" y="50.2" class="st1" width="596.6" height="704.6"/>
	<g>
		<polygon class="st2" points="262.4,298.1 303.7,352.7 350.1,291.1 308.9,236.5 		"/>
		<polygon class="st2" points="343.2,191 384.4,245.7 431.3,183.6 390.1,129 		"/>
		<polygon class="st2" points="174.4,414.6 215.6,469.3 269.3,398.2 228,343.6 		"/>
		<polygon class="st2" points="433,615.1 386.5,553.5 332.9,624.6 379.4,686.1 		"/>
		<polygon class="st2" points="584.9,602.2 548.1,553.5 501.7,615.1 538.5,663.8 		"/>
		<polygon class="st2" points="513.8,508 467.4,446.4 420.9,508 467.4,569.6 		"/>
		<polygon class="st2" points="352.2,508 304,444.2 250.3,515.2 298.5,579.1 		"/>
		<polygon class="st2" points="338.3,398.7 386.5,462.5 433,401 384.8,337.1 		"/>
		<polygon class="st2" points="653.6,602.2 695.6,657.8 695.6,546.6 		"/>
		<polygon class="st2" points="419.2,291.6 467.4,355.5 514.2,293.4 466,229.6 		"/>
		<polygon class="st2" points="633.1,135.9 695.6,53.1 695.6,49.5 602,49.5 584.9,72 		"/>
		<polygon class="st2" points="695.6,442.8 695.6,358.2 663.7,400.5 		"/>
		<polygon class="st2" points="500.4,184.1 548.5,247.9 598.8,181.4 550.6,117.6 		"/>
		<polygon class="st2" points="501.7,401 548.1,462.5 595,400.5 548.5,338.9 		"/>
		<polygon class="st2" points="582.9,293.4 629.3,355 679.6,288.5 633.1,226.9 		"/>
		<polygon class="st2" points="308.9,145.5 355.7,83.5 330,49.5 297.4,49.5 266.9,89.9 		"/>
		<polygon class="st2" points="345,731.7 298.5,670.1 246.4,739.1 257.7,754.1 328.1,754.1 		"/>
		<polygon class="st2" points="181.3,514.8 140.1,460.2 102.4,510 102.4,548.4 129.2,583.8 		"/>
		<polygon class="st2" points="264.2,624.6 216,560.8 163.9,629.8 212.1,693.6 		"/>
		<polygon class="st2" points="467.4,660.5 413.7,731.7 430.6,754.1 470.4,754.1 504.2,709.3 		"/>
		<polygon class="st2" points="177.7,739.1 129.5,675.3 102.4,711.2 102.4,754.1 166.4,754.1 		"/>
		<polygon class="st2" points="151.7,151.5 198.2,89.9 167.7,49.5 102.4,49.5 102.4,86.2 		"/>
		<polygon class="st2" points="666.1,494.7 629.3,446 582.5,508 619.3,556.8 		"/>
		<polygon class="st2" points="665.8,709.3 619.3,647.7 572.8,709.3 606.6,754.1 632,754.1 		"/>
		<polygon class="st2" points="228,252.6 274.5,191 232.5,135.4 186,196.9 		"/>
		<polygon class="st2" points="102.4,216.7 117.4,196.9 102.4,177.2 		"/>
		<polygon class="st2" points="695.6,218.7 695.6,144.1 667.4,181.4 		"/>
		<polygon class="st2" points="424.4,83.5 465.6,138.1 515.9,71.6 499.2,49.5 450.1,49.5 		"/>
		<polygon class="st2" points="102.4,410.3 102.4,419 105.7,414.6 		"/>
		<polygon class="st2" points="102.4,307.7 102.4,319.3 140.1,369.2 193.7,298.1 151.7,242.4 		"/>
	</g>
	<rect x="101.6" y="402.5" class="st3" width="596.6" height="36.4"/>
	<path class="st3" d="M418.6,754.8c0.3-297,0.7-609,0-704.6h-30.7v704.6H418.6z"/>
	<g>
		<path class="st4" d="M256.9,548.5c4.1,6.5,8.7,11.1,13.7,13.1c5,2.1,12,1.7,19.6-1c7.7-2.7,15.5-7.3,23-12.8
			c7.5-5.5,14.7-11.8,21.7-18.4c13.9-13.4,26.9-28.3,39.1-43.9c12.2-15.6,23.9-31.8,34.6-48.4l1.2-1.9h1.9l0,0
			c17.5-2.8,34.2-8.7,49.7-16.7c15.6-7.9,30.1-17.7,43.2-28.8c6.6-5.6,12.6-11.7,18.1-17.9c5.5-6.3,10.5-13,14.1-19.8
			c3.6-6.8,6-13.9,6.1-19.8c0.1-5.9-1.8-10.1-6.2-14.2c-4.8-4.2-10.3-6.9-16.5-7.6c-6.2-0.8-13.3,0.6-20.2,3.4
			c-14.1,5.5-27.3,16.3-38.5,28.8c-22.5,25.3-37.9,57.8-46,92.7l0,0l-0.3,14l-6.8-13c-13.7-26.1-25.2-53.2-37.5-79.5
			c-6-13.1-12.2-26.2-19.3-38.2c-6.8-12-14.7-23.6-23.8-30.5c-9-7-17.3-7.7-28-2.8c-5.1,2.4-10.5,6-15.5,9.9
			c-1.2,0.9-2.3,1.9-3.1,2.8c-0.9,0.8-1.9,2-2.8,3c-1.8,2.2-3.4,4.4-4.6,6.8c-5.4,9.3-5.2,20.3-0.4,31.8
			c4.7,11.4,13.5,22.2,23.5,31.9c10,9.7,21.4,18.5,33.6,26.3c12.1,7.9,24.7,14.9,37.9,21.1c13.1,6.3,26.6,11.6,40.3,16.7
			c13.9,5.1,27.6,11.3,40.7,18.3c13.1,7.1,25.8,15.2,38,23.7c12.2,8.3,24.2,17.4,35.8,23.7c5.9,3,11.6,4.8,16.4,4.9
			c4.8,0.1,9.2-1.4,13.9-4.3c9.4-5.6,18.6-16,26.6-27l28.4,29.2c-13,9.1-26.2,18.7-43.7,24.7c-8.7,2.9-19.3,4-29,1.8
			c-9.7-2.2-17.4-6.9-23.8-11.8c-13-9.6-22.9-20.1-33.9-29.5c-10.8-9.5-22.2-18.2-34.4-25.9c-12.1-7.7-25-14.2-38.3-19.7
			c-13.6-5.5-27.3-11-40.8-16.9c-26.9-12-54-24.3-78.7-42.7c-12.2-9.3-24-20.2-32.2-35.2c-4.1-7.4-7.1-16.1-7.7-25.3
			c-0.7-9.3,1.1-19,5.2-27.3c2-4.2,4.5-8.1,7.2-11.6c2.6-3.3,6.2-7.2,9.5-9.7c6.4-5.2,13.2-9.9,21.4-13.5c8.1-3.5,17.9-6,28-4.8
			c10.1,1.1,19.4,5.9,26.2,11.6c13.6,11.8,21.4,25.7,28.4,39.3c6.7,13.8,12.1,27.7,17.1,41.7c9.7,28,17.9,56,26.2,84.1l-7.1,1l0,0
			c-0.3-37.4,11.7-75.6,35.4-106.8c5.8-7.9,12.7-15.1,20.3-21.6c7.7-6.5,16.2-12.5,26-16.7c9.8-4.2,21.1-6.9,33-5.8
			c5.9,0.6,12,2.1,17.5,4.6c5.6,2.6,10.3,5.9,14.8,10.1c4.5,4.2,8.4,9.6,10.9,15.7c2.5,6.1,3.6,12.7,3.3,18.9
			c-0.5,12.5-5,22.8-10.3,31.7c-10.8,17.8-25.2,31.3-40.7,42.6C503,418.7,485.9,427.5,468,434c-17.9,6.2-37,10-55.9,8.8l0,0l3.1-1.9
			c-9,18.1-18.9,35.6-29.5,52.9c-10.7,17.2-22.2,34-35.5,49.9c-6.6,8-13.7,15.7-21.6,22.9c-7.9,7.2-16.7,14-27.4,19.3
			c-5.4,2.6-11.3,4.8-17.9,5.9c-6.5,1.2-13.8,1.2-20.9-0.6c-7-1.7-13.6-5.1-19.1-9.1c-5.5-4.1-10-8.8-13.8-13.6L256.9,548.5z"/>
	</g>
</g>
</svg>
