<?xml version="1.0" encoding="utf-8"?>
<!-- Generator: Adobe Illustrator 23.1.0, SVG Export Plug-In . SVG Version: 6.00 Build 0)  -->
<svg version="1.1" id="Layer_1" xmlns="http://www.w3.org/2000/svg" xmlns:xlink="http://www.w3.org/1999/xlink" x="0px" y="0px"
	 viewBox="0 0 792 792" style="enable-background:new 0 0 792 792;" xml:space="preserve">
<style type="text/css">
	.st0{fill:#689173;}
	.st1{fill:none;stroke:#E9EBEA;stroke-width:2.416;stroke-miterlimit:10;}
	.st2{fill:none;stroke:#E9EBEA;stroke-width:1.0738;stroke-miterlimit:10;}
	.st3{fill:none;stroke:#E9EBEA;stroke-width:2.6379;stroke-miterlimit:10;}
	.st4{fill:none;stroke:#E9EBEA;stroke-width:2.6162;stroke-miterlimit:10;}
	.st5{fill:#8D514E;}
	.st6{fill:#7D3834;}
	.st7{fill:#7A3636;}
	.st8{fill:none;}
	.st9{fill:#5F2C29;}
</style>
<g>
	<g>
		<rect x="9.6" y="236.1" class="st0" width="776.8" height="388.4"/>
		<g>
			<polygon class="st1" points="223.4,318.8 206.9,306.1 194.5,322.7 192.8,302.7 171.3,306.7 185.5,291.2 167.6,280.1 189.3,278.2 
				185.5,258.5 202,271.3 214.4,254.6 216.1,274.6 237.5,270.7 223.4,286.2 241.3,297.3 219.5,299.2 			"/>
			<polygon class="st2" points="213.1,302.2 205.9,296.3 200.5,303.9 199.7,294.8 190.5,296.5 196.6,289.5 188.7,284.3 198.2,283.5 
				196.4,274.6 203.6,280.5 208.9,272.9 209.7,282 219,280.3 212.9,287.3 220.7,292.4 211.3,293.2 			"/>
			<line class="st3" x1="198.9" y1="246.6" x2="211" y2="328.1"/>
			<line class="st3" x1="168.6" y1="263.3" x2="237.1" y2="311.4"/>
			<g>
				<line class="st3" x1="167.8" y1="268.7" x2="179.5" y2="271.2"/>
				<line class="st3" x1="174.6" y1="260.2" x2="179.7" y2="270.8"/>
			</g>
			<g>
				<line class="st4" x1="194.3" y1="250.3" x2="200.6" y2="260.1"/>
				<line class="st4" x1="205.1" y1="249" x2="201.1" y2="260"/>
			</g>
			<g>
				<line class="st3" x1="225.8" y1="255.4" x2="222.5" y2="266.7"/>
				<line class="st3" x1="234" y1="262.5" x2="222.9" y2="267"/>
			</g>
			<g>
				<line class="st3" x1="242.1" y1="280.9" x2="231.6" y2="286.5"/>
				<line class="st3" x1="242.6" y1="291.7" x2="231.7" y2="287"/>
			</g>
			<g>
				<line class="st3" x1="237.5" y1="305.7" x2="225.9" y2="303"/>
				<line class="st3" x1="230.5" y1="314" x2="225.6" y2="303.4"/>
			</g>
			<g>
				<line class="st3" x1="216.5" y1="323.7" x2="209.5" y2="314.2"/>
				<line class="st3" x1="205.7" y1="325.6" x2="209" y2="314.4"/>
			</g>
			<g>
				<line class="st3" x1="185.3" y1="320.6" x2="188" y2="309.2"/>
				<line class="st3" x1="176.7" y1="313.8" x2="187.6" y2="309"/>
			</g>
			<g>
				<line class="st3" x1="165.3" y1="299.4" x2="175.3" y2="292.9"/>
				<line class="st3" x1="163.8" y1="288.7" x2="175.2" y2="292.5"/>
			</g>
			<line class="st3" x1="245.9" y1="284.9" x2="162" y2="293.9"/>
			<line class="st3" x1="231.5" y1="256.3" x2="178.5" y2="320.4"/>
		</g>
		<g>
			<polygon class="st1" points="87,318.8 70.5,306.1 58.1,322.7 56.4,302.7 35,306.7 49.1,291.2 31.2,280.1 53,278.2 49.1,258.5 
				65.6,271.3 78,254.6 79.7,274.6 101.1,270.7 87,286.2 104.9,297.3 83.1,299.2 			"/>
			<polygon class="st2" points="76.7,302.2 69.5,296.3 64.2,303.9 63.3,294.8 54.1,296.5 60.2,289.5 52.4,284.3 61.8,283.5 
				60,274.6 67.2,280.5 72.5,272.9 73.4,282 82.6,280.3 76.5,287.3 84.3,292.4 74.9,293.2 			"/>
			<line class="st3" x1="62.5" y1="246.6" x2="74.7" y2="328.1"/>
			<line class="st3" x1="32.2" y1="263.3" x2="100.7" y2="311.4"/>
			<g>
				<line class="st3" x1="31.4" y1="268.7" x2="43.1" y2="271.2"/>
				<line class="st3" x1="38.2" y1="260.2" x2="43.3" y2="270.8"/>
			</g>
			<g>
				<line class="st4" x1="57.9" y1="250.3" x2="64.2" y2="260.1"/>
				<line class="st4" x1="68.7" y1="249" x2="64.7" y2="260"/>
			</g>
			<g>
				<line class="st3" x1="89.4" y1="255.4" x2="86.1" y2="266.7"/>
				<line class="st3" x1="97.6" y1="262.5" x2="86.5" y2="267"/>
			</g>
			<g>
				<line class="st3" x1="105.7" y1="280.9" x2="95.2" y2="286.5"/>
				<line class="st3" x1="106.2" y1="291.7" x2="95.3" y2="287"/>
			</g>
			<g>
				<line class="st3" x1="101.1" y1="305.7" x2="89.5" y2="303"/>
				<line class="st3" x1="94.1" y1="314" x2="89.2" y2="303.4"/>
			</g>
			<g>
				<line class="st3" x1="80.1" y1="323.7" x2="73.1" y2="314.2"/>
				<line class="st3" x1="69.3" y1="325.6" x2="72.7" y2="314.4"/>
			</g>
			<g>
				<line class="st3" x1="48.9" y1="320.6" x2="51.6" y2="309.2"/>
				<line class="st3" x1="40.3" y1="313.8" x2="51.2" y2="309"/>
			</g>
			<g>
				<line class="st3" x1="29" y1="299.4" x2="38.9" y2="292.9"/>
				<line class="st3" x1="27.4" y1="288.7" x2="38.8" y2="292.5"/>
			</g>
			<line class="st3" x1="109.5" y1="284.9" x2="25.6" y2="293.9"/>
			<line class="st3" x1="95.2" y1="256.3" x2="42.1" y2="320.4"/>
		</g>
		<g>
			<polygon class="st1" points="364.4,318.8 347.8,306.1 335.4,322.7 333.7,302.7 312.3,306.7 326.5,291.2 308.6,280.1 330.3,278.2 
				326.4,258.5 342.9,271.3 355.4,254.6 357,274.6 378.5,270.7 364.3,286.2 382.2,297.3 360.5,299.2 			"/>
			<polygon class="st2" points="354,302.2 346.8,296.3 341.4,303.9 340.7,294.8 331.4,296.5 337.5,289.5 329.7,284.3 339.1,283.5 
				337.3,274.6 344.6,280.5 349.9,272.9 350.7,282 360,280.3 353.9,287.3 361.7,292.4 352.3,293.2 			"/>
			<line class="st3" x1="339.9" y1="246.6" x2="352" y2="328.1"/>
			<line class="st3" x1="309.6" y1="263.3" x2="378" y2="311.4"/>
			<g>
				<line class="st3" x1="308.7" y1="268.7" x2="320.4" y2="271.2"/>
				<line class="st3" x1="315.6" y1="260.2" x2="320.7" y2="270.8"/>
			</g>
			<g>
				<line class="st4" x1="335.3" y1="250.3" x2="341.5" y2="260.1"/>
				<line class="st4" x1="346" y1="249" x2="342" y2="260"/>
			</g>
			<g>
				<line class="st3" x1="366.7" y1="255.4" x2="363.5" y2="266.7"/>
				<line class="st3" x1="375" y1="262.5" x2="363.9" y2="267"/>
			</g>
			<g>
				<line class="st3" x1="383" y1="280.9" x2="372.5" y2="286.5"/>
				<line class="st3" x1="383.6" y1="291.7" x2="372.6" y2="287"/>
			</g>
			<g>
				<line class="st3" x1="378.5" y1="305.7" x2="366.8" y2="303"/>
				<line class="st3" x1="371.5" y1="314" x2="366.6" y2="303.4"/>
			</g>
			<g>
				<line class="st3" x1="357.5" y1="323.7" x2="350.5" y2="314.2"/>
				<line class="st3" x1="346.7" y1="325.6" x2="350" y2="314.4"/>
			</g>
			<g>
				<line class="st3" x1="326.2" y1="320.6" x2="328.9" y2="309.2"/>
				<line class="st3" x1="317.7" y1="313.8" x2="328.5" y2="309"/>
			</g>
			<g>
				<line class="st3" x1="306.3" y1="299.4" x2="316.3" y2="292.9"/>
				<line class="st3" x1="304.8" y1="288.7" x2="316.1" y2="292.5"/>
			</g>
			<line class="st3" x1="386.8" y1="284.9" x2="303" y2="293.9"/>
			<line class="st3" x1="372.5" y1="256.3" x2="319.4" y2="320.4"/>
		</g>
		<g>
			<polygon class="st1" points="627,318.8 610.4,306.1 598,322.7 596.3,302.7 574.9,306.7 589,291.2 571.1,280.1 592.8,278.2 
				589,258.5 605.5,271.3 617.9,254.6 619.6,274.6 641.1,270.7 626.9,286.2 644.8,297.3 623.1,299.2 			"/>
			<polygon class="st2" points="616.6,302.2 609.4,296.3 604,303.9 603.2,294.8 594,296.5 600.1,289.5 592.2,284.3 601.7,283.5 
				599.9,274.6 607.1,280.5 612.5,272.9 613.2,282 622.6,280.3 616.4,287.3 624.2,292.4 614.8,293.2 			"/>
			<line class="st3" x1="602.5" y1="246.6" x2="614.6" y2="328.1"/>
			<line class="st3" x1="572.1" y1="263.3" x2="640.6" y2="311.4"/>
			<g>
				<line class="st3" x1="571.3" y1="268.7" x2="583" y2="271.2"/>
				<line class="st3" x1="578.1" y1="260.2" x2="583.3" y2="270.8"/>
			</g>
			<g>
				<line class="st4" x1="597.8" y1="250.3" x2="604.1" y2="260.1"/>
				<line class="st4" x1="608.6" y1="249" x2="604.6" y2="260"/>
			</g>
			<g>
				<line class="st3" x1="629.3" y1="255.4" x2="626" y2="266.7"/>
				<line class="st3" x1="637.5" y1="262.5" x2="626.5" y2="267"/>
			</g>
			<g>
				<line class="st3" x1="645.6" y1="280.9" x2="635.1" y2="286.5"/>
				<line class="st3" x1="646.2" y1="291.7" x2="635.2" y2="287"/>
			</g>
			<g>
				<line class="st3" x1="641" y1="305.7" x2="629.4" y2="303"/>
				<line class="st3" x1="634" y1="314" x2="629.2" y2="303.4"/>
			</g>
			<g>
				<line class="st3" x1="620.1" y1="323.7" x2="613" y2="314.2"/>
				<line class="st3" x1="609.2" y1="325.6" x2="612.6" y2="314.4"/>
			</g>
			<g>
				<line class="st3" x1="588.8" y1="320.6" x2="591.5" y2="309.2"/>
				<line class="st3" x1="580.2" y1="313.8" x2="591.1" y2="309"/>
			</g>
			<g>
				<line class="st3" x1="568.9" y1="299.4" x2="578.8" y2="292.9"/>
				<line class="st3" x1="567.4" y1="288.7" x2="578.7" y2="292.5"/>
			</g>
			<line class="st3" x1="649.4" y1="284.9" x2="565.5" y2="293.9"/>
			<line class="st3" x1="635.1" y1="256.3" x2="582" y2="320.4"/>
		</g>
		<g>
			<polygon class="st1" points="558.6,391.8 542,379 529.6,395.7 527.9,375.7 506.5,379.6 520.7,364.2 502.7,353 524.5,351.1 
				520.6,331.5 537.1,344.2 549.6,327.6 551.2,347.6 572.7,343.6 558.5,359.1 576.4,370.2 554.7,372.1 			"/>
			<polygon class="st2" points="548.2,375.1 541,369.3 535.7,376.8 534.9,367.7 525.6,369.4 531.7,362.4 523.9,357.3 533.3,356.5 
				531.5,347.5 538.7,353.4 544.1,345.9 544.9,355 554.1,353.2 548.1,360.2 555.9,365.4 546.4,366.1 			"/>
			<line class="st3" x1="534.1" y1="319.5" x2="546.2" y2="401"/>
			<line class="st3" x1="503.8" y1="336.2" x2="572.2" y2="384.3"/>
			<g>
				<line class="st3" x1="503" y1="341.6" x2="514.6" y2="344.2"/>
				<line class="st3" x1="509.7" y1="333.2" x2="514.9" y2="343.7"/>
			</g>
			<g>
				<line class="st4" x1="529.4" y1="323.2" x2="535.7" y2="333"/>
				<line class="st4" x1="540.2" y1="322" x2="536.2" y2="332.9"/>
			</g>
			<g>
				<line class="st3" x1="560.9" y1="328.4" x2="557.7" y2="339.6"/>
				<line class="st3" x1="569.2" y1="335.5" x2="558.1" y2="339.9"/>
			</g>
			<g>
				<line class="st3" x1="577.2" y1="353.9" x2="566.7" y2="359.4"/>
				<line class="st3" x1="577.8" y1="364.6" x2="566.8" y2="359.9"/>
			</g>
			<g>
				<line class="st3" x1="572.7" y1="378.7" x2="561" y2="375.9"/>
				<line class="st3" x1="565.7" y1="387" x2="560.8" y2="376.3"/>
			</g>
			<g>
				<line class="st3" x1="551.7" y1="396.6" x2="544.7" y2="387.2"/>
				<line class="st3" x1="540.8" y1="398.5" x2="544.2" y2="387.3"/>
			</g>
			<g>
				<line class="st3" x1="520.4" y1="393.5" x2="523.1" y2="382.2"/>
				<line class="st3" x1="511.8" y1="386.8" x2="522.7" y2="381.9"/>
			</g>
			<g>
				<line class="st3" x1="500.5" y1="372.3" x2="510.4" y2="365.9"/>
				<line class="st3" x1="499" y1="361.7" x2="510.3" y2="365.4"/>
			</g>
			<line class="st3" x1="581" y1="357.9" x2="497.1" y2="366.9"/>
			<line class="st3" x1="566.7" y1="329.3" x2="513.6" y2="393.3"/>
		</g>
		<g>
			<polygon class="st1" points="757.7,318.8 741.1,306.1 728.7,322.7 727.1,302.7 705.6,306.7 719.8,291.2 701.9,280.1 723.6,278.2 
				719.7,258.5 736.3,271.3 748.7,254.6 750.4,274.6 771.8,270.7 757.6,286.2 775.5,297.3 753.8,299.2 			"/>
			<polygon class="st2" points="747.3,302.2 740.1,296.3 734.8,303.9 734,294.8 724.7,296.5 730.8,289.5 723,284.3 732.4,283.5 
				730.7,274.6 737.9,280.5 743.2,272.9 744,282 753.3,280.3 747.2,287.3 755,292.4 745.6,293.2 			"/>
			<line class="st3" x1="733.2" y1="246.6" x2="745.3" y2="328.1"/>
			<line class="st3" x1="702.9" y1="263.3" x2="771.4" y2="311.4"/>
			<g>
				<line class="st3" x1="702.1" y1="268.7" x2="713.7" y2="271.2"/>
				<line class="st3" x1="708.9" y1="260.2" x2="714" y2="270.8"/>
			</g>
			<g>
				<line class="st4" x1="728.6" y1="250.3" x2="734.9" y2="260.1"/>
				<line class="st4" x1="739.3" y1="249" x2="735.4" y2="260"/>
			</g>
			<g>
				<line class="st3" x1="760" y1="255.4" x2="756.8" y2="266.7"/>
				<line class="st3" x1="768.3" y1="262.5" x2="757.2" y2="267"/>
			</g>
			<g>
				<line class="st3" x1="776.4" y1="280.9" x2="765.9" y2="286.5"/>
				<line class="st3" x1="776.9" y1="291.7" x2="766" y2="287"/>
			</g>
			<g>
				<line class="st3" x1="771.8" y1="305.7" x2="760.2" y2="303"/>
				<line class="st3" x1="764.8" y1="314" x2="759.9" y2="303.4"/>
			</g>
			<g>
				<line class="st3" x1="750.8" y1="323.7" x2="743.8" y2="314.2"/>
				<line class="st3" x1="740" y1="325.6" x2="743.3" y2="314.4"/>
			</g>
			<g>
				<line class="st3" x1="719.5" y1="320.6" x2="722.2" y2="309.2"/>
				<line class="st3" x1="711" y1="313.8" x2="721.8" y2="309"/>
			</g>
			<g>
				<line class="st3" x1="699.6" y1="299.4" x2="709.6" y2="292.9"/>
				<line class="st3" x1="698.1" y1="288.7" x2="709.4" y2="292.5"/>
			</g>
			<line class="st3" x1="780.1" y1="284.9" x2="696.3" y2="293.9"/>
			<line class="st3" x1="765.8" y1="256.3" x2="712.7" y2="320.4"/>
		</g>
		<g>
			<polygon class="st1" points="421.9,391.8 405.4,379 393,395.7 391.3,375.7 369.9,379.6 384,364.2 366.1,353 387.8,351.1 
				384,331.5 400.5,344.2 412.9,327.6 414.6,347.6 436.1,343.6 421.8,359.1 439.8,370.2 418,372.1 			"/>
			<polygon class="st2" points="411.6,375.1 404.4,369.3 399,376.8 398.2,367.7 389,369.4 395,362.4 387.2,357.3 396.7,356.5 
				394.9,347.5 402.1,353.4 407.4,345.9 408.2,355 417.5,353.2 411.4,360.2 419.2,365.4 409.8,366.1 			"/>
			<line class="st3" x1="397.5" y1="319.5" x2="409.6" y2="401"/>
			<line class="st3" x1="367.1" y1="336.2" x2="435.6" y2="384.3"/>
			<g>
				<line class="st3" x1="366.3" y1="341.6" x2="378" y2="344.2"/>
				<line class="st3" x1="373.1" y1="333.2" x2="378.2" y2="343.7"/>
			</g>
			<g>
				<line class="st4" x1="392.8" y1="323.2" x2="399.1" y2="333"/>
				<line class="st4" x1="403.5" y1="322" x2="399.6" y2="332.9"/>
			</g>
			<g>
				<line class="st3" x1="424.3" y1="328.4" x2="421" y2="339.6"/>
				<line class="st3" x1="432.5" y1="335.5" x2="421.5" y2="339.9"/>
			</g>
			<g>
				<line class="st3" x1="440.6" y1="353.9" x2="430.1" y2="359.4"/>
				<line class="st3" x1="441.1" y1="364.6" x2="430.2" y2="359.9"/>
			</g>
			<g>
				<line class="st3" x1="436" y1="378.7" x2="424.4" y2="375.9"/>
				<line class="st3" x1="429" y1="387" x2="424.2" y2="376.3"/>
			</g>
			<g>
				<line class="st3" x1="415" y1="396.6" x2="408" y2="387.2"/>
				<line class="st3" x1="404.2" y1="398.5" x2="407.5" y2="387.3"/>
			</g>
			<g>
				<line class="st3" x1="383.8" y1="393.5" x2="386.5" y2="382.2"/>
				<line class="st3" x1="375.2" y1="386.8" x2="386.1" y2="381.9"/>
			</g>
			<g>
				<line class="st3" x1="363.9" y1="372.3" x2="373.8" y2="365.9"/>
				<line class="st3" x1="362.3" y1="361.7" x2="373.7" y2="365.4"/>
			</g>
			<line class="st3" x1="444.3" y1="357.9" x2="360.5" y2="366.9"/>
			<line class="st3" x1="430" y1="329.3" x2="377" y2="393.3"/>
		</g>
		<g>
			<polygon class="st1" points="152.6,391.8 136,379 123.6,395.7 121.9,375.7 100.5,379.6 114.7,364.2 96.8,353 118.5,351.1 
				114.6,331.5 131.2,344.2 143.6,327.6 145.3,347.6 166.7,343.6 152.5,359.1 170.4,370.2 148.7,372.1 			"/>
			<polygon class="st2" points="142.2,375.1 135,369.3 129.7,376.8 128.9,367.7 119.6,369.4 125.7,362.4 117.9,357.3 127.3,356.5 
				125.6,347.5 132.8,353.4 138.1,345.9 138.9,355 148.2,353.2 142.1,360.2 149.9,365.4 140.5,366.1 			"/>
			<line class="st3" x1="128.1" y1="319.5" x2="140.2" y2="401"/>
			<line class="st3" x1="97.8" y1="336.2" x2="166.3" y2="384.3"/>
			<g>
				<line class="st3" x1="96.9" y1="341.6" x2="108.6" y2="344.2"/>
				<line class="st3" x1="103.8" y1="333.2" x2="108.9" y2="343.7"/>
			</g>
			<g>
				<line class="st4" x1="123.5" y1="323.2" x2="129.8" y2="333"/>
				<line class="st4" x1="134.2" y1="322" x2="130.2" y2="332.9"/>
			</g>
			<g>
				<line class="st3" x1="154.9" y1="328.4" x2="151.7" y2="339.6"/>
				<line class="st3" x1="163.2" y1="335.5" x2="152.1" y2="339.9"/>
			</g>
			<g>
				<line class="st3" x1="171.3" y1="353.9" x2="160.8" y2="359.4"/>
				<line class="st3" x1="171.8" y1="364.6" x2="160.8" y2="359.9"/>
			</g>
			<g>
				<line class="st3" x1="166.7" y1="378.7" x2="155.1" y2="375.9"/>
				<line class="st3" x1="159.7" y1="387" x2="154.8" y2="376.3"/>
			</g>
			<g>
				<line class="st3" x1="145.7" y1="396.6" x2="138.7" y2="387.2"/>
				<line class="st3" x1="134.9" y1="398.5" x2="138.2" y2="387.3"/>
			</g>
			<g>
				<line class="st3" x1="114.4" y1="393.5" x2="117.1" y2="382.2"/>
				<line class="st3" x1="105.9" y1="386.8" x2="116.7" y2="381.9"/>
			</g>
			<g>
				<line class="st3" x1="94.5" y1="372.3" x2="104.5" y2="365.9"/>
				<line class="st3" x1="93" y1="361.7" x2="104.3" y2="365.4"/>
			</g>
			<line class="st3" x1="175" y1="357.9" x2="91.2" y2="366.9"/>
			<line class="st3" x1="160.7" y1="329.3" x2="107.6" y2="393.3"/>
		</g>
		<g>
			<polygon class="st1" points="297.2,529.4 280.7,516.6 268.2,533.3 266.6,513.3 245.1,517.2 259.3,501.8 241.4,490.6 263.1,488.8 
				259.2,469.1 275.8,481.9 288.2,465.2 289.9,485.1 311.3,481.3 297.1,496.7 315.1,507.9 293.3,509.7 			"/>
			<polygon class="st2" points="286.9,512.8 279.6,506.9 274.3,514.4 273.5,505.3 264.2,507 270.3,500.1 262.5,494.9 272,494.1 
				270.2,485.1 277.4,491 282.7,483.5 283.5,492.6 292.8,490.8 286.7,497.8 294.5,503 285.1,503.8 			"/>
			<line class="st3" x1="272.7" y1="457.1" x2="284.8" y2="538.6"/>
			<line class="st3" x1="242.4" y1="473.8" x2="310.9" y2="522"/>
			<g>
				<line class="st3" x1="241.6" y1="479.2" x2="253.3" y2="481.8"/>
				<line class="st3" x1="248.4" y1="470.8" x2="253.5" y2="481.3"/>
			</g>
			<g>
				<line class="st4" x1="268.1" y1="460.8" x2="274.4" y2="470.7"/>
				<line class="st4" x1="278.8" y1="459.5" x2="274.9" y2="470.6"/>
			</g>
			<g>
				<line class="st3" x1="299.5" y1="466" x2="296.3" y2="477.2"/>
				<line class="st3" x1="307.8" y1="473.1" x2="296.7" y2="477.5"/>
			</g>
			<g>
				<line class="st3" x1="315.9" y1="491.5" x2="305.4" y2="497"/>
				<line class="st3" x1="316.4" y1="502.2" x2="305.5" y2="497.5"/>
			</g>
			<g>
				<line class="st3" x1="311.3" y1="516.3" x2="299.7" y2="513.5"/>
				<line class="st3" x1="304.3" y1="524.6" x2="299.4" y2="513.9"/>
			</g>
			<g>
				<line class="st3" x1="290.3" y1="534.2" x2="283.3" y2="524.8"/>
				<line class="st3" x1="279.5" y1="536.2" x2="282.8" y2="524.9"/>
			</g>
			<g>
				<line class="st3" x1="259.1" y1="531.2" x2="261.8" y2="519.8"/>
				<line class="st3" x1="250.5" y1="524.4" x2="261.4" y2="519.5"/>
			</g>
			<g>
				<line class="st3" x1="239.1" y1="510" x2="249.1" y2="503.5"/>
				<line class="st3" x1="237.6" y1="499.3" x2="249" y2="503"/>
			</g>
			<line class="st3" x1="319.6" y1="495.4" x2="235.8" y2="504.5"/>
			<line class="st3" x1="305.3" y1="466.9" x2="252.2" y2="530.9"/>
		</g>
		<g>
			<polygon class="st1" points="87,461.2 70.5,448.4 58.1,465.1 56.4,445.1 35,449 49.1,433.5 31.2,422.4 53,420.5 49.1,400.9 
				65.6,413.6 78,397 79.7,417 101.1,413 87,428.5 104.9,439.6 83.1,441.5 			"/>
			<polygon class="st2" points="76.7,444.5 69.5,438.6 64.2,446.2 63.3,437.1 54.1,438.8 60.2,431.8 52.4,426.7 61.8,425.9 
				60,416.9 67.2,422.8 72.5,415.2 73.4,424.3 82.6,422.6 76.5,429.6 84.3,434.8 74.9,435.5 			"/>
			<line class="st3" x1="62.5" y1="388.9" x2="74.7" y2="470.4"/>
			<line class="st3" x1="32.2" y1="405.6" x2="100.7" y2="453.7"/>
			<g>
				<line class="st3" x1="31.4" y1="411" x2="43.1" y2="413.6"/>
				<line class="st3" x1="38.2" y1="402.6" x2="43.3" y2="413.1"/>
			</g>
			<g>
				<line class="st4" x1="57.9" y1="392.6" x2="64.2" y2="402.4"/>
				<line class="st4" x1="68.7" y1="391.3" x2="64.7" y2="402.3"/>
			</g>
			<g>
				<line class="st3" x1="89.4" y1="397.8" x2="86.1" y2="409"/>
				<line class="st3" x1="97.6" y1="404.9" x2="86.5" y2="409.3"/>
			</g>
			<g>
				<line class="st3" x1="105.7" y1="423.2" x2="95.2" y2="428.8"/>
				<line class="st3" x1="106.2" y1="434" x2="95.3" y2="429.3"/>
			</g>
			<g>
				<line class="st3" x1="101.1" y1="448.1" x2="89.5" y2="445.3"/>
				<line class="st3" x1="94.1" y1="456.4" x2="89.2" y2="445.7"/>
			</g>
			<g>
				<line class="st3" x1="80.1" y1="466" x2="73.1" y2="456.6"/>
				<line class="st3" x1="69.3" y1="467.9" x2="72.7" y2="456.7"/>
			</g>
			<g>
				<line class="st3" x1="48.9" y1="462.9" x2="51.6" y2="451.6"/>
				<line class="st3" x1="40.3" y1="456.2" x2="51.2" y2="451.3"/>
			</g>
			<g>
				<line class="st3" x1="29" y1="441.7" x2="38.9" y2="435.3"/>
				<line class="st3" x1="27.4" y1="431.1" x2="38.8" y2="434.8"/>
			</g>
			<line class="st3" x1="109.5" y1="427.2" x2="25.6" y2="436.3"/>
			<line class="st3" x1="95.2" y1="398.7" x2="42.1" y2="462.7"/>
		</g>
		<g>
			<polygon class="st1" points="292.8,391.8 276.3,379 263.9,395.7 262.2,375.7 240.7,379.6 254.9,364.2 237,353 258.7,351.1 
				254.8,331.5 271.4,344.2 283.8,327.6 285.5,347.6 306.9,343.6 292.8,359.1 310.7,370.2 289,372.1 			"/>
			<polygon class="st2" points="282.5,375.1 275.2,369.3 269.9,376.8 269.1,367.7 259.8,369.4 265.9,362.4 258.1,357.3 267.5,356.5 
				265.8,347.5 273,353.4 278.4,345.9 279.2,355 288.4,353.2 282.3,360.2 290.1,365.4 280.7,366.1 			"/>
			<line class="st3" x1="268.3" y1="319.5" x2="280.5" y2="401"/>
			<line class="st3" x1="238" y1="336.2" x2="306.5" y2="384.3"/>
			<g>
				<line class="st3" x1="237.2" y1="341.6" x2="248.9" y2="344.2"/>
				<line class="st3" x1="244" y1="333.2" x2="249.1" y2="343.7"/>
			</g>
			<g>
				<line class="st4" x1="263.7" y1="323.2" x2="270" y2="333"/>
				<line class="st4" x1="274.5" y1="322" x2="270.5" y2="332.9"/>
			</g>
			<g>
				<line class="st3" x1="295.2" y1="328.4" x2="291.9" y2="339.6"/>
				<line class="st3" x1="303.4" y1="335.5" x2="292.4" y2="339.9"/>
			</g>
			<g>
				<line class="st3" x1="311.5" y1="353.9" x2="301" y2="359.4"/>
				<line class="st3" x1="312.1" y1="364.6" x2="301.1" y2="359.9"/>
			</g>
			<g>
				<line class="st3" x1="306.9" y1="378.7" x2="295.3" y2="375.9"/>
				<line class="st3" x1="299.9" y1="387" x2="295" y2="376.3"/>
			</g>
			<g>
				<line class="st3" x1="285.9" y1="396.6" x2="279" y2="387.2"/>
				<line class="st3" x1="275.1" y1="398.5" x2="278.5" y2="387.3"/>
			</g>
			<g>
				<line class="st3" x1="254.7" y1="393.5" x2="257.4" y2="382.2"/>
				<line class="st3" x1="246.1" y1="386.8" x2="256.9" y2="381.9"/>
			</g>
			<g>
				<line class="st3" x1="234.8" y1="372.3" x2="244.7" y2="365.9"/>
				<line class="st3" x1="233.3" y1="361.7" x2="244.6" y2="365.4"/>
			</g>
			<line class="st3" x1="315.3" y1="357.9" x2="231.4" y2="366.9"/>
			<line class="st3" x1="301" y1="329.3" x2="247.8" y2="393.3"/>
		</g>
		<g>
			<polygon class="st1" points="501,463.8 484.5,451 472.1,467.7 470.4,447.7 449,451.6 463.1,436.1 445.2,425 467,423.1 
				463.1,403.4 479.6,416.2 492,399.6 493.7,419.5 515.2,415.6 501,431.1 518.9,442.2 497.1,444.1 			"/>
			<polygon class="st2" points="490.7,447.1 483.5,441.2 478.1,448.8 477.3,439.7 468.1,441.4 474.2,434.4 466.4,429.3 475.8,428.5 
				474,419.5 481.2,425.4 486.5,417.8 487.4,426.9 496.6,425.2 490.5,432.2 498.3,437.4 488.9,438.1 			"/>
			<line class="st3" x1="476.6" y1="391.5" x2="488.7" y2="473"/>
			<line class="st3" x1="446.2" y1="408.2" x2="514.7" y2="456.3"/>
			<g>
				<line class="st3" x1="445.4" y1="413.6" x2="457.1" y2="416.1"/>
				<line class="st3" x1="452.2" y1="405.2" x2="457.3" y2="415.7"/>
			</g>
			<g>
				<line class="st4" x1="471.9" y1="395.2" x2="478.2" y2="405"/>
				<line class="st4" x1="482.7" y1="393.9" x2="478.7" y2="404.9"/>
			</g>
			<g>
				<line class="st3" x1="503.4" y1="400.4" x2="500.2" y2="411.6"/>
				<line class="st3" x1="511.6" y1="407.5" x2="500.6" y2="411.9"/>
			</g>
			<g>
				<line class="st3" x1="519.7" y1="425.8" x2="509.2" y2="431.4"/>
				<line class="st3" x1="520.2" y1="436.6" x2="509.3" y2="431.9"/>
			</g>
			<g>
				<line class="st3" x1="515.1" y1="450.6" x2="503.5" y2="447.9"/>
				<line class="st3" x1="508.1" y1="458.9" x2="503.3" y2="448.3"/>
			</g>
			<g>
				<line class="st3" x1="494.1" y1="468.6" x2="487.1" y2="459.1"/>
				<line class="st3" x1="483.3" y1="470.5" x2="486.7" y2="459.3"/>
			</g>
			<g>
				<line class="st3" x1="462.9" y1="465.5" x2="465.6" y2="454.1"/>
				<line class="st3" x1="454.3" y1="458.8" x2="465.2" y2="453.9"/>
			</g>
			<g>
				<line class="st3" x1="443" y1="444.3" x2="452.9" y2="437.9"/>
				<line class="st3" x1="441.4" y1="433.7" x2="452.8" y2="437.4"/>
			</g>
			<line class="st3" x1="523.5" y1="429.8" x2="439.6" y2="438.9"/>
			<line class="st3" x1="509.1" y1="401.3" x2="456.1" y2="465.3"/>
		</g>
		<g>
			<polygon class="st1" points="562.7,529.4 546.2,516.6 533.7,533.3 532.1,513.3 510.6,517.2 524.8,501.8 506.9,490.6 528.6,488.8 
				524.7,469.1 541.3,481.9 553.7,465.2 555.4,485.1 576.8,481.3 562.6,496.7 580.6,507.9 558.8,509.7 			"/>
			<polygon class="st2" points="552.4,512.8 545.2,506.9 539.8,514.4 539,505.3 529.7,507 535.8,500.1 528,494.9 537.5,494.1 
				535.7,485.1 542.9,491 548.2,483.5 549,492.6 558.3,490.8 552.2,497.8 560,503 550.6,503.8 			"/>
			<line class="st3" x1="538.2" y1="457.1" x2="550.3" y2="538.6"/>
			<line class="st3" x1="507.9" y1="473.8" x2="576.4" y2="522"/>
			<g>
				<line class="st3" x1="507.1" y1="479.2" x2="518.8" y2="481.8"/>
				<line class="st3" x1="513.9" y1="470.8" x2="519" y2="481.3"/>
			</g>
			<g>
				<line class="st4" x1="533.6" y1="460.8" x2="539.9" y2="470.7"/>
				<line class="st4" x1="544.3" y1="459.5" x2="540.4" y2="470.6"/>
			</g>
			<g>
				<line class="st3" x1="565.1" y1="466" x2="561.8" y2="477.2"/>
				<line class="st3" x1="573.3" y1="473.1" x2="562.2" y2="477.5"/>
			</g>
			<g>
				<line class="st3" x1="581.4" y1="491.5" x2="570.9" y2="497"/>
				<line class="st3" x1="581.9" y1="502.2" x2="571" y2="497.5"/>
			</g>
			<g>
				<line class="st3" x1="576.8" y1="516.3" x2="565.2" y2="513.5"/>
				<line class="st3" x1="569.8" y1="524.6" x2="564.9" y2="513.9"/>
			</g>
			<g>
				<line class="st3" x1="555.8" y1="534.2" x2="548.8" y2="524.8"/>
				<line class="st3" x1="545" y1="536.2" x2="548.3" y2="524.9"/>
			</g>
			<g>
				<line class="st3" x1="524.6" y1="531.2" x2="527.3" y2="519.8"/>
				<line class="st3" x1="516" y1="524.4" x2="526.9" y2="519.5"/>
			</g>
			<g>
				<line class="st3" x1="504.6" y1="510" x2="514.6" y2="503.5"/>
				<line class="st3" x1="503.1" y1="499.3" x2="514.5" y2="503"/>
			</g>
			<line class="st3" x1="585.1" y1="495.4" x2="501.3" y2="504.5"/>
			<line class="st3" x1="570.8" y1="466.9" x2="517.7" y2="530.9"/>
		</g>
		<g>
			<polygon class="st1" points="627,461.2 610.4,448.4 598,465.1 596.3,445.1 574.9,449 589,433.5 571.1,422.4 592.8,420.5 
				589,400.9 605.5,413.6 617.9,397 619.6,417 641.1,413 626.9,428.5 644.8,439.6 623.1,441.5 			"/>
			<polygon class="st2" points="616.6,444.5 609.4,438.6 604,446.2 603.2,437.1 594,438.8 600.1,431.8 592.2,426.7 601.7,425.9 
				599.9,416.9 607.1,422.8 612.5,415.2 613.2,424.3 622.6,422.6 616.4,429.6 624.2,434.8 614.8,435.5 			"/>
			<line class="st3" x1="602.5" y1="388.9" x2="614.6" y2="470.4"/>
			<line class="st3" x1="572.1" y1="405.6" x2="640.6" y2="453.7"/>
			<g>
				<line class="st3" x1="571.3" y1="411" x2="583" y2="413.6"/>
				<line class="st3" x1="578.1" y1="402.6" x2="583.3" y2="413.1"/>
			</g>
			<g>
				<line class="st4" x1="597.8" y1="392.6" x2="604.1" y2="402.4"/>
				<line class="st4" x1="608.6" y1="391.3" x2="604.6" y2="402.3"/>
			</g>
			<g>
				<line class="st3" x1="629.3" y1="397.8" x2="626" y2="409"/>
				<line class="st3" x1="637.5" y1="404.9" x2="626.5" y2="409.3"/>
			</g>
			<g>
				<line class="st3" x1="645.6" y1="423.2" x2="635.1" y2="428.8"/>
				<line class="st3" x1="646.2" y1="434" x2="635.2" y2="429.3"/>
			</g>
			<g>
				<line class="st3" x1="641" y1="448.1" x2="629.4" y2="445.3"/>
				<line class="st3" x1="634" y1="456.4" x2="629.2" y2="445.7"/>
			</g>
			<g>
				<line class="st3" x1="620.1" y1="466" x2="613" y2="456.6"/>
				<line class="st3" x1="609.2" y1="467.9" x2="612.6" y2="456.7"/>
			</g>
			<g>
				<line class="st3" x1="588.8" y1="462.9" x2="591.5" y2="451.6"/>
				<line class="st3" x1="580.2" y1="456.2" x2="591.1" y2="451.3"/>
			</g>
			<g>
				<line class="st3" x1="568.9" y1="441.7" x2="578.8" y2="435.3"/>
				<line class="st3" x1="567.4" y1="431.1" x2="578.7" y2="434.8"/>
			</g>
			<line class="st3" x1="649.4" y1="427.2" x2="565.5" y2="436.3"/>
			<line class="st3" x1="635.1" y1="398.7" x2="582" y2="462.7"/>
		</g>
		<g>
			<polygon class="st1" points="151.3,529.4 134.8,516.6 122.3,533.3 120.7,513.3 99.2,517.2 113.4,501.8 95.5,490.6 117.2,488.8 
				113.3,469.1 129.9,481.9 142.3,465.2 144,485.1 165.4,481.3 151.2,496.7 169.2,507.9 147.4,509.7 			"/>
			<polygon class="st2" points="141,512.8 133.7,506.9 128.4,514.4 127.6,505.3 118.3,507 124.4,500.1 116.6,494.9 126,494.1 
				124.3,485.1 131.5,491 136.8,483.5 137.6,492.6 146.9,490.8 140.8,497.8 148.6,503 139.2,503.8 			"/>
			<line class="st3" x1="126.8" y1="457.1" x2="138.9" y2="538.6"/>
			<line class="st3" x1="96.5" y1="473.8" x2="165" y2="522"/>
			<g>
				<line class="st3" x1="95.7" y1="479.2" x2="107.4" y2="481.8"/>
				<line class="st3" x1="102.5" y1="470.8" x2="107.6" y2="481.3"/>
			</g>
			<g>
				<line class="st4" x1="122.2" y1="460.8" x2="128.5" y2="470.7"/>
				<line class="st4" x1="132.9" y1="459.5" x2="129" y2="470.6"/>
			</g>
			<g>
				<line class="st3" x1="153.7" y1="466" x2="150.4" y2="477.2"/>
				<line class="st3" x1="161.9" y1="473.1" x2="150.8" y2="477.5"/>
			</g>
			<g>
				<line class="st3" x1="170" y1="491.5" x2="159.5" y2="497"/>
				<line class="st3" x1="170.5" y1="502.2" x2="159.6" y2="497.5"/>
			</g>
			<g>
				<line class="st3" x1="165.4" y1="516.3" x2="153.8" y2="513.5"/>
				<line class="st3" x1="158.4" y1="524.6" x2="153.5" y2="513.9"/>
			</g>
			<g>
				<line class="st3" x1="144.4" y1="534.2" x2="137.4" y2="524.8"/>
				<line class="st3" x1="133.6" y1="536.2" x2="136.9" y2="524.9"/>
			</g>
			<g>
				<line class="st3" x1="113.2" y1="531.2" x2="115.9" y2="519.8"/>
				<line class="st3" x1="104.6" y1="524.4" x2="115.4" y2="519.5"/>
			</g>
			<g>
				<line class="st3" x1="93.2" y1="510" x2="103.2" y2="503.5"/>
				<line class="st3" x1="91.7" y1="499.3" x2="103.1" y2="503"/>
			</g>
			<line class="st3" x1="173.7" y1="495.4" x2="89.9" y2="504.5"/>
			<line class="st3" x1="159.4" y1="466.9" x2="106.3" y2="530.9"/>
		</g>
		<g>
			<polygon class="st1" points="223.4,461.2 206.9,448.4 194.5,465.1 192.8,445.1 171.3,449 185.5,433.5 167.6,422.4 189.3,420.5 
				185.5,400.9 202,413.6 214.4,397 216.1,417 237.5,413 223.4,428.5 241.3,439.6 219.5,441.5 			"/>
			<polygon class="st2" points="213.1,444.5 205.9,438.6 200.5,446.2 199.7,437.1 190.5,438.8 196.6,431.8 188.7,426.7 198.2,425.9 
				196.4,416.9 203.6,422.8 208.9,415.2 209.7,424.3 219,422.6 212.9,429.6 220.7,434.8 211.3,435.5 			"/>
			<line class="st3" x1="198.9" y1="388.9" x2="211" y2="470.4"/>
			<line class="st3" x1="168.6" y1="405.6" x2="237.1" y2="453.7"/>
			<g>
				<line class="st3" x1="167.8" y1="411" x2="179.5" y2="413.6"/>
				<line class="st3" x1="174.6" y1="402.6" x2="179.7" y2="413.1"/>
			</g>
			<g>
				<line class="st4" x1="194.3" y1="392.6" x2="200.6" y2="402.4"/>
				<line class="st4" x1="205.1" y1="391.3" x2="201.1" y2="402.3"/>
			</g>
			<g>
				<line class="st3" x1="225.8" y1="397.8" x2="222.5" y2="409"/>
				<line class="st3" x1="234" y1="404.9" x2="222.9" y2="409.3"/>
			</g>
			<g>
				<line class="st3" x1="242.1" y1="423.2" x2="231.6" y2="428.8"/>
				<line class="st3" x1="242.6" y1="434" x2="231.7" y2="429.3"/>
			</g>
			<g>
				<line class="st3" x1="237.5" y1="448.1" x2="225.9" y2="445.3"/>
				<line class="st3" x1="230.5" y1="456.4" x2="225.6" y2="445.7"/>
			</g>
			<g>
				<line class="st3" x1="216.5" y1="466" x2="209.5" y2="456.6"/>
				<line class="st3" x1="205.7" y1="467.9" x2="209" y2="456.7"/>
			</g>
			<g>
				<line class="st3" x1="185.3" y1="462.9" x2="188" y2="451.6"/>
				<line class="st3" x1="176.7" y1="456.2" x2="187.6" y2="451.3"/>
			</g>
			<g>
				<line class="st3" x1="165.3" y1="441.7" x2="175.3" y2="435.3"/>
				<line class="st3" x1="163.8" y1="431.1" x2="175.2" y2="434.8"/>
			</g>
			<line class="st3" x1="245.9" y1="427.2" x2="162" y2="436.3"/>
			<line class="st3" x1="231.5" y1="398.7" x2="178.5" y2="462.7"/>
		</g>
		<g>
			<polygon class="st1" points="369.7,603.3 353.1,590.5 340.7,607.2 339,587.2 317.6,591.1 331.8,575.6 313.8,564.5 335.6,562.6 
				331.7,542.9 348.2,555.7 360.7,539 362.3,559 383.8,555.1 369.6,570.6 387.5,581.7 365.8,583.6 			"/>
			<polygon class="st2" points="359.3,586.6 352.1,580.7 346.8,588.3 346,579.2 336.7,580.9 342.8,573.9 335,568.7 344.4,568 
				342.6,559 349.9,564.9 355.2,557.3 356,566.4 365.3,564.7 359.2,571.7 367,576.8 357.5,577.6 			"/>
			<line class="st3" x1="345.2" y1="531" x2="357.3" y2="612.5"/>
			<line class="st3" x1="314.9" y1="547.7" x2="383.4" y2="595.8"/>
			<g>
				<line class="st3" x1="314" y1="553.1" x2="325.7" y2="555.6"/>
				<line class="st3" x1="320.8" y1="544.6" x2="326" y2="555.2"/>
			</g>
			<g>
				<line class="st4" x1="340.6" y1="534.7" x2="346.9" y2="544.5"/>
				<line class="st4" x1="351.3" y1="533.4" x2="347.3" y2="544.4"/>
			</g>
			<g>
				<line class="st3" x1="372" y1="539.8" x2="368.8" y2="551.1"/>
				<line class="st3" x1="380.2" y1="546.9" x2="369.2" y2="551.3"/>
			</g>
			<g>
				<line class="st3" x1="388.4" y1="565.3" x2="377.8" y2="570.9"/>
				<line class="st3" x1="388.9" y1="576" x2="377.9" y2="571.4"/>
			</g>
			<g>
				<line class="st3" x1="383.7" y1="590.1" x2="372.2" y2="587.4"/>
				<line class="st3" x1="376.8" y1="598.4" x2="371.9" y2="587.8"/>
			</g>
			<g>
				<line class="st3" x1="362.8" y1="608.1" x2="355.8" y2="598.7"/>
				<line class="st3" x1="351.9" y1="610" x2="355.3" y2="598.8"/>
			</g>
			<g>
				<line class="st3" x1="331.5" y1="605" x2="334.2" y2="593.6"/>
				<line class="st3" x1="322.9" y1="598.3" x2="333.8" y2="593.4"/>
			</g>
			<g>
				<line class="st3" x1="311.6" y1="583.8" x2="321.6" y2="577.3"/>
				<line class="st3" x1="310.1" y1="573.2" x2="321.4" y2="576.9"/>
			</g>
			<line class="st3" x1="392.1" y1="569.3" x2="308.2" y2="578.4"/>
			<line class="st3" x1="377.8" y1="540.8" x2="324.7" y2="604.8"/>
		</g>
		<g>
			<polygon class="st1" points="370.5,461.4 352.5,450.6 342.2,468.6 338.1,449 317.3,455.4 329.4,438.4 310.3,429.4 331.6,425 
				325.4,405.9 343.4,416.7 353.7,398.7 357.8,418.3 378.6,411.9 366.4,428.9 385.6,437.9 364.2,442.3 			"/>
			<polygon class="st2" points="358.2,446.1 350.3,441.1 345.9,449.2 344,440.3 335,443 340.2,435.4 331.8,431.2 341.1,429.3 
				338.2,420.6 346.1,425.6 350.5,417.4 352.4,426.4 361.4,423.6 356.2,431.3 364.6,435.5 355.3,437.4 			"/>
			<line class="st3" x1="337.3" y1="392.5" x2="359.3" y2="472"/>
			<line class="st3" x1="309.3" y1="412.6" x2="383.2" y2="452.4"/>
			<g>
				<line class="st3" x1="309.1" y1="418.1" x2="321" y2="419.2"/>
				<line class="st3" x1="314.8" y1="408.9" x2="321.2" y2="418.8"/>
			</g>
			<g>
				<line class="st4" x1="333.2" y1="396.7" x2="340.6" y2="405.8"/>
				<line class="st4" x1="343.7" y1="394.2" x2="341.1" y2="405.6"/>
			</g>
			<g>
				<line class="st3" x1="365" y1="398.2" x2="363.2" y2="409.7"/>
				<line class="st3" x1="374.1" y1="404.3" x2="363.6" y2="409.9"/>
			</g>
			<g>
				<line class="st3" x1="384.4" y1="421.6" x2="374.6" y2="428.3"/>
				<line class="st3" x1="386.2" y1="432.1" x2="374.8" y2="428.8"/>
			</g>
			<g>
				<line class="st3" x1="382.9" y1="446.7" x2="371" y2="445.3"/>
				<line class="st3" x1="377" y1="455.8" x2="370.8" y2="445.7"/>
			</g>
			<g>
				<line class="st3" x1="364.3" y1="467" x2="356.1" y2="458.4"/>
				<line class="st3" x1="353.7" y1="470.2" x2="355.7" y2="458.6"/>
			</g>
			<g>
				<line class="st3" x1="332.8" y1="467.6" x2="334.1" y2="456"/>
				<line class="st3" x1="323.5" y1="461.9" x2="333.6" y2="455.8"/>
			</g>
			<g>
				<line class="st3" x1="310.4" y1="448.9" x2="319.5" y2="441.3"/>
				<line class="st3" x1="307.6" y1="438.5" x2="319.3" y2="440.8"/>
			</g>
			<line class="st3" x1="388.6" y1="425" x2="306.5" y2="443.9"/>
			<line class="st3" x1="370.9" y1="398.4" x2="326" y2="468.2"/>
		</g>
		<g>
			<polygon class="st1" points="432.1,529.4 415.6,516.6 403.2,533.3 401.5,513.3 380,517.2 394.2,501.8 376.3,490.6 398,488.8 
				394.1,469.1 410.7,481.9 423.1,465.2 424.8,485.1 446.2,481.3 432,496.7 449.9,507.9 428.2,509.7 			"/>
			<polygon class="st2" points="421.7,512.8 414.5,506.9 409.2,514.4 408.4,505.3 399.1,507 405.2,500.1 397.4,494.9 406.8,494.1 
				405.1,485.1 412.3,491 417.6,483.5 418.4,492.6 427.7,490.8 421.6,497.8 429.4,503 420,503.8 			"/>
			<line class="st3" x1="407.6" y1="457.1" x2="419.8" y2="538.6"/>
			<line class="st3" x1="377.3" y1="473.8" x2="445.8" y2="522"/>
			<g>
				<line class="st3" x1="376.5" y1="479.2" x2="388.2" y2="481.8"/>
				<line class="st3" x1="383.3" y1="470.8" x2="388.4" y2="481.3"/>
			</g>
			<g>
				<line class="st4" x1="403" y1="460.8" x2="409.3" y2="470.7"/>
				<line class="st4" x1="413.7" y1="459.5" x2="409.8" y2="470.6"/>
			</g>
			<g>
				<line class="st3" x1="434.4" y1="466" x2="431.2" y2="477.2"/>
				<line class="st3" x1="442.7" y1="473.1" x2="431.6" y2="477.5"/>
			</g>
			<g>
				<line class="st3" x1="450.8" y1="491.5" x2="440.3" y2="497"/>
				<line class="st3" x1="451.3" y1="502.2" x2="440.4" y2="497.5"/>
			</g>
			<g>
				<line class="st3" x1="446.2" y1="516.3" x2="434.6" y2="513.5"/>
				<line class="st3" x1="439.2" y1="524.6" x2="434.3" y2="513.9"/>
			</g>
			<g>
				<line class="st3" x1="425.2" y1="534.2" x2="418.2" y2="524.8"/>
				<line class="st3" x1="414.4" y1="536.2" x2="417.7" y2="524.9"/>
			</g>
			<g>
				<line class="st3" x1="394" y1="531.2" x2="396.7" y2="519.8"/>
				<line class="st3" x1="385.4" y1="524.4" x2="396.2" y2="519.5"/>
			</g>
			<g>
				<line class="st3" x1="374.1" y1="510" x2="384" y2="503.5"/>
				<line class="st3" x1="372.5" y1="499.3" x2="383.9" y2="503"/>
			</g>
			<line class="st3" x1="454.5" y1="495.4" x2="370.7" y2="504.5"/>
			<line class="st3" x1="440.3" y1="466.9" x2="387.1" y2="530.9"/>
		</g>
		<g>
			<polygon class="st1" points="681.3,391.8 664.8,379 652.4,395.7 650.7,375.7 629.2,379.6 643.4,364.2 625.5,353 647.2,351.1 
				643.3,331.5 659.9,344.2 672.3,327.6 674,347.6 695.4,343.6 681.3,359.1 699.2,370.2 677.4,372.1 			"/>
			<polygon class="st2" points="670.9,375.1 663.7,369.3 658.4,376.8 657.6,367.7 648.3,369.4 654.4,362.4 646.6,357.3 656,356.5 
				654.3,347.5 661.5,353.4 666.8,345.9 667.6,355 676.9,353.2 670.8,360.2 678.6,365.4 669.2,366.1 			"/>
			<line class="st3" x1="656.8" y1="319.5" x2="668.9" y2="401"/>
			<line class="st3" x1="626.5" y1="336.2" x2="695" y2="384.3"/>
			<g>
				<line class="st3" x1="625.7" y1="341.6" x2="637.4" y2="344.2"/>
				<line class="st3" x1="632.5" y1="333.2" x2="637.6" y2="343.7"/>
			</g>
			<g>
				<line class="st4" x1="652.2" y1="323.2" x2="658.5" y2="333"/>
				<line class="st4" x1="663" y1="322" x2="659" y2="332.9"/>
			</g>
			<g>
				<line class="st3" x1="683.6" y1="328.4" x2="680.4" y2="339.6"/>
				<line class="st3" x1="691.9" y1="335.5" x2="680.8" y2="339.9"/>
			</g>
			<g>
				<line class="st3" x1="700" y1="353.9" x2="689.5" y2="359.4"/>
				<line class="st3" x1="700.5" y1="364.6" x2="689.6" y2="359.9"/>
			</g>
			<g>
				<line class="st3" x1="695.4" y1="378.7" x2="683.8" y2="375.9"/>
				<line class="st3" x1="688.4" y1="387" x2="683.5" y2="376.3"/>
			</g>
			<g>
				<line class="st3" x1="674.4" y1="396.6" x2="667.4" y2="387.2"/>
				<line class="st3" x1="663.6" y1="398.5" x2="667" y2="387.3"/>
			</g>
			<g>
				<line class="st3" x1="643.2" y1="393.5" x2="645.9" y2="382.2"/>
				<line class="st3" x1="634.6" y1="386.8" x2="645.4" y2="381.9"/>
			</g>
			<g>
				<line class="st3" x1="623.2" y1="372.3" x2="633.2" y2="365.9"/>
				<line class="st3" x1="621.7" y1="361.7" x2="633" y2="365.4"/>
			</g>
			<line class="st3" x1="703.7" y1="357.9" x2="619.9" y2="366.9"/>
			<line class="st3" x1="689.5" y1="329.3" x2="636.3" y2="393.3"/>
		</g>
		<g>
			<polygon class="st1" points="757.7,461.2 741.1,448.4 728.7,465.1 727.1,445.1 705.6,449 719.8,433.5 701.9,422.4 723.6,420.5 
				719.7,400.9 736.3,413.6 748.7,397 750.4,417 771.8,413 757.6,428.5 775.5,439.6 753.8,441.5 			"/>
			<polygon class="st2" points="747.3,444.5 740.1,438.6 734.8,446.2 734,437.1 724.7,438.8 730.8,431.8 723,426.7 732.4,425.9 
				730.7,416.9 737.9,422.8 743.2,415.2 744,424.3 753.3,422.6 747.2,429.6 755,434.8 745.6,435.5 			"/>
			<line class="st3" x1="733.2" y1="388.9" x2="745.3" y2="470.4"/>
			<line class="st3" x1="702.9" y1="405.6" x2="771.4" y2="453.7"/>
			<g>
				<line class="st3" x1="702.1" y1="411" x2="713.7" y2="413.6"/>
				<line class="st3" x1="708.9" y1="402.6" x2="714" y2="413.1"/>
			</g>
			<g>
				<line class="st4" x1="728.6" y1="392.6" x2="734.9" y2="402.4"/>
				<line class="st4" x1="739.3" y1="391.3" x2="735.4" y2="402.3"/>
			</g>
			<g>
				<line class="st3" x1="760" y1="397.8" x2="756.8" y2="409"/>
				<line class="st3" x1="768.3" y1="404.9" x2="757.2" y2="409.3"/>
			</g>
			<g>
				<line class="st3" x1="776.4" y1="423.2" x2="765.9" y2="428.8"/>
				<line class="st3" x1="776.9" y1="434" x2="766" y2="429.3"/>
			</g>
			<g>
				<line class="st3" x1="771.8" y1="448.1" x2="760.2" y2="445.3"/>
				<line class="st3" x1="764.8" y1="456.4" x2="759.9" y2="445.7"/>
			</g>
			<g>
				<line class="st3" x1="750.8" y1="466" x2="743.8" y2="456.6"/>
				<line class="st3" x1="740" y1="467.9" x2="743.3" y2="456.7"/>
			</g>
			<g>
				<line class="st3" x1="719.5" y1="462.9" x2="722.2" y2="451.6"/>
				<line class="st3" x1="711" y1="456.2" x2="721.8" y2="451.3"/>
			</g>
			<g>
				<line class="st3" x1="699.6" y1="441.7" x2="709.6" y2="435.3"/>
				<line class="st3" x1="698.1" y1="431.1" x2="709.4" y2="434.8"/>
			</g>
			<line class="st3" x1="780.1" y1="427.2" x2="696.3" y2="436.3"/>
			<line class="st3" x1="765.8" y1="398.7" x2="712.7" y2="462.7"/>
		</g>
		<g>
			<polygon class="st1" points="700.4,529.4 683.9,516.6 671.4,533.3 669.8,513.3 648.3,517.2 662.5,501.8 644.6,490.6 666.3,488.8 
				662.4,469.1 679,481.9 691.4,465.2 693.1,485.1 714.5,481.3 700.3,496.7 718.2,507.9 696.5,509.7 			"/>
			<polygon class="st2" points="690,512.8 682.8,506.9 677.5,514.4 676.7,505.3 667.4,507 673.5,500.1 665.7,494.9 675.1,494.1 
				673.4,485.1 680.6,491 685.9,483.5 686.7,492.6 696,490.8 689.9,497.8 697.7,503 688.3,503.8 			"/>
			<line class="st3" x1="675.9" y1="457.1" x2="688.1" y2="538.6"/>
			<line class="st3" x1="645.6" y1="473.8" x2="714.1" y2="522"/>
			<g>
				<line class="st3" x1="644.8" y1="479.2" x2="656.5" y2="481.8"/>
				<line class="st3" x1="651.6" y1="470.8" x2="656.7" y2="481.3"/>
			</g>
			<g>
				<line class="st4" x1="671.3" y1="460.8" x2="677.6" y2="470.7"/>
				<line class="st4" x1="682" y1="459.5" x2="678.1" y2="470.6"/>
			</g>
			<g>
				<line class="st3" x1="702.7" y1="466" x2="699.5" y2="477.2"/>
				<line class="st3" x1="711" y1="473.1" x2="699.9" y2="477.5"/>
			</g>
			<g>
				<line class="st3" x1="719.1" y1="491.5" x2="708.6" y2="497"/>
				<line class="st3" x1="719.6" y1="502.2" x2="708.7" y2="497.5"/>
			</g>
			<g>
				<line class="st3" x1="714.5" y1="516.3" x2="702.9" y2="513.5"/>
				<line class="st3" x1="707.5" y1="524.6" x2="702.6" y2="513.9"/>
			</g>
			<g>
				<line class="st3" x1="693.5" y1="534.2" x2="686.5" y2="524.8"/>
				<line class="st3" x1="682.7" y1="536.2" x2="686" y2="524.9"/>
			</g>
			<g>
				<line class="st3" x1="662.3" y1="531.2" x2="665" y2="519.8"/>
				<line class="st3" x1="653.7" y1="524.4" x2="664.5" y2="519.5"/>
			</g>
			<g>
				<line class="st3" x1="642.3" y1="510" x2="652.3" y2="503.5"/>
				<line class="st3" x1="640.8" y1="499.3" x2="652.2" y2="503"/>
			</g>
			<line class="st3" x1="722.8" y1="495.4" x2="639" y2="504.5"/>
			<line class="st3" x1="708.5" y1="466.9" x2="655.4" y2="530.9"/>
		</g>
		<g>
			<polygon class="st1" points="627,603.3 610.4,590.5 598,607.2 596.3,587.2 574.9,591.1 589,575.6 571.1,564.5 592.8,562.6 
				589,542.9 605.5,555.7 617.9,539 619.6,559 641.1,555.1 626.9,570.6 644.8,581.7 623.1,583.6 			"/>
			<polygon class="st2" points="616.6,586.6 609.4,580.7 604,588.3 603.2,579.2 594,580.9 600.1,573.9 592.2,568.7 601.7,568 
				599.9,559 607.1,564.9 612.5,557.3 613.2,566.4 622.6,564.7 616.4,571.7 624.2,576.8 614.8,577.6 			"/>
			<line class="st3" x1="602.5" y1="531" x2="614.6" y2="612.5"/>
			<line class="st3" x1="572.1" y1="547.7" x2="640.6" y2="595.8"/>
			<g>
				<line class="st3" x1="571.3" y1="553.1" x2="583" y2="555.6"/>
				<line class="st3" x1="578.1" y1="544.6" x2="583.3" y2="555.2"/>
			</g>
			<g>
				<line class="st4" x1="597.8" y1="534.7" x2="604.1" y2="544.5"/>
				<line class="st4" x1="608.6" y1="533.4" x2="604.6" y2="544.4"/>
			</g>
			<g>
				<line class="st3" x1="629.3" y1="539.8" x2="626" y2="551.1"/>
				<line class="st3" x1="637.5" y1="546.9" x2="626.5" y2="551.3"/>
			</g>
			<g>
				<line class="st3" x1="645.6" y1="565.3" x2="635.1" y2="570.9"/>
				<line class="st3" x1="646.2" y1="576" x2="635.2" y2="571.4"/>
			</g>
			<g>
				<line class="st3" x1="641" y1="590.1" x2="629.4" y2="587.4"/>
				<line class="st3" x1="634" y1="598.4" x2="629.2" y2="587.8"/>
			</g>
			<g>
				<line class="st3" x1="620.1" y1="608.1" x2="613" y2="598.7"/>
				<line class="st3" x1="609.2" y1="610" x2="612.6" y2="598.8"/>
			</g>
			<g>
				<line class="st3" x1="588.8" y1="605" x2="591.5" y2="593.6"/>
				<line class="st3" x1="580.2" y1="598.3" x2="591.1" y2="593.4"/>
			</g>
			<g>
				<line class="st3" x1="568.9" y1="583.8" x2="578.8" y2="577.3"/>
				<line class="st3" x1="567.4" y1="573.2" x2="578.7" y2="576.9"/>
			</g>
			<line class="st3" x1="649.4" y1="569.3" x2="565.5" y2="578.4"/>
			<line class="st3" x1="635.1" y1="540.8" x2="582" y2="604.8"/>
		</g>
		<g>
			<polygon class="st1" points="511.7,603.3 495.1,590.5 482.7,607.2 481,587.2 459.6,591.1 473.7,575.6 455.8,564.5 477.6,562.6 
				473.7,542.9 490.2,555.7 502.6,539 504.3,559 525.8,555.1 511.6,570.6 529.5,581.7 507.7,583.6 			"/>
			<polygon class="st2" points="501.3,586.6 494.1,580.7 488.7,588.3 487.9,579.2 478.7,580.9 484.8,573.9 477,568.7 486.4,568 
				484.6,559 491.8,564.9 497.1,557.3 498,566.4 507.2,564.7 501.1,571.7 508.9,576.8 499.5,577.6 			"/>
			<line class="st3" x1="487.2" y1="531" x2="499.3" y2="612.5"/>
			<line class="st3" x1="456.8" y1="547.7" x2="525.3" y2="595.8"/>
			<g>
				<line class="st3" x1="456" y1="553.1" x2="467.7" y2="555.6"/>
				<line class="st3" x1="462.8" y1="544.6" x2="467.9" y2="555.2"/>
			</g>
			<g>
				<line class="st4" x1="482.5" y1="534.7" x2="488.8" y2="544.5"/>
				<line class="st4" x1="493.3" y1="533.4" x2="489.3" y2="544.4"/>
			</g>
			<g>
				<line class="st3" x1="514" y1="539.8" x2="510.8" y2="551.1"/>
				<line class="st3" x1="522.2" y1="546.9" x2="511.2" y2="551.3"/>
			</g>
			<g>
				<line class="st3" x1="530.3" y1="565.3" x2="519.8" y2="570.9"/>
				<line class="st3" x1="530.9" y1="576" x2="519.9" y2="571.4"/>
			</g>
			<g>
				<line class="st3" x1="525.7" y1="590.1" x2="514.1" y2="587.4"/>
				<line class="st3" x1="518.7" y1="598.4" x2="513.9" y2="587.8"/>
			</g>
			<g>
				<line class="st3" x1="504.7" y1="608.1" x2="497.7" y2="598.7"/>
				<line class="st3" x1="493.9" y1="610" x2="497.3" y2="598.8"/>
			</g>
			<g>
				<line class="st3" x1="473.5" y1="605" x2="476.2" y2="593.6"/>
				<line class="st3" x1="464.9" y1="598.3" x2="475.8" y2="593.4"/>
			</g>
			<g>
				<line class="st3" x1="453.6" y1="583.8" x2="463.5" y2="577.3"/>
				<line class="st3" x1="452" y1="573.2" x2="463.4" y2="576.9"/>
			</g>
			<line class="st3" x1="534.1" y1="569.3" x2="450.2" y2="578.4"/>
			<line class="st3" x1="519.8" y1="540.8" x2="466.7" y2="604.8"/>
		</g>
		<g>
			<polygon class="st1" points="757.7,603.3 741.1,590.5 728.7,607.2 727.1,587.2 705.6,591.1 719.8,575.6 701.9,564.5 723.6,562.6 
				719.7,542.9 736.3,555.7 748.7,539 750.4,559 771.8,555.1 757.6,570.6 775.5,581.7 753.8,583.6 			"/>
			<polygon class="st2" points="747.3,586.6 740.1,580.7 734.8,588.3 734,579.2 724.7,580.9 730.8,573.9 723,568.7 732.4,568 
				730.7,559 737.9,564.9 743.2,557.3 744,566.4 753.3,564.7 747.2,571.7 755,576.8 745.6,577.6 			"/>
			<line class="st3" x1="733.2" y1="531" x2="745.3" y2="612.5"/>
			<line class="st3" x1="702.9" y1="547.7" x2="771.4" y2="595.8"/>
			<g>
				<line class="st3" x1="702.1" y1="553.1" x2="713.7" y2="555.6"/>
				<line class="st3" x1="708.9" y1="544.6" x2="714" y2="555.2"/>
			</g>
			<g>
				<line class="st4" x1="728.6" y1="534.7" x2="734.9" y2="544.5"/>
				<line class="st4" x1="739.3" y1="533.4" x2="735.4" y2="544.4"/>
			</g>
			<g>
				<line class="st3" x1="760" y1="539.8" x2="756.8" y2="551.1"/>
				<line class="st3" x1="768.3" y1="546.9" x2="757.2" y2="551.3"/>
			</g>
			<g>
				<line class="st3" x1="776.4" y1="565.3" x2="765.9" y2="570.9"/>
				<line class="st3" x1="776.9" y1="576" x2="766" y2="571.4"/>
			</g>
			<g>
				<line class="st3" x1="771.8" y1="590.1" x2="760.2" y2="587.4"/>
				<line class="st3" x1="764.8" y1="598.4" x2="759.9" y2="587.8"/>
			</g>
			<g>
				<line class="st3" x1="750.8" y1="608.1" x2="743.8" y2="598.7"/>
				<line class="st3" x1="740" y1="610" x2="743.3" y2="598.8"/>
			</g>
			<g>
				<line class="st3" x1="719.5" y1="605" x2="722.2" y2="593.6"/>
				<line class="st3" x1="711" y1="598.3" x2="721.8" y2="593.4"/>
			</g>
			<g>
				<line class="st3" x1="699.6" y1="583.8" x2="709.6" y2="577.3"/>
				<line class="st3" x1="698.1" y1="573.2" x2="709.4" y2="576.9"/>
			</g>
			<line class="st3" x1="780.1" y1="569.3" x2="696.3" y2="578.4"/>
			<line class="st3" x1="765.8" y1="540.8" x2="712.7" y2="604.8"/>
		</g>
		<g>
			<polygon class="st1" points="493.1,318.8 476.5,306.1 464.1,322.7 462.4,302.7 441,306.7 455.2,291.2 437.3,280.1 459,278.2 
				455.1,258.5 471.7,271.3 484.1,254.6 485.7,274.6 507.2,270.7 493,286.2 510.9,297.3 489.2,299.2 			"/>
			<polygon class="st2" points="482.7,302.2 475.5,296.3 470.2,303.9 469.4,294.8 460.1,296.5 466.2,289.5 458.4,284.3 467.8,283.5 
				466.1,274.6 473.3,280.5 478.6,272.9 479.4,282 488.7,280.3 482.6,287.3 490.4,292.4 481,293.2 			"/>
			<line class="st3" x1="468.6" y1="246.6" x2="480.7" y2="328.1"/>
			<line class="st3" x1="438.3" y1="263.3" x2="506.8" y2="311.4"/>
			<g>
				<line class="st3" x1="437.5" y1="268.7" x2="449.1" y2="271.2"/>
				<line class="st3" x1="444.3" y1="260.2" x2="449.4" y2="270.8"/>
			</g>
			<g>
				<line class="st4" x1="464" y1="250.3" x2="470.3" y2="260.1"/>
				<line class="st4" x1="474.7" y1="249" x2="470.8" y2="260"/>
			</g>
			<g>
				<line class="st3" x1="495.4" y1="255.4" x2="492.2" y2="266.7"/>
				<line class="st3" x1="503.7" y1="262.5" x2="492.6" y2="267"/>
			</g>
			<g>
				<line class="st3" x1="511.8" y1="280.9" x2="501.3" y2="286.5"/>
				<line class="st3" x1="512.3" y1="291.7" x2="501.3" y2="287"/>
			</g>
			<g>
				<line class="st3" x1="507.2" y1="305.7" x2="495.6" y2="303"/>
				<line class="st3" x1="500.2" y1="314" x2="495.3" y2="303.4"/>
			</g>
			<g>
				<line class="st3" x1="486.2" y1="323.7" x2="479.2" y2="314.2"/>
				<line class="st3" x1="475.4" y1="325.6" x2="478.7" y2="314.4"/>
			</g>
			<g>
				<line class="st3" x1="454.9" y1="320.6" x2="457.6" y2="309.2"/>
				<line class="st3" x1="446.4" y1="313.8" x2="457.2" y2="309"/>
			</g>
			<g>
				<line class="st3" x1="435" y1="299.4" x2="445" y2="292.9"/>
				<line class="st3" x1="433.5" y1="288.7" x2="444.8" y2="292.5"/>
			</g>
			<line class="st3" x1="515.5" y1="284.9" x2="431.7" y2="293.9"/>
			<line class="st3" x1="501.2" y1="256.3" x2="448.1" y2="320.4"/>
		</g>
		<g>
			<polygon class="st1" points="223.4,603.3 206.9,590.5 194.5,607.2 192.8,587.2 171.3,591.1 185.5,575.6 167.6,564.5 189.3,562.6 
				185.5,542.9 202,555.7 214.4,539 216.1,559 237.5,555.1 223.4,570.6 241.3,581.7 219.5,583.6 			"/>
			<polygon class="st2" points="213.1,586.6 205.9,580.7 200.5,588.3 199.7,579.2 190.5,580.9 196.6,573.9 188.7,568.7 198.2,568 
				196.4,559 203.6,564.9 208.9,557.3 209.7,566.4 219,564.7 212.9,571.7 220.7,576.8 211.3,577.6 			"/>
			<line class="st3" x1="198.9" y1="531" x2="211" y2="612.5"/>
			<line class="st3" x1="168.6" y1="547.7" x2="237.1" y2="595.8"/>
			<g>
				<line class="st3" x1="167.8" y1="553.1" x2="179.5" y2="555.6"/>
				<line class="st3" x1="174.6" y1="544.6" x2="179.7" y2="555.2"/>
			</g>
			<g>
				<line class="st4" x1="194.3" y1="534.7" x2="200.6" y2="544.5"/>
				<line class="st4" x1="205.1" y1="533.4" x2="201.1" y2="544.4"/>
			</g>
			<g>
				<line class="st3" x1="225.8" y1="539.8" x2="222.5" y2="551.1"/>
				<line class="st3" x1="234" y1="546.9" x2="222.9" y2="551.3"/>
			</g>
			<g>
				<line class="st3" x1="242.1" y1="565.3" x2="231.6" y2="570.9"/>
				<line class="st3" x1="242.6" y1="576" x2="231.7" y2="571.4"/>
			</g>
			<g>
				<line class="st3" x1="237.5" y1="590.1" x2="225.9" y2="587.4"/>
				<line class="st3" x1="230.5" y1="598.4" x2="225.6" y2="587.8"/>
			</g>
			<g>
				<line class="st3" x1="216.5" y1="608.1" x2="209.5" y2="598.7"/>
				<line class="st3" x1="205.7" y1="610" x2="209" y2="598.8"/>
			</g>
			<g>
				<line class="st3" x1="185.3" y1="605" x2="188" y2="593.6"/>
				<line class="st3" x1="176.7" y1="598.3" x2="187.6" y2="593.4"/>
			</g>
			<g>
				<line class="st3" x1="165.3" y1="583.8" x2="175.3" y2="577.3"/>
				<line class="st3" x1="163.8" y1="573.2" x2="175.2" y2="576.9"/>
			</g>
			<line class="st3" x1="245.9" y1="569.3" x2="162" y2="578.4"/>
			<line class="st3" x1="231.5" y1="540.8" x2="178.5" y2="604.8"/>
		</g>
		<g>
			<polygon class="st1" points="87,603.3 70.5,590.5 58.1,607.2 56.4,587.2 35,591.1 49.1,575.6 31.2,564.5 53,562.6 49.1,542.9 
				65.6,555.7 78,539 79.7,559 101.1,555.1 87,570.6 104.9,581.7 83.1,583.6 			"/>
			<polygon class="st2" points="76.7,586.6 69.5,580.7 64.2,588.3 63.3,579.2 54.1,580.9 60.2,573.9 52.4,568.7 61.8,568 60,559 
				67.2,564.9 72.5,557.3 73.4,566.4 82.6,564.7 76.5,571.7 84.3,576.8 74.9,577.6 			"/>
			<line class="st3" x1="62.5" y1="531" x2="74.7" y2="612.5"/>
			<line class="st3" x1="32.2" y1="547.7" x2="100.7" y2="595.8"/>
			<g>
				<line class="st3" x1="31.4" y1="553.1" x2="43.1" y2="555.6"/>
				<line class="st3" x1="38.2" y1="544.6" x2="43.3" y2="555.2"/>
			</g>
			<g>
				<line class="st4" x1="57.9" y1="534.7" x2="64.2" y2="544.5"/>
				<line class="st4" x1="68.7" y1="533.4" x2="64.7" y2="544.4"/>
			</g>
			<g>
				<line class="st3" x1="89.4" y1="539.8" x2="86.1" y2="551.1"/>
				<line class="st3" x1="97.6" y1="546.9" x2="86.5" y2="551.3"/>
			</g>
			<g>
				<line class="st3" x1="105.7" y1="565.3" x2="95.2" y2="570.9"/>
				<line class="st3" x1="106.2" y1="576" x2="95.3" y2="571.4"/>
			</g>
			<g>
				<line class="st3" x1="101.1" y1="590.1" x2="89.5" y2="587.4"/>
				<line class="st3" x1="94.1" y1="598.4" x2="89.2" y2="587.8"/>
			</g>
			<g>
				<line class="st3" x1="80.1" y1="608.1" x2="73.1" y2="598.7"/>
				<line class="st3" x1="69.3" y1="610" x2="72.7" y2="598.8"/>
			</g>
			<g>
				<line class="st3" x1="48.9" y1="605" x2="51.6" y2="593.6"/>
				<line class="st3" x1="40.3" y1="598.3" x2="51.2" y2="593.4"/>
			</g>
			<g>
				<line class="st3" x1="29" y1="583.8" x2="38.9" y2="577.3"/>
				<line class="st3" x1="27.4" y1="573.2" x2="38.8" y2="576.9"/>
			</g>
			<line class="st3" x1="109.5" y1="569.3" x2="25.6" y2="578.4"/>
			<line class="st3" x1="95.2" y1="540.8" x2="42.1" y2="604.8"/>
		</g>
	</g>
	<rect x="9.6" y="339.7" class="st5" width="776.8" height="54.4"/>
	<rect x="534.5" y="236.1" class="st5" width="61" height="388.4"/>
	<g>
		<path class="st6" d="M545.5,373.2l-67.7-13.5c-17.4-3.5-24.5-24.5-12.7-37.7l44.5-50.1c11.5-13,32.8-8.9,38.7,7.4l23.2,63.6
			C577.7,359.6,563.1,376.6,545.5,373.2z"/>
		<path class="st6" d="M589.9,373.2l67.7-13.5c17.4-3.5,24.5-24.5,12.7-37.7l-44.5-50.1c-11.5-13-32.8-8.9-38.7,7.4l-23.2,63.6
			C557.7,359.6,572.3,376.6,589.9,373.2z"/>
		<path class="st7" d="M545.5,363.5l-67.7,13.5c-17.4,3.5-24.5,24.5-12.7,37.7l44.5,50.1c11.5,13,32.8,8.9,38.7-7.4l23.2-63.6
			C577.7,377,563.1,360,545.5,363.5z"/>
		<path class="st6" d="M589.9,363.5l67.7,13.5c17.4,3.5,24.5,24.5,12.7,37.7l-44.5,50.1c-11.5,13-32.8,8.9-38.7-7.4l-23.2-63.6
			C557.7,377,572.3,360,589.9,363.5z"/>
		<g>
			<g>
				<line class="st8" x1="554.4" y1="346.8" x2="541.1" y2="320.3"/>
				<g>
					<path class="st9" d="M557.8,344.9c-3.9-7.8-7.7-15.5-11.6-23.3c-0.6-1.1-1.1-2.2-1.6-3.3c-0.9-1.9-3.6-2.4-5.4-1.4
						c-1.9,1.1-2.3,3.5-1.4,5.4c3.9,7.8,7.7,15.5,11.6,23.3c0.6,1.1,1.1,2.2,1.6,3.3c0.9,1.9,3.6,2.4,5.4,1.4
						C558.3,349.1,558.7,346.8,557.8,344.9L557.8,344.9z"/>
				</g>
			</g>
			<g>
				<line class="st8" x1="549" y1="351" x2="521.7" y2="324.3"/>
				<g>
					<path class="st9" d="M551.8,348.2c-8-7.8-16-15.6-23.9-23.4c-1.1-1.1-2.2-2.2-3.4-3.3c-1.5-1.5-4.1-1.5-5.6,0
						c-1.5,1.5-1.5,4.1,0,5.6c8,7.8,16,15.6,23.9,23.4c1.1,1.1,2.2,2.2,3.4,3.3c1.5,1.5,4.1,1.5,5.6,0
						C553.3,352.3,553.3,349.7,551.8,348.2L551.8,348.2z"/>
				</g>
			</g>
			<g>
				<line class="st8" x1="545.6" y1="356.9" x2="517.3" y2="346.2"/>
				<g>
					<path class="st9" d="M546.7,353.2c-8.3-3.1-16.6-6.3-24.8-9.4c-1.2-0.5-2.3-0.9-3.5-1.3c-2-0.8-4.3,0.8-4.8,2.7
						c-0.6,2.2,0.8,4.1,2.7,4.8c8.3,3.1,16.6,6.3,24.8,9.4c1.2,0.5,2.3,0.9,3.5,1.3c2,0.8,4.3-0.8,4.8-2.7
						C550,355.8,548.7,353.9,546.7,353.2L546.7,353.2z"/>
				</g>
			</g>
		</g>
		<g>
			<g>
				<line class="st8" x1="578.2" y1="349.4" x2="591.5" y2="322.9"/>
				<g>
					<path class="st9" d="M581.6,351.4c3.9-7.8,7.7-15.5,11.6-23.3c0.6-1.1,1.1-2.2,1.6-3.3c0.9-1.9,0.5-4.3-1.4-5.4
						c-1.7-1-4.4-0.5-5.4,1.4c-3.9,7.8-7.7,15.5-11.6,23.3c-0.6,1.1-1.1,2.2-1.6,3.3c-0.9,1.9-0.5,4.3,1.4,5.4
						C578,353.9,580.7,353.3,581.6,351.4L581.6,351.4z"/>
				</g>
			</g>
			<g>
				<line class="st8" x1="583.6" y1="353.6" x2="610.9" y2="326.9"/>
				<g>
					<path class="st9" d="M586.3,356.3c8-7.8,16-15.6,23.9-23.4c1.1-1.1,2.2-2.2,3.4-3.3c1.5-1.5,1.5-4.1,0-5.6
						c-1.5-1.5-4-1.5-5.6,0c-8,7.8-16,15.6-23.9,23.4c-1.1,1.1-2.2,2.2-3.4,3.3c-1.5,1.5-1.5,4.1,0,5.6
						C582.3,357.9,584.8,357.8,586.3,356.3L586.3,356.3z"/>
				</g>
			</g>
			<g>
				<line class="st8" x1="587" y1="359.5" x2="615.3" y2="348.8"/>
				<g>
					<path class="st9" d="M588.1,363.3c8.3-3.1,16.6-6.3,24.8-9.4c1.2-0.5,2.3-0.9,3.5-1.3c2-0.8,3.4-2.7,2.7-4.8
						c-0.5-1.9-2.8-3.5-4.8-2.7c-8.3,3.1-16.6,6.3-24.8,9.4c-1.2,0.5-2.3,0.9-3.5,1.3c-2,0.8-3.4,2.7-2.7,4.8
						C583.7,362.5,586.1,364.1,588.1,363.3L588.1,363.3z"/>
				</g>
			</g>
		</g>
		<g>
			<g>
				<line class="st8" x1="554.4" y1="384.7" x2="541.1" y2="411.3"/>
				<g>
					<path class="st9" d="M551,382.8c-3.9,7.8-7.7,15.5-11.6,23.3c-0.6,1.1-1.1,2.2-1.6,3.3c-0.9,1.9-0.5,4.3,1.4,5.4
						c1.7,1,4.4,0.5,5.4-1.4c3.9-7.8,7.7-15.5,11.6-23.3c0.6-1.1,1.1-2.2,1.6-3.3c0.9-1.9,0.5-4.3-1.4-5.4
						C554.6,380.3,551.9,380.8,551,382.8L551,382.8z"/>
				</g>
			</g>
			<g>
				<line class="st8" x1="549" y1="380.6" x2="521.7" y2="407.3"/>
				<g>
					<path class="st9" d="M546.3,377.8c-8,7.8-16,15.6-23.9,23.4c-1.1,1.1-2.2,2.2-3.4,3.3c-1.5,1.5-1.5,4.1,0,5.6
						c1.5,1.5,4,1.5,5.6,0c8-7.8,16-15.6,23.9-23.4c1.1-1.1,2.2-2.2,3.4-3.3c1.5-1.5,1.5-4.1,0-5.6
						C550.3,376.3,547.8,376.4,546.3,377.8L546.3,377.8z"/>
				</g>
			</g>
			<g>
				<line class="st8" x1="545.6" y1="374.6" x2="517.3" y2="385.4"/>
				<g>
					<path class="st9" d="M544.6,370.9c-8.3,3.1-16.6,6.3-24.8,9.4c-1.2,0.5-2.3,0.9-3.5,1.3c-2,0.8-3.4,2.7-2.7,4.8
						c0.5,1.9,2.8,3.5,4.8,2.7c8.3-3.1,16.6-6.3,24.8-9.4c1.2-0.5,2.3-0.9,3.5-1.3c2-0.8,3.4-2.7,2.7-4.8
						C548.9,371.7,546.6,370.1,544.6,370.9L544.6,370.9z"/>
				</g>
			</g>
		</g>
		<g>
			<g>
				<line class="st8" x1="578.2" y1="382.1" x2="591.5" y2="408.7"/>
				<g>
					<path class="st9" d="M574.8,384.1c3.9,7.8,7.7,15.5,11.6,23.3c0.6,1.1,1.1,2.2,1.6,3.3c0.9,1.9,3.6,2.4,5.4,1.4
						c1.9-1.1,2.3-3.5,1.4-5.4c-3.9-7.8-7.7-15.5-11.6-23.3c-0.6-1.1-1.1-2.2-1.6-3.3c-0.9-1.9-3.6-2.4-5.4-1.4
						C574.3,379.9,573.9,382.2,574.8,384.1L574.8,384.1z"/>
				</g>
			</g>
			<g>
				<line class="st8" x1="583.6" y1="378" x2="610.9" y2="404.7"/>
				<g>
					<path class="st9" d="M580.8,380.8c8,7.8,16,15.6,23.9,23.4c1.1,1.1,2.2,2.2,3.4,3.3c1.5,1.5,4.1,1.5,5.6,0
						c1.5-1.5,1.5-4.1,0-5.6c-8-7.8-16-15.6-23.9-23.4c-1.1-1.1-2.2-2.2-3.4-3.3c-1.5-1.5-4.1-1.5-5.6,0
						C579.3,376.7,579.3,379.3,580.8,380.8L580.8,380.8z"/>
				</g>
			</g>
			<g>
				<line class="st8" x1="587" y1="372.1" x2="615.3" y2="382.8"/>
				<g>
					<path class="st9" d="M586,375.8c8.3,3.1,16.6,6.3,24.8,9.4c1.2,0.5,2.3,0.9,3.5,1.3c2,0.8,4.3-0.8,4.8-2.7
						c0.6-2.2-0.8-4.1-2.7-4.8c-8.3-3.1-16.6-6.3-24.8-9.4c-1.2-0.5-2.3-0.9-3.5-1.3c-2-0.8-4.3,0.8-4.8,2.7
						C582.6,373.2,584,375.1,586,375.8L586,375.8z"/>
				</g>
			</g>
		</g>
		<ellipse class="st5" cx="566.3" cy="365.6" rx="23.9" ry="23.3"/>
	</g>
</g>
</svg>
