<?xml version="1.0" encoding="utf-8"?>
<!-- Generator: Adobe Illustrator 23.1.0, SVG Export Plug-In . SVG Version: 6.00 Build 0)  -->
<svg version="1.1" id="Layer_1" xmlns="http://www.w3.org/2000/svg" xmlns:xlink="http://www.w3.org/1999/xlink" x="0px" y="0px"
	 viewBox="0 0 792 792" style="enable-background:new 0 0 792 792;" xml:space="preserve">
<style type="text/css">
	.st0{fill:#031709;}
	.st1{fill:#97B39E;}
	.st2{fill:#094B1A;}
	.st3{fill:#396E46;}
	.st4{fill:#7D3834;}
</style>
<g>
	<rect x="38.5" y="291" class="st0" width="729.6" height="381"/>
	<ellipse class="st1" cx="134.3" cy="584.6" rx="62.7" ry="66.4"/>
	<ellipse class="st2" cx="424.8" cy="577.6" rx="62.7" ry="66.4"/>
	<ellipse class="st1" cx="424.8" cy="399.3" rx="62.7" ry="66.4"/>
	<ellipse class="st3" cx="286.1" cy="483.2" rx="62.7" ry="66.4"/>
	<ellipse class="st1" cx="685.6" cy="588.1" rx="62.7" ry="66.4"/>
	<ellipse class="st3" cx="557.4" cy="492.2" rx="62.7" ry="66.4"/>
	<ellipse class="st2" cx="137.6" cy="406.3" rx="62.7" ry="66.4"/>
	<ellipse class="st2" cx="682.3" cy="399.3" rx="62.7" ry="66.4"/>
	<path class="st3" d="M264.6,214.1h138.9h138.1c144.8-3.1,142.3-146.3,0-112.1l-134.7,49.8c0,0-143.5-49.9-145.6-50.8
		C142.6,52.2,119.7,211,264.6,214.1z"/>
	<path class="st2" d="M296,193.1l114.9,9.2l111.9-9c117.2-11.1,109.6-88-4.8-42.3l-106.2,34.6c0,0-124-45.9-125.7-46.2
		C186.8,120.9,180,175.9,296,193.1z"/>
	<ellipse class="st2" cx="409.9" cy="177.4" rx="61.1" ry="54.2"/>
	<rect x="28.6" y="210.6" class="st4" width="749.4" height="132.8"/>
</g>
</svg>
