<?xml version="1.0" encoding="utf-8"?>
<!-- Generator: Adobe Illustrator 23.1.0, SVG Export Plug-In . SVG Version: 6.00 Build 0)  -->
<svg version="1.1" id="Layer_1" xmlns="http://www.w3.org/2000/svg" xmlns:xlink="http://www.w3.org/1999/xlink" x="0px" y="0px"
	 viewBox="0 0 792 792" style="enable-background:new 0 0 792 792;" xml:space="preserve">
<style type="text/css">
	.st0{fill:#094B1A;}
	.st1{fill:#E9EBEA;}
	.st2{fill:none;stroke:#7D3834;stroke-width:2.5643;stroke-miterlimit:10;}
	.st3{fill:none;stroke:#7D3834;stroke-width:0.8899;stroke-miterlimit:10;}
</style>
<g>
	
		<rect x="335.28" y="332.79" transform="matrix(0.0101 -0.9999 0.9999 0.0101 25.64 790.6033)" class="st0" width="153.68" height="99.13"/>
	<g>
		<polygon class="st1" points="460.92,411.72 461.05,399.51 412.27,459.64 421.97,459.74 		"/>
		<polygon class="st1" points="460.42,460.02 460.56,446.47 449.57,460.01 460.34,460.12 		"/>
		<polygon class="st1" points="460.67,436.16 460.82,422.04 430.16,459.82 441.38,459.93 		"/>
		<polygon class="st1" points="461.84,324.66 361.41,448.45 361.29,459.13 364.03,459.15 461.69,338.78 		"/>
		<polygon class="st1" points="461.43,363.16 461.58,349.1 372.22,459.24 383.39,459.35 		"/>
		<polygon class="st1" points="461.16,389.19 461.32,373.48 391.59,459.43 404.07,459.56 		"/>
		<polygon class="st1" points="447.42,306.31 433.87,306.17 361.97,394.8 361.79,411.85 		"/>
		<polygon class="st1" points="425.68,306.09 412.59,305.95 362.25,368 362.08,384.48 		"/>
		<polygon class="st1" points="382.45,305.65 366.78,305.49 362.85,310.34 362.65,330.06 		"/>
		<polygon class="st1" points="361.68,422.16 361.51,438.13 461.94,314.34 462.03,306.45 455.61,306.39 		"/>
		<polygon class="st1" points="404.39,305.87 390.64,305.73 362.54,340.38 362.36,357.68 		"/>
	</g>
	
		<rect x="388.99" y="255.84" transform="matrix(0.0101 -0.9999 0.9999 0.0101 97.0403 717.8494)" class="st0" width="44.16" height="108.14"/>
	<g>
		<g>
			<path class="st2" d="M412.36,287.4c-0.24-48.17,40.08-44.75,39.89-27.02S412.36,287.4,412.36,287.4z"/>
			<path class="st2" d="M412.2,287.43c47.54,19.84,60.61-15.55,42.99-22.62S412.2,287.43,412.2,287.43z"/>
		</g>
		<g>
			<path class="st2" d="M411.04,287.39c1.25-48.15-39.14-45.55-39.32-27.82S411.04,287.39,411.04,287.39z"/>
			<path class="st2" d="M411.2,287.42c-47.95,18.88-60.27-16.76-42.51-23.48C386.46,257.23,411.2,287.42,411.2,287.42z"/>
		</g>
	</g>
	<path class="st3" d="M465.77,249.83"/>
</g>
</svg>
