<?xml version="1.0" encoding="utf-8"?>
<!-- Generator: Adobe Illustrator 23.1.0, SVG Export Plug-In . SVG Version: 6.00 Build 0)  -->
<svg version="1.1" id="Layer_1" xmlns="http://www.w3.org/2000/svg" xmlns:xlink="http://www.w3.org/1999/xlink" x="0px" y="0px"
	 viewBox="0 0 792 792" style="enable-background:new 0 0 792 792;" xml:space="preserve">
<style type="text/css">
	.st0{fill:#7D3834;}
	.st1{fill:#094B1A;}
	.st2{fill:#71977B;}
</style>
<g>
	<g>
		<path class="st0" d="M219,40.7l-64.9,121.4l222.5,4.3l-97.1-94C279.6,72.4,228.4,28.6,219,40.7z"/>
		<path class="st0" d="M554.5,40.7l64.9,121.4l-222.5,4.3l97.1-94C493.9,72.4,545.1,28.6,554.5,40.7z"/>
		<ellipse class="st0" cx="386.9" cy="150.4" rx="30.3" ry="27.4"/>
	</g>
	<rect x="95.6" y="369.7" class="st0" width="602.9" height="43.1"/>
	<rect x="95.6" y="628.1" class="st0" width="602.9" height="43.1"/>
	<rect x="95.6" y="542" class="st0" width="602.9" height="43.1"/>
	<rect x="95.6" y="455.8" class="st0" width="602.9" height="43.1"/>
	<rect x="95.6" y="710.3" class="st0" width="602.9" height="43.1"/>
	<rect x="95.6" y="671.1" class="st1" width="602.9" height="43.1"/>
	<rect x="95.6" y="585" class="st2" width="602.9" height="43.1"/>
	<rect x="95.6" y="498.8" class="st1" width="602.9" height="43.1"/>
	<rect x="95.6" y="412.7" class="st2" width="602.9" height="43.1"/>
	<rect x="69.3" y="162.1" class="st1" width="651.4" height="207.5"/>
</g>
</svg>
