<?xml version="1.0" encoding="utf-8"?>
<!-- Generator: Adobe Illustrator 23.1.0, SVG Export Plug-In . SVG Version: 6.00 Build 0)  -->
<svg version="1.1" id="Layer_1" xmlns="http://www.w3.org/2000/svg" xmlns:xlink="http://www.w3.org/1999/xlink" x="0px" y="0px"
	 viewBox="0 0 792 792" style="enable-background:new 0 0 792 792;" xml:space="preserve">
<style type="text/css">
	.st0{fill:#689173;}
	.st1{fill:none;stroke:#E9EBEA;stroke-width:0.6905;stroke-miterlimit:10;}
	.st2{fill:none;stroke:#E9EBEA;stroke-width:0.3069;stroke-miterlimit:10;}
	.st3{fill:none;stroke:#E9EBEA;stroke-width:0.7539;stroke-miterlimit:10;}
	.st4{fill:none;stroke:#E9EBEA;stroke-width:0.7477;stroke-miterlimit:10;}
	.st5{fill:#8D514E;}
	.st6{fill:#7D3834;}
	.st7{fill:#7A3636;}
	.st8{fill:#5E2A27;}
	.st9{fill:#5F2C29;}
</style>
<g>
	<g>
		<rect x="295.87" y="365.18" class="st0" width="222" height="111"/>
		<g>
			<polygon class="st1" points="356.99,388.82 352.26,385.17 348.71,389.93 348.23,384.22 342.1,385.34 346.16,380.92 
				341.04,377.74 347.25,377.2 346.14,371.58 350.87,375.23 354.41,370.47 354.89,376.18 361.02,375.06 356.97,379.48 
				362.09,382.66 355.88,383.2 			"/>
			<polygon class="st2" points="354.03,384.06 351.97,382.38 350.44,384.54 350.22,381.94 347.57,382.43 349.31,380.43 
				347.08,378.96 349.77,378.73 349.27,376.17 351.33,377.85 352.85,375.69 353.08,378.29 355.73,377.8 353.99,379.8 356.22,381.27 
				353.53,381.49 			"/>
			<line class="st3" x1="349.99" y1="368.16" x2="353.45" y2="391.46"/>
			<line class="st3" x1="341.33" y1="372.94" x2="360.9" y2="386.69"/>
			<g>
				<line class="st3" x1="341.09" y1="374.48" x2="344.43" y2="375.21"/>
				<line class="st3" x1="343.04" y1="372.07" x2="344.5" y2="375.08"/>
			</g>
			<g>
				<line class="st4" x1="348.67" y1="369.22" x2="350.47" y2="372.03"/>
				<line class="st4" x1="351.74" y1="368.86" x2="350.61" y2="372"/>
			</g>
			<g>
				<line class="st3" x1="357.66" y1="370.7" x2="356.73" y2="373.91"/>
				<line class="st3" x1="360.02" y1="372.73" x2="356.85" y2="373.99"/>
			</g>
			<g>
				<line class="st3" x1="362.33" y1="377.98" x2="359.33" y2="379.57"/>
				<line class="st3" x1="362.48" y1="381.05" x2="359.35" y2="379.71"/>
			</g>
			<g>
				<line class="st3" x1="361.02" y1="385.07" x2="357.7" y2="384.28"/>
				<line class="st3" x1="359.02" y1="387.44" x2="357.62" y2="384.4"/>
			</g>
			<g>
				<line class="st3" x1="355.02" y1="390.2" x2="353.02" y2="387.5"/>
				<line class="st3" x1="351.93" y1="390.75" x2="352.88" y2="387.54"/>
			</g>
			<g>
				<line class="st3" x1="346.09" y1="389.32" x2="346.86" y2="386.07"/>
				<line class="st3" x1="343.64" y1="387.39" x2="346.74" y2="386"/>
			</g>
			<g>
				<line class="st3" x1="340.39" y1="383.26" x2="343.24" y2="381.42"/>
				<line class="st3" x1="339.96" y1="380.22" x2="343.2" y2="381.28"/>
			</g>
			<line class="st3" x1="363.4" y1="379.12" x2="339.44" y2="381.7"/>
			<line class="st3" x1="359.31" y1="370.96" x2="344.14" y2="389.26"/>
		</g>
		<g>
			<polygon class="st1" points="318.01,388.82 313.28,385.17 309.73,389.93 309.25,384.22 303.13,385.34 307.18,380.92 
				302.06,377.74 308.27,377.2 307.16,371.58 311.89,375.23 315.44,370.47 315.92,376.18 322.04,375.06 317.99,379.48 
				323.11,382.66 316.9,383.2 			"/>
			<polygon class="st2" points="315.05,384.06 312.99,382.38 311.47,384.54 311.24,381.94 308.59,382.43 310.33,380.43 
				308.1,378.96 310.79,378.73 310.29,376.17 312.35,377.85 313.87,375.69 314.1,378.29 316.75,377.8 315.01,379.8 317.24,381.27 
				314.55,381.49 			"/>
			<line class="st3" x1="311.01" y1="368.16" x2="314.48" y2="391.46"/>
			<line class="st3" x1="302.35" y1="372.94" x2="321.92" y2="386.69"/>
			<g>
				<line class="st3" x1="302.12" y1="374.48" x2="305.45" y2="375.21"/>
				<line class="st3" x1="304.06" y1="372.07" x2="305.52" y2="375.08"/>
			</g>
			<g>
				<line class="st4" x1="309.69" y1="369.22" x2="311.49" y2="372.03"/>
				<line class="st4" x1="312.76" y1="368.86" x2="311.63" y2="372"/>
			</g>
			<g>
				<line class="st3" x1="318.68" y1="370.7" x2="317.75" y2="373.91"/>
				<line class="st3" x1="321.04" y1="372.73" x2="317.87" y2="373.99"/>
			</g>
			<g>
				<line class="st3" x1="323.35" y1="377.98" x2="320.35" y2="379.57"/>
				<line class="st3" x1="323.5" y1="381.05" x2="320.37" y2="379.71"/>
			</g>
			<g>
				<line class="st3" x1="322.04" y1="385.07" x2="318.72" y2="384.28"/>
				<line class="st3" x1="320.04" y1="387.44" x2="318.64" y2="384.4"/>
			</g>
			<g>
				<line class="st3" x1="316.04" y1="390.2" x2="314.04" y2="387.5"/>
				<line class="st3" x1="312.95" y1="390.75" x2="313.9" y2="387.54"/>
			</g>
			<g>
				<line class="st3" x1="307.11" y1="389.32" x2="307.88" y2="386.07"/>
				<line class="st3" x1="304.66" y1="387.39" x2="307.76" y2="386"/>
			</g>
			<g>
				<line class="st3" x1="301.41" y1="383.26" x2="304.26" y2="381.42"/>
				<line class="st3" x1="300.98" y1="380.22" x2="304.22" y2="381.28"/>
			</g>
			<line class="st3" x1="324.42" y1="379.12" x2="300.46" y2="381.7"/>
			<line class="st3" x1="320.33" y1="370.96" x2="305.16" y2="389.26"/>
		</g>
		<g>
			<polygon class="st1" points="397.27,388.82 392.54,385.17 388.99,389.93 388.51,384.22 382.38,385.34 386.44,380.92 
				381.32,377.74 387.53,377.2 386.42,371.58 391.15,375.23 394.7,370.47 395.18,376.18 401.3,375.06 397.25,379.48 402.37,382.66 
				396.16,383.2 			"/>
			<polygon class="st2" points="394.31,384.06 392.25,382.38 390.72,384.54 390.5,381.94 387.85,382.43 389.59,380.43 
				387.36,378.96 390.05,378.73 389.55,376.17 391.61,377.85 393.13,375.69 393.36,378.29 396.01,377.8 394.27,379.8 396.5,381.27 
				393.81,381.49 			"/>
			<line class="st3" x1="390.27" y1="368.16" x2="393.74" y2="391.46"/>
			<line class="st3" x1="381.61" y1="372.94" x2="401.18" y2="386.69"/>
			<g>
				<line class="st3" x1="381.37" y1="374.48" x2="384.71" y2="375.21"/>
				<line class="st3" x1="383.32" y1="372.07" x2="384.78" y2="375.08"/>
			</g>
			<g>
				<line class="st4" x1="388.95" y1="369.22" x2="390.75" y2="372.03"/>
				<line class="st4" x1="392.02" y1="368.86" x2="390.89" y2="372"/>
			</g>
			<g>
				<line class="st3" x1="397.94" y1="370.7" x2="397.01" y2="373.91"/>
				<line class="st3" x1="400.3" y1="372.73" x2="397.13" y2="373.99"/>
			</g>
			<g>
				<line class="st3" x1="402.61" y1="377.98" x2="399.61" y2="379.57"/>
				<line class="st3" x1="402.76" y1="381.05" x2="399.63" y2="379.71"/>
			</g>
			<g>
				<line class="st3" x1="401.3" y1="385.07" x2="397.98" y2="384.28"/>
				<line class="st3" x1="399.3" y1="387.44" x2="397.9" y2="384.4"/>
			</g>
			<g>
				<line class="st3" x1="395.3" y1="390.2" x2="393.3" y2="387.5"/>
				<line class="st3" x1="392.21" y1="390.75" x2="393.16" y2="387.54"/>
			</g>
			<g>
				<line class="st3" x1="386.37" y1="389.32" x2="387.14" y2="386.07"/>
				<line class="st3" x1="383.92" y1="387.39" x2="387.02" y2="386"/>
			</g>
			<g>
				<line class="st3" x1="380.67" y1="383.26" x2="383.52" y2="381.42"/>
				<line class="st3" x1="380.24" y1="380.22" x2="383.48" y2="381.28"/>
			</g>
			<line class="st3" x1="403.68" y1="379.12" x2="379.72" y2="381.7"/>
			<line class="st3" x1="399.59" y1="370.96" x2="384.42" y2="389.26"/>
		</g>
		<g>
			<polygon class="st1" points="472.32,388.82 467.59,385.17 464.04,389.93 463.56,384.22 457.43,385.34 461.48,380.92 
				456.36,377.74 462.57,377.2 461.46,371.58 466.19,375.23 469.74,370.47 470.22,376.18 476.35,375.06 472.3,379.48 477.42,382.66 
				471.21,383.2 			"/>
			<polygon class="st2" points="469.35,384.06 467.29,382.38 465.77,384.54 465.54,381.94 462.89,382.43 464.63,380.43 
				462.4,378.96 465.09,378.73 464.59,376.17 466.65,377.85 468.18,375.69 468.4,378.29 471.06,377.8 469.31,379.8 471.54,381.27 
				468.85,381.49 			"/>
			<line class="st3" x1="465.32" y1="368.16" x2="468.78" y2="391.46"/>
			<line class="st3" x1="456.65" y1="372.94" x2="476.22" y2="386.69"/>
			<g>
				<line class="st3" x1="456.42" y1="374.48" x2="459.75" y2="375.21"/>
				<line class="st3" x1="458.36" y1="372.07" x2="459.83" y2="375.08"/>
			</g>
			<g>
				<line class="st4" x1="463.99" y1="369.22" x2="465.79" y2="372.03"/>
				<line class="st4" x1="467.07" y1="368.86" x2="465.93" y2="372"/>
			</g>
			<g>
				<line class="st3" x1="472.98" y1="370.7" x2="472.06" y2="373.91"/>
				<line class="st3" x1="475.34" y1="372.73" x2="472.18" y2="373.99"/>
			</g>
			<g>
				<line class="st3" x1="477.65" y1="377.98" x2="474.65" y2="379.57"/>
				<line class="st3" x1="477.81" y1="381.05" x2="474.68" y2="379.71"/>
			</g>
			<g>
				<line class="st3" x1="476.34" y1="385.07" x2="473.02" y2="384.28"/>
				<line class="st3" x1="474.34" y1="387.44" x2="472.95" y2="384.4"/>
			</g>
			<g>
				<line class="st3" x1="470.35" y1="390.2" x2="468.34" y2="387.5"/>
				<line class="st3" x1="467.25" y1="390.75" x2="468.21" y2="387.54"/>
			</g>
			<g>
				<line class="st3" x1="461.41" y1="389.32" x2="462.19" y2="386.07"/>
				<line class="st3" x1="458.96" y1="387.39" x2="462.06" y2="386"/>
			</g>
			<g>
				<line class="st3" x1="455.72" y1="383.26" x2="458.56" y2="381.42"/>
				<line class="st3" x1="455.29" y1="380.22" x2="458.52" y2="381.28"/>
			</g>
			<line class="st3" x1="478.72" y1="379.12" x2="454.76" y2="381.7"/>
			<line class="st3" x1="474.64" y1="370.96" x2="459.46" y2="389.26"/>
		</g>
		<g>
			<polygon class="st1" points="452.78,409.67 448.05,406.02 444.5,410.78 444.02,405.07 437.89,406.19 441.94,401.77 
				436.82,398.59 443.03,398.05 441.92,392.43 446.65,396.08 450.2,391.32 450.68,397.03 456.81,395.91 452.76,400.33 
				457.88,403.51 451.67,404.05 			"/>
			<polygon class="st2" points="449.81,404.91 447.75,403.23 446.23,405.39 446,402.79 443.35,403.28 445.09,401.28 442.86,399.81 
				445.55,399.58 445.05,397.02 447.11,398.7 448.64,396.54 448.86,399.14 451.51,398.65 449.77,400.65 452,402.12 449.31,402.34 
							"/>
			<line class="st3" x1="445.78" y1="389.01" x2="449.24" y2="412.31"/>
			<line class="st3" x1="437.11" y1="393.79" x2="456.68" y2="407.54"/>
			<g>
				<line class="st3" x1="436.88" y1="395.33" x2="440.21" y2="396.06"/>
				<line class="st3" x1="438.82" y1="392.92" x2="440.29" y2="395.93"/>
			</g>
			<g>
				<line class="st4" x1="444.45" y1="390.07" x2="446.25" y2="392.88"/>
				<line class="st4" x1="447.52" y1="389.71" x2="446.39" y2="392.85"/>
			</g>
			<g>
				<line class="st3" x1="453.44" y1="391.55" x2="452.52" y2="394.76"/>
				<line class="st3" x1="455.8" y1="393.58" x2="452.64" y2="394.84"/>
			</g>
			<g>
				<line class="st3" x1="458.11" y1="398.83" x2="455.11" y2="400.42"/>
				<line class="st3" x1="458.27" y1="401.9" x2="455.14" y2="400.56"/>
			</g>
			<g>
				<line class="st3" x1="456.8" y1="405.92" x2="453.48" y2="405.13"/>
				<line class="st3" x1="454.8" y1="408.29" x2="453.41" y2="405.25"/>
			</g>
			<g>
				<line class="st3" x1="450.81" y1="411.05" x2="448.8" y2="408.35"/>
				<line class="st3" x1="447.71" y1="411.6" x2="448.67" y2="408.39"/>
			</g>
			<g>
				<line class="st3" x1="441.87" y1="410.17" x2="442.64" y2="406.92"/>
				<line class="st3" x1="439.42" y1="408.25" x2="442.52" y2="406.85"/>
			</g>
			<g>
				<line class="st3" x1="436.18" y1="404.11" x2="439.02" y2="402.27"/>
				<line class="st3" x1="435.74" y1="401.07" x2="438.98" y2="402.13"/>
			</g>
			<line class="st3" x1="459.18" y1="399.97" x2="435.22" y2="402.55"/>
			<line class="st3" x1="455.1" y1="391.81" x2="439.92" y2="410.11"/>
		</g>
		<g>
			<polygon class="st1" points="509.69,388.82 504.95,385.17 501.41,389.93 500.93,384.22 494.8,385.34 498.85,380.92 
				493.73,377.74 499.94,377.2 498.83,371.58 503.56,375.23 507.11,370.47 507.59,376.18 513.72,375.06 509.67,379.48 
				514.78,382.66 508.57,383.2 			"/>
			<polygon class="st2" points="506.72,384.06 504.66,382.38 503.14,384.54 502.91,381.94 500.26,382.43 502,380.43 499.77,378.96 
				502.46,378.73 501.96,376.17 504.02,377.85 505.54,375.69 505.77,378.29 508.42,377.8 506.68,379.8 508.91,381.27 506.22,381.49 
							"/>
			<line class="st3" x1="502.69" y1="368.16" x2="506.15" y2="391.46"/>
			<line class="st3" x1="494.02" y1="372.94" x2="513.59" y2="386.69"/>
			<g>
				<line class="st3" x1="493.79" y1="374.48" x2="497.12" y2="375.21"/>
				<line class="st3" x1="495.73" y1="372.07" x2="497.19" y2="375.08"/>
			</g>
			<g>
				<line class="st4" x1="501.36" y1="369.22" x2="503.16" y2="372.03"/>
				<line class="st4" x1="504.43" y1="368.86" x2="503.3" y2="372"/>
			</g>
			<g>
				<line class="st3" x1="510.35" y1="370.7" x2="509.43" y2="373.91"/>
				<line class="st3" x1="512.71" y1="372.73" x2="509.55" y2="373.99"/>
			</g>
			<g>
				<line class="st3" x1="515.02" y1="377.98" x2="512.02" y2="379.57"/>
				<line class="st3" x1="515.18" y1="381.05" x2="512.05" y2="379.71"/>
			</g>
			<g>
				<line class="st3" x1="513.71" y1="385.07" x2="510.39" y2="384.28"/>
				<line class="st3" x1="511.71" y1="387.44" x2="510.32" y2="384.4"/>
			</g>
			<g>
				<line class="st3" x1="507.71" y1="390.2" x2="505.71" y2="387.5"/>
				<line class="st3" x1="504.62" y1="390.75" x2="505.58" y2="387.54"/>
			</g>
			<g>
				<line class="st3" x1="498.78" y1="389.32" x2="499.55" y2="386.07"/>
				<line class="st3" x1="496.33" y1="387.39" x2="499.43" y2="386"/>
			</g>
			<g>
				<line class="st3" x1="493.09" y1="383.26" x2="495.93" y2="381.42"/>
				<line class="st3" x1="492.65" y1="380.22" x2="495.89" y2="381.28"/>
			</g>
			<line class="st3" x1="516.09" y1="379.12" x2="492.13" y2="381.7"/>
			<line class="st3" x1="512.01" y1="370.96" x2="496.83" y2="389.26"/>
		</g>
		<g>
			<polygon class="st1" points="413.72,409.67 408.99,406.02 405.45,410.78 404.96,405.07 398.84,406.19 402.89,401.77 
				397.77,398.59 403.98,398.05 402.87,392.43 407.6,396.08 411.15,391.32 411.63,397.03 417.76,395.91 413.7,400.33 418.82,403.51 
				412.61,404.05 			"/>
			<polygon class="st2" points="410.76,404.91 408.7,403.23 407.18,405.39 406.95,402.79 404.3,403.28 406.04,401.28 403.81,399.81 
				406.5,399.58 406,397.02 408.06,398.7 409.58,396.54 409.81,399.14 412.46,398.65 410.72,400.65 412.95,402.12 410.26,402.34 			
				"/>
			<line class="st3" x1="406.73" y1="389.01" x2="410.19" y2="412.31"/>
			<line class="st3" x1="398.06" y1="393.79" x2="417.63" y2="407.54"/>
			<g>
				<line class="st3" x1="397.83" y1="395.33" x2="401.16" y2="396.06"/>
				<line class="st3" x1="399.77" y1="392.92" x2="401.23" y2="395.93"/>
			</g>
			<g>
				<line class="st4" x1="405.4" y1="390.07" x2="407.2" y2="392.88"/>
				<line class="st4" x1="408.47" y1="389.71" x2="407.34" y2="392.85"/>
			</g>
			<g>
				<line class="st3" x1="414.39" y1="391.55" x2="413.47" y2="394.76"/>
				<line class="st3" x1="416.75" y1="393.58" x2="413.59" y2="394.84"/>
			</g>
			<g>
				<line class="st3" x1="419.06" y1="398.83" x2="416.06" y2="400.42"/>
				<line class="st3" x1="419.21" y1="401.9" x2="416.09" y2="400.56"/>
			</g>
			<g>
				<line class="st3" x1="417.75" y1="405.92" x2="414.43" y2="405.13"/>
				<line class="st3" x1="415.75" y1="408.29" x2="414.36" y2="405.25"/>
			</g>
			<g>
				<line class="st3" x1="411.75" y1="411.05" x2="409.75" y2="408.35"/>
				<line class="st3" x1="408.66" y1="411.6" x2="409.61" y2="408.39"/>
			</g>
			<g>
				<line class="st3" x1="402.82" y1="410.17" x2="403.59" y2="406.92"/>
				<line class="st3" x1="400.37" y1="408.25" x2="403.47" y2="406.85"/>
			</g>
			<g>
				<line class="st3" x1="397.13" y1="404.11" x2="399.97" y2="402.27"/>
				<line class="st3" x1="396.69" y1="401.07" x2="399.93" y2="402.13"/>
			</g>
			<line class="st3" x1="420.13" y1="399.97" x2="396.17" y2="402.55"/>
			<line class="st3" x1="416.04" y1="391.81" x2="400.87" y2="410.11"/>
		</g>
		<g>
			<polygon class="st1" points="336.74,409.67 332.01,406.02 328.46,410.78 327.98,405.07 321.85,406.19 325.91,401.77 
				320.79,398.59 327,398.05 325.89,392.43 330.62,396.08 334.17,391.32 334.65,397.03 340.77,395.91 336.72,400.33 341.84,403.51 
				335.63,404.05 			"/>
			<polygon class="st2" points="333.78,404.91 331.72,403.23 330.19,405.39 329.97,402.79 327.32,403.28 329.06,401.28 
				326.83,399.81 329.52,399.58 329.02,397.02 331.08,398.7 332.6,396.54 332.83,399.14 335.48,398.65 333.74,400.65 335.97,402.12 
				333.28,402.34 			"/>
			<line class="st3" x1="329.74" y1="389.01" x2="333.21" y2="412.31"/>
			<line class="st3" x1="321.08" y1="393.79" x2="340.65" y2="407.54"/>
			<g>
				<line class="st3" x1="320.84" y1="395.33" x2="324.18" y2="396.06"/>
				<line class="st3" x1="322.79" y1="392.92" x2="324.25" y2="395.93"/>
			</g>
			<g>
				<line class="st4" x1="328.42" y1="390.07" x2="330.22" y2="392.88"/>
				<line class="st4" x1="331.49" y1="389.71" x2="330.36" y2="392.85"/>
			</g>
			<g>
				<line class="st3" x1="337.41" y1="391.55" x2="336.48" y2="394.76"/>
				<line class="st3" x1="339.77" y1="393.58" x2="336.6" y2="394.84"/>
			</g>
			<g>
				<line class="st3" x1="342.08" y1="398.83" x2="339.08" y2="400.42"/>
				<line class="st3" x1="342.23" y1="401.9" x2="339.1" y2="400.56"/>
			</g>
			<g>
				<line class="st3" x1="340.77" y1="405.92" x2="337.45" y2="405.13"/>
				<line class="st3" x1="338.77" y1="408.29" x2="337.37" y2="405.25"/>
			</g>
			<g>
				<line class="st3" x1="334.77" y1="411.05" x2="332.77" y2="408.35"/>
				<line class="st3" x1="331.68" y1="411.6" x2="332.63" y2="408.39"/>
			</g>
			<g>
				<line class="st3" x1="325.84" y1="410.17" x2="326.61" y2="406.92"/>
				<line class="st3" x1="323.39" y1="408.25" x2="326.49" y2="406.85"/>
			</g>
			<g>
				<line class="st3" x1="320.14" y1="404.11" x2="322.99" y2="402.27"/>
				<line class="st3" x1="319.71" y1="401.07" x2="322.95" y2="402.13"/>
			</g>
			<line class="st3" x1="343.15" y1="399.97" x2="319.19" y2="402.55"/>
			<line class="st3" x1="339.06" y1="391.81" x2="323.89" y2="410.11"/>
		</g>
		<g>
			<polygon class="st1" points="378.08,449 373.35,445.35 369.8,450.11 369.32,444.4 363.19,445.52 367.24,441.1 362.12,437.92 
				368.33,437.38 367.22,431.76 371.95,435.41 375.5,430.65 375.98,436.35 382.11,435.24 378.06,439.65 383.18,442.84 
				376.97,443.38 			"/>
			<polygon class="st2" points="375.12,444.24 373.05,442.56 371.53,444.72 371.31,442.12 368.65,442.61 370.39,440.61 
				368.17,439.14 370.86,438.91 370.36,436.35 372.42,438.03 373.94,435.87 374.17,438.47 376.82,437.98 375.08,439.98 
				377.31,441.45 374.62,441.67 			"/>
			<line class="st3" x1="371.08" y1="428.34" x2="374.54" y2="451.64"/>
			<line class="st3" x1="362.42" y1="433.12" x2="381.99" y2="446.87"/>
			<g>
				<line class="st3" x1="362.18" y1="434.66" x2="365.52" y2="435.38"/>
				<line class="st3" x1="364.12" y1="432.25" x2="365.59" y2="435.26"/>
			</g>
			<g>
				<line class="st4" x1="369.76" y1="429.4" x2="371.56" y2="432.21"/>
				<line class="st4" x1="372.83" y1="429.03" x2="371.69" y2="432.18"/>
			</g>
			<g>
				<line class="st3" x1="378.74" y1="430.88" x2="377.82" y2="434.09"/>
				<line class="st3" x1="381.1" y1="432.91" x2="377.94" y2="434.17"/>
			</g>
			<g>
				<line class="st3" x1="383.42" y1="438.16" x2="380.41" y2="439.75"/>
				<line class="st3" x1="383.57" y1="441.23" x2="380.44" y2="439.89"/>
			</g>
			<g>
				<line class="st3" x1="382.1" y1="445.25" x2="378.79" y2="444.45"/>
				<line class="st3" x1="380.11" y1="447.62" x2="378.71" y2="444.57"/>
			</g>
			<g>
				<line class="st3" x1="376.11" y1="450.38" x2="374.11" y2="447.68"/>
				<line class="st3" x1="373.02" y1="450.93" x2="373.97" y2="447.72"/>
			</g>
			<g>
				<line class="st3" x1="367.18" y1="449.5" x2="367.95" y2="446.25"/>
				<line class="st3" x1="364.72" y1="447.57" x2="367.83" y2="446.17"/>
			</g>
			<g>
				<line class="st3" x1="361.48" y1="443.44" x2="364.33" y2="441.6"/>
				<line class="st3" x1="361.05" y1="440.4" x2="364.29" y2="441.46"/>
			</g>
			<line class="st3" x1="384.49" y1="439.29" x2="360.53" y2="441.88"/>
			<line class="st3" x1="380.4" y1="431.14" x2="365.22" y2="449.44"/>
		</g>
		<g>
			<polygon class="st1" points="318.01,429.5 313.28,425.85 309.73,430.61 309.25,424.9 303.13,426.02 307.18,421.6 302.06,418.42 
				308.27,417.88 307.16,412.26 311.89,415.91 315.44,411.15 315.92,416.86 322.04,415.74 317.99,420.16 323.11,423.34 
				316.9,423.88 			"/>
			<polygon class="st2" points="315.05,424.74 312.99,423.06 311.47,425.22 311.24,422.62 308.59,423.11 310.33,421.11 
				308.1,419.64 310.79,419.41 310.29,416.85 312.35,418.53 313.87,416.37 314.1,418.97 316.75,418.48 315.01,420.48 317.24,421.95 
				314.55,422.17 			"/>
			<line class="st3" x1="311.01" y1="408.84" x2="314.48" y2="432.14"/>
			<line class="st3" x1="302.35" y1="413.62" x2="321.92" y2="427.37"/>
			<g>
				<line class="st3" x1="302.12" y1="415.16" x2="305.45" y2="415.89"/>
				<line class="st3" x1="304.06" y1="412.75" x2="305.52" y2="415.76"/>
			</g>
			<g>
				<line class="st4" x1="309.69" y1="409.9" x2="311.49" y2="412.71"/>
				<line class="st4" x1="312.76" y1="409.54" x2="311.63" y2="412.68"/>
			</g>
			<g>
				<line class="st3" x1="318.68" y1="411.38" x2="317.75" y2="414.59"/>
				<line class="st3" x1="321.04" y1="413.41" x2="317.87" y2="414.67"/>
			</g>
			<g>
				<line class="st3" x1="323.35" y1="418.66" x2="320.35" y2="420.25"/>
				<line class="st3" x1="323.5" y1="421.73" x2="320.37" y2="420.39"/>
			</g>
			<g>
				<line class="st3" x1="322.04" y1="425.75" x2="318.72" y2="424.96"/>
				<line class="st3" x1="320.04" y1="428.12" x2="318.64" y2="425.08"/>
			</g>
			<g>
				<line class="st3" x1="316.04" y1="430.88" x2="314.04" y2="428.18"/>
				<line class="st3" x1="312.95" y1="431.43" x2="313.9" y2="428.22"/>
			</g>
			<g>
				<line class="st3" x1="307.11" y1="430" x2="307.88" y2="426.75"/>
				<line class="st3" x1="304.66" y1="428.08" x2="307.76" y2="426.68"/>
			</g>
			<g>
				<line class="st3" x1="301.41" y1="423.94" x2="304.26" y2="422.1"/>
				<line class="st3" x1="300.98" y1="420.9" x2="304.22" y2="421.96"/>
			</g>
			<line class="st3" x1="324.42" y1="419.8" x2="300.46" y2="422.38"/>
			<line class="st3" x1="320.33" y1="411.64" x2="305.16" y2="429.94"/>
		</g>
		<g>
			<polygon class="st1" points="376.83,409.67 372.1,406.02 368.55,410.78 368.07,405.07 361.94,406.19 365.99,401.77 
				360.87,398.59 367.08,398.05 365.97,392.43 370.7,396.08 374.25,391.32 374.73,397.03 380.86,395.91 376.81,400.33 
				381.93,403.51 375.72,404.05 			"/>
			<polygon class="st2" points="373.86,404.91 371.8,403.23 370.28,405.39 370.05,402.79 367.4,403.28 369.14,401.28 366.91,399.81 
				369.6,399.58 369.1,397.02 371.17,398.7 372.69,396.54 372.92,399.14 375.57,398.65 373.83,400.65 376.05,402.12 373.37,402.34 
							"/>
			<line class="st3" x1="369.83" y1="389.01" x2="373.29" y2="412.31"/>
			<line class="st3" x1="361.17" y1="393.79" x2="380.74" y2="407.54"/>
			<g>
				<line class="st3" x1="360.93" y1="395.33" x2="364.27" y2="396.06"/>
				<line class="st3" x1="362.87" y1="392.92" x2="364.34" y2="395.93"/>
			</g>
			<g>
				<line class="st4" x1="368.51" y1="390.07" x2="370.31" y2="392.88"/>
				<line class="st4" x1="371.58" y1="389.71" x2="370.44" y2="392.85"/>
			</g>
			<g>
				<line class="st3" x1="377.49" y1="391.55" x2="376.57" y2="394.76"/>
				<line class="st3" x1="379.85" y1="393.58" x2="376.69" y2="394.84"/>
			</g>
			<g>
				<line class="st3" x1="382.17" y1="398.83" x2="379.16" y2="400.42"/>
				<line class="st3" x1="382.32" y1="401.9" x2="379.19" y2="400.56"/>
			</g>
			<g>
				<line class="st3" x1="380.85" y1="405.92" x2="377.54" y2="405.13"/>
				<line class="st3" x1="378.86" y1="408.29" x2="377.46" y2="405.25"/>
			</g>
			<g>
				<line class="st3" x1="374.86" y1="411.05" x2="372.86" y2="408.35"/>
				<line class="st3" x1="371.76" y1="411.6" x2="372.72" y2="408.39"/>
			</g>
			<g>
				<line class="st3" x1="365.92" y1="410.17" x2="366.7" y2="406.92"/>
				<line class="st3" x1="363.47" y1="408.25" x2="366.57" y2="406.85"/>
			</g>
			<g>
				<line class="st3" x1="360.23" y1="404.11" x2="363.08" y2="402.27"/>
				<line class="st3" x1="359.8" y1="401.07" x2="363.04" y2="402.13"/>
			</g>
			<line class="st3" x1="383.24" y1="399.97" x2="359.28" y2="402.55"/>
			<line class="st3" x1="379.15" y1="391.81" x2="363.97" y2="410.11"/>
		</g>
		<g>
			<polygon class="st1" points="436.33,430.24 431.6,426.59 428.06,431.35 427.57,425.64 421.45,426.76 425.5,422.34 420.38,419.16 
				426.59,418.62 425.48,413 430.21,416.65 433.76,411.89 434.24,417.6 440.37,416.48 436.31,420.9 441.43,424.08 435.22,424.62 			
				"/>
			<polygon class="st2" points="433.37,425.48 431.31,423.8 429.79,425.96 429.56,423.36 426.91,423.85 428.65,421.85 
				426.42,420.38 429.11,420.15 428.61,417.59 430.67,419.27 432.19,417.11 432.42,419.71 435.07,419.22 433.33,421.22 
				435.56,422.69 432.87,422.91 			"/>
			<line class="st3" x1="429.34" y1="409.58" x2="432.8" y2="432.88"/>
			<line class="st3" x1="420.67" y1="414.36" x2="440.24" y2="428.11"/>
			<g>
				<line class="st3" x1="420.44" y1="415.9" x2="423.77" y2="416.63"/>
				<line class="st3" x1="422.38" y1="413.49" x2="423.84" y2="416.5"/>
			</g>
			<g>
				<line class="st4" x1="428.01" y1="410.64" x2="429.81" y2="413.45"/>
				<line class="st4" x1="431.08" y1="410.28" x2="429.95" y2="413.42"/>
			</g>
			<g>
				<line class="st3" x1="437" y1="412.12" x2="436.08" y2="415.33"/>
				<line class="st3" x1="439.36" y1="414.15" x2="436.2" y2="415.41"/>
			</g>
			<g>
				<line class="st3" x1="441.67" y1="419.4" x2="438.67" y2="420.99"/>
				<line class="st3" x1="441.82" y1="422.47" x2="438.7" y2="421.13"/>
			</g>
			<g>
				<line class="st3" x1="440.36" y1="426.49" x2="437.04" y2="425.7"/>
				<line class="st3" x1="438.36" y1="428.86" x2="436.97" y2="425.82"/>
			</g>
			<g>
				<line class="st3" x1="434.36" y1="431.62" x2="432.36" y2="428.92"/>
				<line class="st3" x1="431.27" y1="432.17" x2="432.22" y2="428.96"/>
			</g>
			<g>
				<line class="st3" x1="425.43" y1="430.74" x2="426.2" y2="427.49"/>
				<line class="st3" x1="422.98" y1="428.82" x2="426.08" y2="427.42"/>
			</g>
			<g>
				<line class="st3" x1="419.74" y1="424.68" x2="422.58" y2="422.84"/>
				<line class="st3" x1="419.3" y1="421.64" x2="422.54" y2="422.7"/>
			</g>
			<line class="st3" x1="442.74" y1="420.54" x2="418.78" y2="423.12"/>
			<line class="st3" x1="438.65" y1="412.38" x2="423.48" y2="430.68"/>
		</g>
		<g>
			<polygon class="st1" points="453.96,449 449.23,445.35 445.68,450.11 445.2,444.4 439.07,445.52 443.12,441.1 438.01,437.92 
				444.22,437.38 443.1,431.76 447.84,435.41 451.38,430.65 451.86,436.35 457.99,435.24 453.94,439.65 459.06,442.84 
				452.85,443.38 			"/>
			<polygon class="st2" points="451,444.24 448.94,442.56 447.41,444.72 447.19,442.12 444.53,442.61 446.28,440.61 444.05,439.14 
				446.74,438.91 446.24,436.35 448.3,438.03 449.82,435.87 450.05,438.47 452.7,437.98 450.96,439.98 453.19,441.45 450.5,441.67 
							"/>
			<line class="st3" x1="446.96" y1="428.34" x2="450.42" y2="451.64"/>
			<line class="st3" x1="438.3" y1="433.12" x2="457.87" y2="446.87"/>
			<g>
				<line class="st3" x1="438.06" y1="434.66" x2="441.4" y2="435.38"/>
				<line class="st3" x1="440.01" y1="432.25" x2="441.47" y2="435.26"/>
			</g>
			<g>
				<line class="st4" x1="445.64" y1="429.4" x2="447.44" y2="432.21"/>
				<line class="st4" x1="448.71" y1="429.03" x2="447.58" y2="432.18"/>
			</g>
			<g>
				<line class="st3" x1="454.63" y1="430.88" x2="453.7" y2="434.09"/>
				<line class="st3" x1="456.99" y1="432.91" x2="453.82" y2="434.17"/>
			</g>
			<g>
				<line class="st3" x1="459.3" y1="438.16" x2="456.3" y2="439.75"/>
				<line class="st3" x1="459.45" y1="441.23" x2="456.32" y2="439.89"/>
			</g>
			<g>
				<line class="st3" x1="457.99" y1="445.25" x2="454.67" y2="444.45"/>
				<line class="st3" x1="455.99" y1="447.62" x2="454.59" y2="444.57"/>
			</g>
			<g>
				<line class="st3" x1="451.99" y1="450.38" x2="449.99" y2="447.68"/>
				<line class="st3" x1="448.9" y1="450.93" x2="449.85" y2="447.72"/>
			</g>
			<g>
				<line class="st3" x1="443.06" y1="449.5" x2="443.83" y2="446.25"/>
				<line class="st3" x1="440.61" y1="447.57" x2="443.71" y2="446.17"/>
			</g>
			<g>
				<line class="st3" x1="437.36" y1="443.44" x2="440.21" y2="441.6"/>
				<line class="st3" x1="436.93" y1="440.4" x2="440.17" y2="441.46"/>
			</g>
			<line class="st3" x1="460.37" y1="439.29" x2="436.41" y2="441.88"/>
			<line class="st3" x1="456.28" y1="431.14" x2="441.1" y2="449.44"/>
		</g>
		<g>
			<polygon class="st1" points="472.32,429.5 467.59,425.85 464.04,430.61 463.56,424.9 457.43,426.02 461.48,421.6 456.36,418.42 
				462.57,417.88 461.46,412.26 466.19,415.91 469.74,411.15 470.22,416.86 476.35,415.74 472.3,420.16 477.42,423.34 
				471.21,423.88 			"/>
			<polygon class="st2" points="469.35,424.74 467.29,423.06 465.77,425.22 465.54,422.62 462.89,423.11 464.63,421.11 
				462.4,419.64 465.09,419.41 464.59,416.85 466.65,418.53 468.18,416.37 468.4,418.97 471.06,418.48 469.31,420.48 471.54,421.95 
				468.85,422.17 			"/>
			<line class="st3" x1="465.32" y1="408.84" x2="468.78" y2="432.14"/>
			<line class="st3" x1="456.65" y1="413.62" x2="476.22" y2="427.37"/>
			<g>
				<line class="st3" x1="456.42" y1="415.16" x2="459.75" y2="415.89"/>
				<line class="st3" x1="458.36" y1="412.75" x2="459.83" y2="415.76"/>
			</g>
			<g>
				<line class="st4" x1="463.99" y1="409.9" x2="465.79" y2="412.71"/>
				<line class="st4" x1="467.07" y1="409.54" x2="465.93" y2="412.68"/>
			</g>
			<g>
				<line class="st3" x1="472.98" y1="411.38" x2="472.06" y2="414.59"/>
				<line class="st3" x1="475.34" y1="413.41" x2="472.18" y2="414.67"/>
			</g>
			<g>
				<line class="st3" x1="477.65" y1="418.66" x2="474.65" y2="420.25"/>
				<line class="st3" x1="477.81" y1="421.73" x2="474.68" y2="420.39"/>
			</g>
			<g>
				<line class="st3" x1="476.34" y1="425.75" x2="473.02" y2="424.96"/>
				<line class="st3" x1="474.34" y1="428.12" x2="472.95" y2="425.08"/>
			</g>
			<g>
				<line class="st3" x1="470.35" y1="430.88" x2="468.34" y2="428.18"/>
				<line class="st3" x1="467.25" y1="431.43" x2="468.21" y2="428.22"/>
			</g>
			<g>
				<line class="st3" x1="461.41" y1="430" x2="462.19" y2="426.75"/>
				<line class="st3" x1="458.96" y1="428.08" x2="462.06" y2="426.68"/>
			</g>
			<g>
				<line class="st3" x1="455.72" y1="423.94" x2="458.56" y2="422.1"/>
				<line class="st3" x1="455.29" y1="420.9" x2="458.52" y2="421.96"/>
			</g>
			<line class="st3" x1="478.72" y1="419.8" x2="454.76" y2="422.38"/>
			<line class="st3" x1="474.64" y1="411.64" x2="459.46" y2="429.94"/>
		</g>
		<g>
			<polygon class="st1" points="336.38,449 331.65,445.35 328.1,450.11 327.62,444.4 321.49,445.52 325.54,441.1 320.42,437.92 
				326.63,437.38 325.52,431.76 330.26,435.41 333.8,430.65 334.28,436.35 340.41,435.24 336.36,439.65 341.48,442.84 
				335.27,443.38 			"/>
			<polygon class="st2" points="333.42,444.24 331.36,442.56 329.83,444.72 329.61,442.12 326.95,442.61 328.7,440.61 
				326.47,439.14 329.16,438.91 328.66,436.35 330.72,438.03 332.24,435.87 332.47,438.47 335.12,437.98 333.38,439.98 
				335.61,441.45 332.92,441.67 			"/>
			<line class="st3" x1="329.38" y1="428.34" x2="332.84" y2="451.64"/>
			<line class="st3" x1="320.72" y1="433.12" x2="340.29" y2="446.87"/>
			<g>
				<line class="st3" x1="320.48" y1="434.66" x2="323.82" y2="435.38"/>
				<line class="st3" x1="322.43" y1="432.25" x2="323.89" y2="435.26"/>
			</g>
			<g>
				<line class="st4" x1="328.06" y1="429.4" x2="329.86" y2="432.21"/>
				<line class="st4" x1="331.13" y1="429.03" x2="330" y2="432.18"/>
			</g>
			<g>
				<line class="st3" x1="337.05" y1="430.88" x2="336.12" y2="434.09"/>
				<line class="st3" x1="339.4" y1="432.91" x2="336.24" y2="434.17"/>
			</g>
			<g>
				<line class="st3" x1="341.72" y1="438.16" x2="338.72" y2="439.75"/>
				<line class="st3" x1="341.87" y1="441.23" x2="338.74" y2="439.89"/>
			</g>
			<g>
				<line class="st3" x1="340.41" y1="445.25" x2="337.09" y2="444.45"/>
				<line class="st3" x1="338.41" y1="447.62" x2="337.01" y2="444.57"/>
			</g>
			<g>
				<line class="st3" x1="334.41" y1="450.38" x2="332.41" y2="447.68"/>
				<line class="st3" x1="331.32" y1="450.93" x2="332.27" y2="447.72"/>
			</g>
			<g>
				<line class="st3" x1="325.48" y1="449.5" x2="326.25" y2="446.25"/>
				<line class="st3" x1="323.03" y1="447.57" x2="326.13" y2="446.17"/>
			</g>
			<g>
				<line class="st3" x1="319.78" y1="443.44" x2="322.63" y2="441.6"/>
				<line class="st3" x1="319.35" y1="440.4" x2="322.59" y2="441.46"/>
			</g>
			<line class="st3" x1="342.79" y1="439.29" x2="318.83" y2="441.88"/>
			<line class="st3" x1="338.7" y1="431.14" x2="323.52" y2="449.44"/>
		</g>
		<g>
			<polygon class="st1" points="356.99,429.5 352.26,425.85 348.71,430.61 348.23,424.9 342.1,426.02 346.16,421.6 341.04,418.42 
				347.25,417.88 346.14,412.26 350.87,415.91 354.41,411.15 354.89,416.86 361.02,415.74 356.97,420.16 362.09,423.34 
				355.88,423.88 			"/>
			<polygon class="st2" points="354.03,424.74 351.97,423.06 350.44,425.22 350.22,422.62 347.57,423.11 349.31,421.11 
				347.08,419.64 349.77,419.41 349.27,416.85 351.33,418.53 352.85,416.37 353.08,418.97 355.73,418.48 353.99,420.48 
				356.22,421.95 353.53,422.17 			"/>
			<line class="st3" x1="349.99" y1="408.84" x2="353.45" y2="432.14"/>
			<line class="st3" x1="341.33" y1="413.62" x2="360.9" y2="427.37"/>
			<g>
				<line class="st3" x1="341.09" y1="415.16" x2="344.43" y2="415.89"/>
				<line class="st3" x1="343.04" y1="412.75" x2="344.5" y2="415.76"/>
			</g>
			<g>
				<line class="st4" x1="348.67" y1="409.9" x2="350.47" y2="412.71"/>
				<line class="st4" x1="351.74" y1="409.54" x2="350.61" y2="412.68"/>
			</g>
			<g>
				<line class="st3" x1="357.66" y1="411.38" x2="356.73" y2="414.59"/>
				<line class="st3" x1="360.02" y1="413.41" x2="356.85" y2="414.67"/>
			</g>
			<g>
				<line class="st3" x1="362.33" y1="418.66" x2="359.33" y2="420.25"/>
				<line class="st3" x1="362.48" y1="421.73" x2="359.35" y2="420.39"/>
			</g>
			<g>
				<line class="st3" x1="361.02" y1="425.75" x2="357.7" y2="424.96"/>
				<line class="st3" x1="359.02" y1="428.12" x2="357.62" y2="425.08"/>
			</g>
			<g>
				<line class="st3" x1="355.02" y1="430.88" x2="353.02" y2="428.18"/>
				<line class="st3" x1="351.93" y1="431.43" x2="352.88" y2="428.22"/>
			</g>
			<g>
				<line class="st3" x1="346.09" y1="430" x2="346.86" y2="426.75"/>
				<line class="st3" x1="343.64" y1="428.08" x2="346.74" y2="426.68"/>
			</g>
			<g>
				<line class="st3" x1="340.39" y1="423.94" x2="343.24" y2="422.1"/>
				<line class="st3" x1="339.96" y1="420.9" x2="343.2" y2="421.96"/>
			</g>
			<line class="st3" x1="363.4" y1="419.8" x2="339.44" y2="422.38"/>
			<line class="st3" x1="359.31" y1="411.64" x2="344.14" y2="429.94"/>
		</g>
		<g>
			<polygon class="st1" points="398.79,470.11 394.06,466.45 390.51,471.22 390.03,465.51 383.9,466.62 387.95,462.21 
				382.83,459.02 389.04,458.49 387.93,452.86 392.66,456.52 396.21,451.75 396.69,457.46 402.82,456.34 398.77,460.76 
				403.89,463.95 397.68,464.48 			"/>
			<polygon class="st2" points="395.82,465.34 393.76,463.66 392.24,465.82 392.01,463.22 389.36,463.71 391.1,461.71 
				388.87,460.24 391.56,460.02 391.06,457.45 393.13,459.13 394.65,456.97 394.87,459.57 397.53,459.08 395.79,461.08 
				398.01,462.55 395.32,462.78 			"/>
			<line class="st3" x1="391.79" y1="449.45" x2="395.25" y2="472.75"/>
			<line class="st3" x1="383.12" y1="454.22" x2="402.7" y2="467.97"/>
			<g>
				<line class="st3" x1="382.89" y1="455.77" x2="386.23" y2="456.49"/>
				<line class="st3" x1="384.83" y1="453.35" x2="386.3" y2="456.37"/>
			</g>
			<g>
				<line class="st4" x1="390.47" y1="450.51" x2="392.27" y2="453.32"/>
				<line class="st4" x1="393.54" y1="450.14" x2="392.4" y2="453.28"/>
			</g>
			<g>
				<line class="st3" x1="399.45" y1="451.98" x2="398.53" y2="455.19"/>
				<line class="st3" x1="401.81" y1="454.01" x2="398.65" y2="455.27"/>
			</g>
			<g>
				<line class="st3" x1="404.13" y1="459.27" x2="401.12" y2="460.86"/>
				<line class="st3" x1="404.28" y1="462.33" x2="401.15" y2="461"/>
			</g>
			<g>
				<line class="st3" x1="402.81" y1="466.35" x2="399.5" y2="465.56"/>
				<line class="st3" x1="400.82" y1="468.73" x2="399.42" y2="465.68"/>
			</g>
			<g>
				<line class="st3" x1="396.82" y1="471.49" x2="394.82" y2="468.79"/>
				<line class="st3" x1="393.72" y1="472.03" x2="394.68" y2="468.83"/>
			</g>
			<g>
				<line class="st3" x1="387.88" y1="470.6" x2="388.66" y2="467.35"/>
				<line class="st3" x1="385.43" y1="468.68" x2="388.53" y2="467.28"/>
			</g>
			<g>
				<line class="st3" x1="382.19" y1="464.55" x2="385.04" y2="462.7"/>
				<line class="st3" x1="381.76" y1="461.51" x2="385" y2="462.57"/>
			</g>
			<line class="st3" x1="405.2" y1="460.4" x2="381.23" y2="462.99"/>
			<line class="st3" x1="401.11" y1="452.25" x2="385.93" y2="470.54"/>
		</g>
		<g>
			<polygon class="st1" points="399.02,429.56 393.88,426.48 390.94,431.63 389.76,426.02 383.81,427.85 387.29,422.99 
				381.82,420.42 387.92,419.16 386.13,413.71 391.27,416.79 394.21,411.64 395.39,417.25 401.34,415.43 397.86,420.28 
				403.33,422.85 397.23,424.11 			"/>
			<polygon class="st2" points="395.5,425.18 393.24,423.75 392,426.08 391.45,423.52 388.88,424.31 390.36,422.13 387.97,420.93 
				390.61,420.39 389.8,417.9 392.05,419.33 393.3,417 393.84,419.56 396.42,418.76 394.93,420.95 397.33,422.15 394.68,422.69 			
				"/>
			<line class="st3" x1="389.54" y1="409.87" x2="395.83" y2="432.6"/>
			<line class="st3" x1="381.52" y1="415.63" x2="402.64" y2="426.98"/>
			<g>
				<line class="st3" x1="381.48" y1="417.19" x2="384.88" y2="417.51"/>
				<line class="st3" x1="383.11" y1="414.56" x2="384.94" y2="417.38"/>
			</g>
			<g>
				<line class="st4" x1="388.36" y1="411.08" x2="390.49" y2="413.66"/>
				<line class="st4" x1="391.36" y1="410.35" x2="390.62" y2="413.61"/>
			</g>
			<g>
				<line class="st3" x1="397.46" y1="411.49" x2="396.94" y2="414.79"/>
				<line class="st3" x1="400.05" y1="413.23" x2="397.06" y2="414.85"/>
			</g>
			<g>
				<line class="st3" x1="402.99" y1="418.18" x2="400.21" y2="420.1"/>
				<line class="st3" x1="403.52" y1="421.2" x2="400.25" y2="420.24"/>
			</g>
			<g>
				<line class="st3" x1="402.56" y1="425.36" x2="399.17" y2="424.96"/>
				<line class="st3" x1="400.87" y1="427.95" x2="399.11" y2="425.09"/>
			</g>
			<g>
				<line class="st3" x1="397.24" y1="431.16" x2="394.92" y2="428.71"/>
				<line class="st3" x1="394.23" y1="432.07" x2="394.79" y2="428.77"/>
			</g>
			<g>
				<line class="st3" x1="388.26" y1="431.33" x2="388.63" y2="428.01"/>
				<line class="st3" x1="385.59" y1="429.71" x2="388.49" y2="427.95"/>
			</g>
			<g>
				<line class="st3" x1="381.86" y1="425.98" x2="384.46" y2="423.82"/>
				<line class="st3" x1="381.06" y1="423.02" x2="384.4" y2="423.69"/>
			</g>
			<line class="st3" x1="404.19" y1="419.17" x2="380.72" y2="424.55"/>
			<line class="st3" x1="399.14" y1="411.56" x2="386.31" y2="431.5"/>
		</g>
		<g>
			<polygon class="st1" points="416.63,449 411.9,445.35 408.36,450.11 407.88,444.4 401.75,445.52 405.8,441.1 400.68,437.92 
				406.89,437.38 405.78,431.76 410.51,435.41 414.06,430.65 414.54,436.35 420.67,435.24 416.61,439.65 421.73,442.84 
				415.52,443.38 			"/>
			<polygon class="st2" points="413.67,444.24 411.61,442.56 410.09,444.72 409.86,442.12 407.21,442.61 408.95,440.61 
				406.72,439.14 409.41,438.91 408.91,436.35 410.97,438.03 412.49,435.87 412.72,438.47 415.37,437.98 413.63,439.98 
				415.86,441.45 413.17,441.67 			"/>
			<line class="st3" x1="409.64" y1="428.34" x2="413.1" y2="451.64"/>
			<line class="st3" x1="400.97" y1="433.12" x2="420.54" y2="446.87"/>
			<g>
				<line class="st3" x1="400.74" y1="434.66" x2="404.07" y2="435.38"/>
				<line class="st3" x1="402.68" y1="432.25" x2="404.14" y2="435.26"/>
			</g>
			<g>
				<line class="st4" x1="408.31" y1="429.4" x2="410.11" y2="432.21"/>
				<line class="st4" x1="411.38" y1="429.03" x2="410.25" y2="432.18"/>
			</g>
			<g>
				<line class="st3" x1="417.3" y1="430.88" x2="416.38" y2="434.09"/>
				<line class="st3" x1="419.66" y1="432.91" x2="416.5" y2="434.17"/>
			</g>
			<g>
				<line class="st3" x1="421.97" y1="438.16" x2="418.97" y2="439.75"/>
				<line class="st3" x1="422.12" y1="441.23" x2="419" y2="439.89"/>
			</g>
			<g>
				<line class="st3" x1="420.66" y1="445.25" x2="417.34" y2="444.45"/>
				<line class="st3" x1="418.66" y1="447.62" x2="417.27" y2="444.57"/>
			</g>
			<g>
				<line class="st3" x1="414.66" y1="450.38" x2="412.66" y2="447.68"/>
				<line class="st3" x1="411.57" y1="450.93" x2="412.52" y2="447.72"/>
			</g>
			<g>
				<line class="st3" x1="405.73" y1="449.5" x2="406.5" y2="446.25"/>
				<line class="st3" x1="403.28" y1="447.57" x2="406.38" y2="446.17"/>
			</g>
			<g>
				<line class="st3" x1="400.04" y1="443.44" x2="402.88" y2="441.6"/>
				<line class="st3" x1="399.6" y1="440.4" x2="402.84" y2="441.46"/>
			</g>
			<line class="st3" x1="423.04" y1="439.29" x2="399.08" y2="441.88"/>
			<line class="st3" x1="418.96" y1="431.14" x2="403.78" y2="449.44"/>
		</g>
		<g>
			<polygon class="st1" points="487.86,409.67 483.13,406.02 479.58,410.78 479.1,405.07 472.97,406.19 477.02,401.77 471.9,398.59 
				478.11,398.05 477,392.43 481.73,396.08 485.28,391.32 485.76,397.03 491.89,395.91 487.84,400.33 492.96,403.51 486.75,404.05 
							"/>
			<polygon class="st2" points="484.89,404.91 482.83,403.23 481.31,405.39 481.08,402.79 478.43,403.28 480.17,401.28 
				477.94,399.81 480.63,399.58 480.13,397.02 482.19,398.7 483.72,396.54 483.94,399.14 486.6,398.65 484.85,400.65 487.08,402.12 
				484.39,402.34 			"/>
			<line class="st3" x1="480.86" y1="389.01" x2="484.32" y2="412.31"/>
			<line class="st3" x1="472.19" y1="393.79" x2="491.76" y2="407.54"/>
			<g>
				<line class="st3" x1="471.96" y1="395.33" x2="475.29" y2="396.06"/>
				<line class="st3" x1="473.9" y1="392.92" x2="475.37" y2="395.93"/>
			</g>
			<g>
				<line class="st4" x1="479.53" y1="390.07" x2="481.33" y2="392.88"/>
				<line class="st4" x1="482.61" y1="389.71" x2="481.47" y2="392.85"/>
			</g>
			<g>
				<line class="st3" x1="488.52" y1="391.55" x2="487.6" y2="394.76"/>
				<line class="st3" x1="490.88" y1="393.58" x2="487.72" y2="394.84"/>
			</g>
			<g>
				<line class="st3" x1="493.19" y1="398.83" x2="490.19" y2="400.42"/>
				<line class="st3" x1="493.35" y1="401.9" x2="490.22" y2="400.56"/>
			</g>
			<g>
				<line class="st3" x1="491.88" y1="405.92" x2="488.56" y2="405.13"/>
				<line class="st3" x1="489.88" y1="408.29" x2="488.49" y2="405.25"/>
			</g>
			<g>
				<line class="st3" x1="485.89" y1="411.05" x2="483.88" y2="408.35"/>
				<line class="st3" x1="482.79" y1="411.6" x2="483.75" y2="408.39"/>
			</g>
			<g>
				<line class="st3" x1="476.95" y1="410.17" x2="477.73" y2="406.92"/>
				<line class="st3" x1="474.5" y1="408.25" x2="477.6" y2="406.85"/>
			</g>
			<g>
				<line class="st3" x1="471.26" y1="404.11" x2="474.1" y2="402.27"/>
				<line class="st3" x1="470.83" y1="401.07" x2="474.06" y2="402.13"/>
			</g>
			<line class="st3" x1="494.26" y1="399.97" x2="470.3" y2="402.55"/>
			<line class="st3" x1="490.18" y1="391.81" x2="475" y2="410.11"/>
		</g>
		<g>
			<polygon class="st1" points="509.69,429.5 504.95,425.85 501.41,430.61 500.93,424.9 494.8,426.02 498.85,421.6 493.73,418.42 
				499.94,417.88 498.83,412.26 503.56,415.91 507.11,411.15 507.59,416.86 513.72,415.74 509.67,420.16 514.78,423.34 
				508.57,423.88 			"/>
			<polygon class="st2" points="506.72,424.74 504.66,423.06 503.14,425.22 502.91,422.62 500.26,423.11 502,421.11 499.77,419.64 
				502.46,419.41 501.96,416.85 504.02,418.53 505.54,416.37 505.77,418.97 508.42,418.48 506.68,420.48 508.91,421.95 
				506.22,422.17 			"/>
			<line class="st3" x1="502.69" y1="408.84" x2="506.15" y2="432.14"/>
			<line class="st3" x1="494.02" y1="413.62" x2="513.59" y2="427.37"/>
			<g>
				<line class="st3" x1="493.79" y1="415.16" x2="497.12" y2="415.89"/>
				<line class="st3" x1="495.73" y1="412.75" x2="497.19" y2="415.76"/>
			</g>
			<g>
				<line class="st4" x1="501.36" y1="409.9" x2="503.16" y2="412.71"/>
				<line class="st4" x1="504.43" y1="409.54" x2="503.3" y2="412.68"/>
			</g>
			<g>
				<line class="st3" x1="510.35" y1="411.38" x2="509.43" y2="414.59"/>
				<line class="st3" x1="512.71" y1="413.41" x2="509.55" y2="414.67"/>
			</g>
			<g>
				<line class="st3" x1="515.02" y1="418.66" x2="512.02" y2="420.25"/>
				<line class="st3" x1="515.18" y1="421.73" x2="512.05" y2="420.39"/>
			</g>
			<g>
				<line class="st3" x1="513.71" y1="425.75" x2="510.39" y2="424.96"/>
				<line class="st3" x1="511.71" y1="428.12" x2="510.32" y2="425.08"/>
			</g>
			<g>
				<line class="st3" x1="507.71" y1="430.88" x2="505.71" y2="428.18"/>
				<line class="st3" x1="504.62" y1="431.43" x2="505.58" y2="428.22"/>
			</g>
			<g>
				<line class="st3" x1="498.78" y1="430" x2="499.55" y2="426.75"/>
				<line class="st3" x1="496.33" y1="428.08" x2="499.43" y2="426.68"/>
			</g>
			<g>
				<line class="st3" x1="493.09" y1="423.94" x2="495.93" y2="422.1"/>
				<line class="st3" x1="492.65" y1="420.9" x2="495.89" y2="421.96"/>
			</g>
			<line class="st3" x1="516.09" y1="419.8" x2="492.13" y2="422.38"/>
			<line class="st3" x1="512.01" y1="411.64" x2="496.83" y2="429.94"/>
		</g>
		<g>
			<polygon class="st1" points="493.31,449 488.58,445.35 485.03,450.11 484.55,444.4 478.43,445.52 482.48,441.1 477.36,437.92 
				483.57,437.38 482.46,431.76 487.19,435.41 490.74,430.65 491.22,436.35 497.34,435.24 493.29,439.65 498.41,442.84 
				492.2,443.38 			"/>
			<polygon class="st2" points="490.35,444.24 488.29,442.56 486.77,444.72 486.54,442.12 483.89,442.61 485.63,440.61 
				483.4,439.14 486.09,438.91 485.59,436.35 487.65,438.03 489.17,435.87 489.4,438.47 492.05,437.98 490.31,439.98 492.54,441.45 
				489.85,441.67 			"/>
			<line class="st3" x1="486.31" y1="428.34" x2="489.78" y2="451.64"/>
			<line class="st3" x1="477.65" y1="433.12" x2="497.22" y2="446.87"/>
			<g>
				<line class="st3" x1="477.42" y1="434.66" x2="480.75" y2="435.38"/>
				<line class="st3" x1="479.36" y1="432.25" x2="480.82" y2="435.26"/>
			</g>
			<g>
				<line class="st4" x1="484.99" y1="429.4" x2="486.79" y2="432.21"/>
				<line class="st4" x1="488.06" y1="429.03" x2="486.93" y2="432.18"/>
			</g>
			<g>
				<line class="st3" x1="493.98" y1="430.88" x2="493.05" y2="434.09"/>
				<line class="st3" x1="496.34" y1="432.91" x2="493.17" y2="434.17"/>
			</g>
			<g>
				<line class="st3" x1="498.65" y1="438.16" x2="495.65" y2="439.75"/>
				<line class="st3" x1="498.8" y1="441.23" x2="495.67" y2="439.89"/>
			</g>
			<g>
				<line class="st3" x1="497.34" y1="445.25" x2="494.02" y2="444.45"/>
				<line class="st3" x1="495.34" y1="447.62" x2="493.94" y2="444.57"/>
			</g>
			<g>
				<line class="st3" x1="491.34" y1="450.38" x2="489.34" y2="447.68"/>
				<line class="st3" x1="488.25" y1="450.93" x2="489.2" y2="447.72"/>
			</g>
			<g>
				<line class="st3" x1="482.41" y1="449.5" x2="483.18" y2="446.25"/>
				<line class="st3" x1="479.96" y1="447.57" x2="483.06" y2="446.17"/>
			</g>
			<g>
				<line class="st3" x1="476.71" y1="443.44" x2="479.56" y2="441.6"/>
				<line class="st3" x1="476.28" y1="440.4" x2="479.52" y2="441.46"/>
			</g>
			<line class="st3" x1="499.72" y1="439.29" x2="475.76" y2="441.88"/>
			<line class="st3" x1="495.63" y1="431.14" x2="480.46" y2="449.44"/>
		</g>
		<g>
			<polygon class="st1" points="472.32,470.11 467.59,466.45 464.04,471.22 463.56,465.51 457.43,466.62 461.48,462.21 
				456.36,459.02 462.57,458.49 461.46,452.86 466.19,456.52 469.74,451.75 470.22,457.46 476.35,456.34 472.3,460.76 
				477.42,463.95 471.21,464.48 			"/>
			<polygon class="st2" points="469.35,465.34 467.29,463.66 465.77,465.82 465.54,463.22 462.89,463.71 464.63,461.71 
				462.4,460.24 465.09,460.02 464.59,457.45 466.65,459.13 468.18,456.97 468.4,459.57 471.06,459.08 469.31,461.08 471.54,462.55 
				468.85,462.78 			"/>
			<line class="st3" x1="465.32" y1="449.45" x2="468.78" y2="472.75"/>
			<line class="st3" x1="456.65" y1="454.22" x2="476.22" y2="467.97"/>
			<g>
				<line class="st3" x1="456.42" y1="455.77" x2="459.75" y2="456.49"/>
				<line class="st3" x1="458.36" y1="453.35" x2="459.83" y2="456.37"/>
			</g>
			<g>
				<line class="st4" x1="463.99" y1="450.51" x2="465.79" y2="453.32"/>
				<line class="st4" x1="467.07" y1="450.14" x2="465.93" y2="453.28"/>
			</g>
			<g>
				<line class="st3" x1="472.98" y1="451.98" x2="472.06" y2="455.19"/>
				<line class="st3" x1="475.34" y1="454.01" x2="472.18" y2="455.27"/>
			</g>
			<g>
				<line class="st3" x1="477.65" y1="459.27" x2="474.65" y2="460.86"/>
				<line class="st3" x1="477.81" y1="462.33" x2="474.68" y2="461"/>
			</g>
			<g>
				<line class="st3" x1="476.34" y1="466.35" x2="473.02" y2="465.56"/>
				<line class="st3" x1="474.34" y1="468.73" x2="472.95" y2="465.68"/>
			</g>
			<g>
				<line class="st3" x1="470.35" y1="471.49" x2="468.34" y2="468.79"/>
				<line class="st3" x1="467.25" y1="472.03" x2="468.21" y2="468.83"/>
			</g>
			<g>
				<line class="st3" x1="461.41" y1="470.6" x2="462.19" y2="467.35"/>
				<line class="st3" x1="458.96" y1="468.68" x2="462.06" y2="467.28"/>
			</g>
			<g>
				<line class="st3" x1="455.72" y1="464.55" x2="458.56" y2="462.7"/>
				<line class="st3" x1="455.29" y1="461.51" x2="458.52" y2="462.57"/>
			</g>
			<line class="st3" x1="478.72" y1="460.4" x2="454.76" y2="462.99"/>
			<line class="st3" x1="474.64" y1="452.25" x2="459.46" y2="470.54"/>
		</g>
		<g>
			<polygon class="st1" points="439.37,470.11 434.63,466.45 431.09,471.22 430.61,465.51 424.48,466.62 428.53,462.21 
				423.41,459.02 429.62,458.49 428.51,452.86 433.24,456.52 436.79,451.75 437.27,457.46 443.4,456.34 439.35,460.76 
				444.46,463.95 438.25,464.48 			"/>
			<polygon class="st2" points="436.4,465.34 434.34,463.66 432.82,465.82 432.59,463.22 429.94,463.71 431.68,461.71 
				429.45,460.24 432.14,460.02 431.64,457.45 433.7,459.13 435.22,456.97 435.45,459.57 438.1,459.08 436.36,461.08 438.59,462.55 
				435.9,462.78 			"/>
			<line class="st3" x1="432.37" y1="449.45" x2="435.83" y2="472.75"/>
			<line class="st3" x1="423.7" y1="454.22" x2="443.27" y2="467.97"/>
			<g>
				<line class="st3" x1="423.47" y1="455.77" x2="426.8" y2="456.49"/>
				<line class="st3" x1="425.41" y1="453.35" x2="426.87" y2="456.37"/>
			</g>
			<g>
				<line class="st4" x1="431.04" y1="450.51" x2="432.84" y2="453.32"/>
				<line class="st4" x1="434.11" y1="450.14" x2="432.98" y2="453.28"/>
			</g>
			<g>
				<line class="st3" x1="440.03" y1="451.98" x2="439.11" y2="455.19"/>
				<line class="st3" x1="442.39" y1="454.01" x2="439.23" y2="455.27"/>
			</g>
			<g>
				<line class="st3" x1="444.7" y1="459.27" x2="441.7" y2="460.86"/>
				<line class="st3" x1="444.86" y1="462.33" x2="441.73" y2="461"/>
			</g>
			<g>
				<line class="st3" x1="443.39" y1="466.35" x2="440.07" y2="465.56"/>
				<line class="st3" x1="441.39" y1="468.73" x2="440" y2="465.68"/>
			</g>
			<g>
				<line class="st3" x1="437.39" y1="471.49" x2="435.39" y2="468.79"/>
				<line class="st3" x1="434.3" y1="472.03" x2="435.26" y2="468.83"/>
			</g>
			<g>
				<line class="st3" x1="428.46" y1="470.6" x2="429.23" y2="467.35"/>
				<line class="st3" x1="426.01" y1="468.68" x2="429.11" y2="467.28"/>
			</g>
			<g>
				<line class="st3" x1="422.77" y1="464.55" x2="425.61" y2="462.7"/>
				<line class="st3" x1="422.33" y1="461.51" x2="425.57" y2="462.57"/>
			</g>
			<line class="st3" x1="445.77" y1="460.4" x2="421.81" y2="462.99"/>
			<line class="st3" x1="441.69" y1="452.25" x2="426.51" y2="470.54"/>
		</g>
		<g>
			<polygon class="st1" points="509.69,470.11 504.95,466.45 501.41,471.22 500.93,465.51 494.8,466.62 498.85,462.21 
				493.73,459.02 499.94,458.49 498.83,452.86 503.56,456.52 507.11,451.75 507.59,457.46 513.72,456.34 509.67,460.76 
				514.78,463.95 508.57,464.48 			"/>
			<polygon class="st2" points="506.72,465.34 504.66,463.66 503.14,465.82 502.91,463.22 500.26,463.71 502,461.71 499.77,460.24 
				502.46,460.02 501.96,457.45 504.02,459.13 505.54,456.97 505.77,459.57 508.42,459.08 506.68,461.08 508.91,462.55 
				506.22,462.78 			"/>
			<line class="st3" x1="502.69" y1="449.45" x2="506.15" y2="472.75"/>
			<line class="st3" x1="494.02" y1="454.22" x2="513.59" y2="467.97"/>
			<g>
				<line class="st3" x1="493.79" y1="455.77" x2="497.12" y2="456.49"/>
				<line class="st3" x1="495.73" y1="453.35" x2="497.19" y2="456.37"/>
			</g>
			<g>
				<line class="st4" x1="501.36" y1="450.51" x2="503.16" y2="453.32"/>
				<line class="st4" x1="504.43" y1="450.14" x2="503.3" y2="453.28"/>
			</g>
			<g>
				<line class="st3" x1="510.35" y1="451.98" x2="509.43" y2="455.19"/>
				<line class="st3" x1="512.71" y1="454.01" x2="509.55" y2="455.27"/>
			</g>
			<g>
				<line class="st3" x1="515.02" y1="459.27" x2="512.02" y2="460.86"/>
				<line class="st3" x1="515.18" y1="462.33" x2="512.05" y2="461"/>
			</g>
			<g>
				<line class="st3" x1="513.71" y1="466.35" x2="510.39" y2="465.56"/>
				<line class="st3" x1="511.71" y1="468.73" x2="510.32" y2="465.68"/>
			</g>
			<g>
				<line class="st3" x1="507.71" y1="471.49" x2="505.71" y2="468.79"/>
				<line class="st3" x1="504.62" y1="472.03" x2="505.58" y2="468.83"/>
			</g>
			<g>
				<line class="st3" x1="498.78" y1="470.6" x2="499.55" y2="467.35"/>
				<line class="st3" x1="496.33" y1="468.68" x2="499.43" y2="467.28"/>
			</g>
			<g>
				<line class="st3" x1="493.09" y1="464.55" x2="495.93" y2="462.7"/>
				<line class="st3" x1="492.65" y1="461.51" x2="495.89" y2="462.57"/>
			</g>
			<line class="st3" x1="516.09" y1="460.4" x2="492.13" y2="462.99"/>
			<line class="st3" x1="512.01" y1="452.25" x2="496.83" y2="470.54"/>
		</g>
		<g>
			<polygon class="st1" points="434.06,388.82 429.33,385.17 425.78,389.93 425.3,384.22 419.17,385.34 423.22,380.92 
				418.11,377.74 424.32,377.2 423.2,371.58 427.94,375.23 431.48,370.47 431.96,376.18 438.09,375.06 434.04,379.48 439.16,382.66 
				432.95,383.2 			"/>
			<polygon class="st2" points="431.1,384.06 429.04,382.38 427.51,384.54 427.29,381.94 424.63,382.43 426.38,380.43 
				424.15,378.96 426.84,378.73 426.34,376.17 428.4,377.85 429.92,375.69 430.15,378.29 432.8,377.8 431.06,379.8 433.29,381.27 
				430.6,381.49 			"/>
			<line class="st3" x1="427.06" y1="368.16" x2="430.52" y2="391.46"/>
			<line class="st3" x1="418.4" y1="372.94" x2="437.97" y2="386.69"/>
			<g>
				<line class="st3" x1="418.16" y1="374.48" x2="421.5" y2="375.21"/>
				<line class="st3" x1="420.11" y1="372.07" x2="421.57" y2="375.08"/>
			</g>
			<g>
				<line class="st4" x1="425.74" y1="369.22" x2="427.54" y2="372.03"/>
				<line class="st4" x1="428.81" y1="368.86" x2="427.68" y2="372"/>
			</g>
			<g>
				<line class="st3" x1="434.73" y1="370.7" x2="433.8" y2="373.91"/>
				<line class="st3" x1="437.09" y1="372.73" x2="433.92" y2="373.99"/>
			</g>
			<g>
				<line class="st3" x1="439.4" y1="377.98" x2="436.4" y2="379.57"/>
				<line class="st3" x1="439.55" y1="381.05" x2="436.42" y2="379.71"/>
			</g>
			<g>
				<line class="st3" x1="438.09" y1="385.07" x2="434.77" y2="384.28"/>
				<line class="st3" x1="436.09" y1="387.44" x2="434.69" y2="384.4"/>
			</g>
			<g>
				<line class="st3" x1="432.09" y1="390.2" x2="430.09" y2="387.5"/>
				<line class="st3" x1="429" y1="390.75" x2="429.95" y2="387.54"/>
			</g>
			<g>
				<line class="st3" x1="423.16" y1="389.32" x2="423.93" y2="386.07"/>
				<line class="st3" x1="420.71" y1="387.39" x2="423.81" y2="386"/>
			</g>
			<g>
				<line class="st3" x1="417.46" y1="383.26" x2="420.31" y2="381.42"/>
				<line class="st3" x1="417.03" y1="380.22" x2="420.27" y2="381.28"/>
			</g>
			<line class="st3" x1="440.47" y1="379.12" x2="416.51" y2="381.7"/>
			<line class="st3" x1="436.38" y1="370.96" x2="421.2" y2="389.26"/>
		</g>
		<g>
			<polygon class="st1" points="356.99,470.11 352.26,466.45 348.71,471.22 348.23,465.51 342.1,466.62 346.16,462.21 
				341.04,459.02 347.25,458.49 346.14,452.86 350.87,456.52 354.41,451.75 354.89,457.46 361.02,456.34 356.97,460.76 
				362.09,463.95 355.88,464.48 			"/>
			<polygon class="st2" points="354.03,465.34 351.97,463.66 350.44,465.82 350.22,463.22 347.57,463.71 349.31,461.71 
				347.08,460.24 349.77,460.02 349.27,457.45 351.33,459.13 352.85,456.97 353.08,459.57 355.73,459.08 353.99,461.08 
				356.22,462.55 353.53,462.78 			"/>
			<line class="st3" x1="349.99" y1="449.45" x2="353.45" y2="472.75"/>
			<line class="st3" x1="341.33" y1="454.22" x2="360.9" y2="467.97"/>
			<g>
				<line class="st3" x1="341.09" y1="455.77" x2="344.43" y2="456.49"/>
				<line class="st3" x1="343.04" y1="453.35" x2="344.5" y2="456.37"/>
			</g>
			<g>
				<line class="st4" x1="348.67" y1="450.51" x2="350.47" y2="453.32"/>
				<line class="st4" x1="351.74" y1="450.14" x2="350.61" y2="453.28"/>
			</g>
			<g>
				<line class="st3" x1="357.66" y1="451.98" x2="356.73" y2="455.19"/>
				<line class="st3" x1="360.02" y1="454.01" x2="356.85" y2="455.27"/>
			</g>
			<g>
				<line class="st3" x1="362.33" y1="459.27" x2="359.33" y2="460.86"/>
				<line class="st3" x1="362.48" y1="462.33" x2="359.35" y2="461"/>
			</g>
			<g>
				<line class="st3" x1="361.02" y1="466.35" x2="357.7" y2="465.56"/>
				<line class="st3" x1="359.02" y1="468.73" x2="357.62" y2="465.68"/>
			</g>
			<g>
				<line class="st3" x1="355.02" y1="471.49" x2="353.02" y2="468.79"/>
				<line class="st3" x1="351.93" y1="472.03" x2="352.88" y2="468.83"/>
			</g>
			<g>
				<line class="st3" x1="346.09" y1="470.6" x2="346.86" y2="467.35"/>
				<line class="st3" x1="343.64" y1="468.68" x2="346.74" y2="467.28"/>
			</g>
			<g>
				<line class="st3" x1="340.39" y1="464.55" x2="343.24" y2="462.7"/>
				<line class="st3" x1="339.96" y1="461.51" x2="343.2" y2="462.57"/>
			</g>
			<line class="st3" x1="363.4" y1="460.4" x2="339.44" y2="462.99"/>
			<line class="st3" x1="359.31" y1="452.25" x2="344.14" y2="470.54"/>
		</g>
		<g>
			<polygon class="st1" points="318.01,470.11 313.28,466.45 309.73,471.22 309.25,465.51 303.13,466.62 307.18,462.21 
				302.06,459.02 308.27,458.49 307.16,452.86 311.89,456.52 315.44,451.75 315.92,457.46 322.04,456.34 317.99,460.76 
				323.11,463.95 316.9,464.48 			"/>
			<polygon class="st2" points="315.05,465.34 312.99,463.66 311.47,465.82 311.24,463.22 308.59,463.71 310.33,461.71 
				308.1,460.24 310.79,460.02 310.29,457.45 312.35,459.13 313.87,456.97 314.1,459.57 316.75,459.08 315.01,461.08 317.24,462.55 
				314.55,462.78 			"/>
			<line class="st3" x1="311.01" y1="449.45" x2="314.48" y2="472.75"/>
			<line class="st3" x1="302.35" y1="454.22" x2="321.92" y2="467.97"/>
			<g>
				<line class="st3" x1="302.12" y1="455.77" x2="305.45" y2="456.49"/>
				<line class="st3" x1="304.06" y1="453.35" x2="305.52" y2="456.37"/>
			</g>
			<g>
				<line class="st4" x1="309.69" y1="450.51" x2="311.49" y2="453.32"/>
				<line class="st4" x1="312.76" y1="450.14" x2="311.63" y2="453.28"/>
			</g>
			<g>
				<line class="st3" x1="318.68" y1="451.98" x2="317.75" y2="455.19"/>
				<line class="st3" x1="321.04" y1="454.01" x2="317.87" y2="455.27"/>
			</g>
			<g>
				<line class="st3" x1="323.35" y1="459.27" x2="320.35" y2="460.86"/>
				<line class="st3" x1="323.5" y1="462.33" x2="320.37" y2="461"/>
			</g>
			<g>
				<line class="st3" x1="322.04" y1="466.35" x2="318.72" y2="465.56"/>
				<line class="st3" x1="320.04" y1="468.73" x2="318.64" y2="465.68"/>
			</g>
			<g>
				<line class="st3" x1="316.04" y1="471.49" x2="314.04" y2="468.79"/>
				<line class="st3" x1="312.95" y1="472.03" x2="313.9" y2="468.83"/>
			</g>
			<g>
				<line class="st3" x1="307.11" y1="470.6" x2="307.88" y2="467.35"/>
				<line class="st3" x1="304.66" y1="468.68" x2="307.76" y2="467.28"/>
			</g>
			<g>
				<line class="st3" x1="301.41" y1="464.55" x2="304.26" y2="462.7"/>
				<line class="st3" x1="300.98" y1="461.51" x2="304.22" y2="462.57"/>
			</g>
			<line class="st3" x1="324.42" y1="460.4" x2="300.46" y2="462.99"/>
			<line class="st3" x1="320.33" y1="452.25" x2="305.16" y2="470.54"/>
		</g>
	</g>
	<rect x="295.87" y="394.78" class="st5" width="222" height="15.54"/>
	<rect x="445.89" y="365.18" class="st5" width="17.43" height="111"/>
	<g>
		<path class="st6" d="M449.05,404.35l-19.35-3.85c-4.97-0.99-6.99-7-3.62-10.78l12.73-14.32c3.3-3.71,9.36-2.55,11.06,2.11
			l6.62,18.17C458.23,400.48,454.06,405.34,449.05,404.35z"/>
		<path class="st6" d="M461.72,404.35l19.35-3.85c4.97-0.99,6.99-7,3.62-10.78l-12.73-14.32c-3.3-3.71-9.36-2.55-11.06,2.11
			l-6.62,18.17C452.54,400.48,456.71,405.34,461.72,404.35z"/>
		<path class="st7" d="M449.05,401.57l-19.35,3.85c-4.97,0.99-6.99,7-3.62,10.78l12.73,14.32c3.3,3.71,9.36,2.55,11.06-2.11
			l6.62-18.17C458.23,405.44,454.06,400.57,449.05,401.57z"/>
		<path class="st6" d="M461.72,401.57l19.35,3.85c4.97,0.99,6.99,7,3.62,10.78l-12.73,14.32c-3.3,3.71-9.36,2.55-11.06-2.11
			l-6.62-18.17C452.54,405.44,456.71,400.57,461.72,401.57z"/>
		<g>
			<g>
				<line class="st8" x1="451.58" y1="396.82" x2="447.79" y2="389.23"/>
				<g>
					<path class="st9" d="M452.55,396.26c-1.11-2.22-2.21-4.44-3.32-6.65c-0.16-0.31-0.31-0.63-0.47-0.94
						c-0.27-0.54-1.04-0.69-1.54-0.4c-0.55,0.32-0.67,0.99-0.4,1.54c1.11,2.22,2.21,4.44,3.32,6.65c0.16,0.31,0.31,0.63,0.47,0.94
						c0.27,0.54,1.04,0.69,1.54,0.4C452.7,397.47,452.82,396.8,452.55,396.26L452.55,396.26z"/>
				</g>
			</g>
			<g>
				<line class="st8" x1="450.05" y1="398" x2="442.25" y2="390.38"/>
				<g>
					<path class="st9" d="M450.84,397.21c-2.28-2.23-4.56-4.46-6.84-6.68c-0.32-0.31-0.64-0.62-0.96-0.94
						c-0.43-0.42-1.16-0.43-1.59,0c-0.43,0.43-0.44,1.16,0,1.59c2.28,2.23,4.56,4.46,6.84,6.68c0.32,0.31,0.64,0.62,0.96,0.94
						c0.43,0.42,1.16,0.43,1.59,0C451.27,398.37,451.28,397.63,450.84,397.21L450.84,397.21z"/>
				</g>
			</g>
			<g>
				<line class="st8" x1="449.07" y1="399.71" x2="440.97" y2="396.63"/>
				<g>
					<path class="st9" d="M449.37,398.63c-2.36-0.9-4.73-1.8-7.09-2.7c-0.34-0.13-0.67-0.26-1.01-0.38
						c-0.57-0.22-1.23,0.24-1.38,0.78c-0.17,0.63,0.22,1.17,0.78,1.38c2.36,0.9,4.73,1.8,7.09,2.7c0.34,0.13,0.67,0.26,1.01,0.38
						c0.57,0.22,1.23-0.24,1.38-0.78C450.33,399.38,449.94,398.84,449.37,398.63L449.37,398.63z"/>
				</g>
			</g>
		</g>
		<g>
			<g>
				<line class="st8" x1="458.39" y1="397.56" x2="462.18" y2="389.97"/>
				<g>
					<path class="st9" d="M459.36,398.13c1.11-2.22,2.21-4.44,3.32-6.65c0.16-0.31,0.31-0.63,0.47-0.94
						c0.27-0.54,0.14-1.22-0.4-1.54c-0.5-0.29-1.26-0.14-1.54,0.4c-1.11,2.22-2.21,4.44-3.32,6.65c-0.16,0.31-0.31,0.63-0.47,0.94
						c-0.27,0.54-0.14,1.22,0.4,1.54C458.32,398.83,459.09,398.68,459.36,398.13L459.36,398.13z"/>
				</g>
			</g>
			<g>
				<line class="st8" x1="459.92" y1="398.74" x2="467.72" y2="391.12"/>
				<g>
					<path class="st9" d="M460.71,399.54c2.28-2.23,4.56-4.46,6.84-6.68c0.32-0.31,0.64-0.62,0.96-0.94c0.43-0.42,0.43-1.16,0-1.59
						c-0.43-0.43-1.15-0.43-1.59,0c-2.28,2.23-4.56,4.46-6.84,6.68c-0.32,0.31-0.64,0.62-0.96,0.94c-0.43,0.42-0.43,1.16,0,1.59
						C459.56,399.97,460.28,399.96,460.71,399.54L460.71,399.54z"/>
				</g>
			</g>
			<g>
				<line class="st8" x1="460.9" y1="400.45" x2="469" y2="397.37"/>
				<g>
					<path class="st9" d="M461.2,401.53c2.36-0.9,4.73-1.8,7.09-2.7c0.34-0.13,0.67-0.26,1.01-0.38c0.57-0.22,0.96-0.76,0.78-1.38
						c-0.15-0.54-0.81-1-1.38-0.78c-2.36,0.9-4.73,1.8-7.09,2.7c-0.34,0.13-0.67,0.26-1.01,0.38c-0.57,0.22-0.96,0.76-0.78,1.38
						C459.97,401.29,460.63,401.75,461.2,401.53L461.2,401.53z"/>
				</g>
			</g>
		</g>
		<g>
			<g>
				<line class="st8" x1="451.58" y1="407.65" x2="447.79" y2="415.25"/>
				<g>
					<path class="st9" d="M450.61,407.09c-1.11,2.22-2.21,4.44-3.32,6.65c-0.16,0.31-0.31,0.63-0.47,0.94
						c-0.27,0.54-0.14,1.22,0.4,1.54c0.5,0.29,1.26,0.14,1.54-0.4c1.11-2.22,2.21-4.44,3.32-6.65c0.16-0.31,0.31-0.63,0.47-0.94
						c0.27-0.54,0.14-1.22-0.4-1.54C451.64,406.39,450.88,406.54,450.61,407.09L450.61,407.09z"/>
				</g>
			</g>
			<g>
				<line class="st8" x1="450.05" y1="406.48" x2="442.25" y2="414.1"/>
				<g>
					<path class="st9" d="M449.26,405.68c-2.28,2.23-4.56,4.46-6.84,6.68c-0.32,0.31-0.64,0.62-0.96,0.94
						c-0.43,0.42-0.43,1.16,0,1.59c0.43,0.43,1.15,0.43,1.59,0c2.28-2.23,4.56-4.46,6.84-6.68c0.32-0.31,0.64-0.62,0.96-0.94
						c0.43-0.42,0.43-1.16,0-1.59C450.41,405.25,449.69,405.26,449.26,405.68L449.26,405.68z"/>
				</g>
			</g>
			<g>
				<line class="st8" x1="449.07" y1="404.77" x2="440.97" y2="407.85"/>
				<g>
					<path class="st9" d="M448.77,403.69c-2.36,0.9-4.73,1.8-7.09,2.7c-0.34,0.13-0.67,0.26-1.01,0.38
						c-0.57,0.22-0.96,0.76-0.78,1.38c0.15,0.54,0.81,1,1.38,0.78c2.36-0.9,4.73-1.8,7.09-2.7c0.34-0.13,0.67-0.26,1.01-0.38
						c0.57-0.22,0.96-0.76,0.78-1.38C450,403.93,449.34,403.47,448.77,403.69L448.77,403.69z"/>
				</g>
			</g>
		</g>
		<g>
			<g>
				<line class="st8" x1="458.39" y1="406.91" x2="462.18" y2="414.51"/>
				<g>
					<path class="st9" d="M457.42,407.48c1.11,2.22,2.21,4.44,3.32,6.65c0.16,0.31,0.31,0.63,0.47,0.94
						c0.27,0.54,1.04,0.69,1.54,0.4c0.55-0.32,0.67-0.99,0.4-1.54c-1.11-2.22-2.21-4.44-3.32-6.65c-0.16-0.31-0.31-0.63-0.47-0.94
						c-0.27-0.54-1.04-0.69-1.54-0.4C457.27,406.27,457.15,406.94,457.42,407.48L457.42,407.48z"/>
				</g>
			</g>
			<g>
				<line class="st8" x1="459.92" y1="405.74" x2="467.72" y2="413.36"/>
				<g>
					<path class="st9" d="M459.13,406.53c2.28,2.23,4.56,4.46,6.84,6.68c0.32,0.31,0.64,0.62,0.96,0.94c0.43,0.42,1.16,0.43,1.59,0
						c0.43-0.43,0.44-1.16,0-1.59c-2.28-2.23-4.56-4.46-6.84-6.68c-0.32-0.31-0.64-0.62-0.96-0.94c-0.43-0.42-1.16-0.43-1.59,0
						C458.7,405.37,458.69,406.11,459.13,406.53L459.13,406.53z"/>
				</g>
			</g>
			<g>
				<line class="st8" x1="460.9" y1="404.03" x2="469" y2="407.11"/>
				<g>
					<path class="st9" d="M460.6,405.11c2.36,0.9,4.73,1.8,7.09,2.7c0.34,0.13,0.67,0.26,1.01,0.38c0.57,0.22,1.23-0.24,1.38-0.78
						c0.17-0.63-0.22-1.17-0.78-1.38c-2.36-0.9-4.73-1.8-7.09-2.7c-0.34-0.13-0.67-0.26-1.01-0.38c-0.57-0.22-1.23,0.24-1.38,0.78
						C459.64,404.36,460.03,404.9,460.6,405.11L460.6,405.11z"/>
				</g>
			</g>
		</g>
		<ellipse class="st5" cx="454.98" cy="402.18" rx="6.82" ry="6.66"/>
	</g>
</g>
</svg>
