<?xml version="1.0" encoding="utf-8"?>
<!-- Generator: Adobe Illustrator 23.1.0, SVG Export Plug-In . SVG Version: 6.00 Build 0)  -->
<svg version="1.1" id="Layer_1" xmlns="http://www.w3.org/2000/svg" xmlns:xlink="http://www.w3.org/1999/xlink" x="0px" y="0px"
	 viewBox="0 0 792 792" style="enable-background:new 0 0 792 792;" xml:space="preserve">
<style type="text/css">
	.st0{fill:#094B1A;}
	.st1{fill:none;stroke:#3A6F48;stroke-width:2.4058;stroke-miterlimit:10;}
	.st2{fill:#3A6F47;}
	.st3{fill:none;stroke:#9DB7A3;stroke-width:2.4058;stroke-miterlimit:10;}
	.st4{fill:#7D3834;}
	.st5{fill:#8B4D4A;}
	.st6{fill:#E9EBEA;}
</style>
<g>
	<path class="st0" d="M419.1,511.9c-91.5-67.2-91.5-67.2-221.1-52.9c21.7-108.8-24.3-141.2-110.6-171.6
		c108.6-38.2,66.4-182.7,66.4-182.7s88.2,136.8,167.8,44.9c-39.4,141,93.5,145,93.5,145C382.3,445.9,432.2,521.5,419.1,511.9z"/>
	<path class="st1" d="M421.4,530.1c0,0-129-247-206.6-302.1"/>
	<path class="st0" d="M432.1,563.1c16.4-112.3,16.4-112.3-57.1-220c106.3-31.9,113.3-87.7,99.5-178.2
		c84.7,77.9,192.5-27.2,192.5-27.2S587.6,279.9,706.1,307c-143,31.4-84.1,150.6-84.1,150.6C473,499.6,429.7,579.2,432.1,563.1z"/>
	<path class="st1" d="M425.5,568.1c0,0,157.5-229.9,169.7-324.3"/>
	<path class="st0" d="M479.1,527.1c-113.9,0-113.9,0-210.3-87.9c-47,100.2-103.4,99.1-191.2,72.6c65.2,94.7-54.6,185.9-54.6,185.9
		s152.6-57.9,162.4,62.9C237,624,347,699.2,347,699.2C410.1,558.4,495.4,527.1,479.1,527.1z"/>
	<path class="st1" d="M489.8,539.2c-186.1,17.6-164.4,26.4-357.5,82.9"/>
	<g>
		<path class="st2" d="M447.7,529.8c-46.9-24.5-46.9-24.5-108-9c5-51.4-18.6-63.1-61.2-71c49.8-25,22.6-88.4,22.6-88.4
			s48.8,56.7,82.2,9c-11.8,67.4,51.7,60,51.7,60C426.8,502.1,454.4,533.3,447.7,529.8z"/>
		<path class="st3" d="M434.9,512.7c0,0-39.3-8-89.7-88.6"/>
	</g>
	<g>
		<path class="st2" d="M434.8,533.9c-55.5,5.9-55.5,5.9-107.5-29.9c-17,48.9-44.6,51.3-88.9,43.5c37.3,40.5-15.8,89-15.8,89
			s70.9-34.7,82.8,20.7c17.2-65.9,75.1-36.8,75.1-36.8C403.1,552,442.8,533.1,434.8,533.9z"/>
		<path class="st3" d="M421.4,537.4c0,0-21.7,33.1-117,51"/>
	</g>
	
		<ellipse transform="matrix(0.7935 -0.6086 0.6086 0.7935 -206.7963 398.5085)" class="st4" cx="483.8" cy="504" rx="57.4" ry="55.7"/>
	
		<ellipse transform="matrix(0.7935 -0.6086 0.6086 0.7935 -242.1501 363.8731)" class="st4" cx="415.1" cy="538.7" rx="42.7" ry="41.5"/>
	
		<ellipse transform="matrix(0.7935 -0.6086 0.6086 0.7935 -253.7418 403.7787)" class="st5" cx="468.1" cy="575.8" rx="42.7" ry="41.5"/>
	
		<ellipse transform="matrix(0.7935 -0.6086 0.6086 0.7935 -186.2922 398.0958)" class="st6" cx="493.4" cy="473.5" rx="17.1" ry="16.6"/>
	
		<ellipse transform="matrix(0.7935 -0.6086 0.6086 0.7935 -228.9239 366.6785)" class="st6" cx="425.8" cy="520.6" rx="13.4" ry="13"/>
	
		<ellipse transform="matrix(0.7935 -0.6086 0.6086 0.7935 -239.2999 404.6108)" class="st6" cx="476.5" cy="554.9" rx="13.4" ry="13"/>
</g>
</svg>
