<?xml version="1.0" encoding="utf-8"?>
<!-- Generator: Adobe Illustrator 23.1.0, SVG Export Plug-In . SVG Version: 6.00 Build 0)  -->
<svg version="1.1" id="Layer_1" xmlns="http://www.w3.org/2000/svg" xmlns:xlink="http://www.w3.org/1999/xlink" x="0px" y="0px"
	 viewBox="0 0 792 792" style="enable-background:new 0 0 792 792;" xml:space="preserve">
<style type="text/css">
	.st0{fill:#094B1A;}
	.st1{fill:none;stroke:#3A6F48;stroke-width:0.6545;stroke-miterlimit:10;}
	.st2{fill:#3A6F47;}
	.st3{fill:none;stroke:#9DB7A3;stroke-width:0.6545;stroke-miterlimit:10;}
	.st4{fill:#7D3834;}
	.st5{fill:#8B4D4A;}
	.st6{fill:#E9EBEA;}
</style>
<g>
	<g>
		<path class="st0" d="M403.72,403.17c-22.13,21.53-22.13,21.53-24.1,56.95c-28.23-10.71-38.98,0.18-50.99,21.98
			c-5.38-30.84-46.05-26.01-46.05-26.01s40.67-17.53,19.57-43.01c36.07,16.9,43.1-18.58,43.1-18.58
			C384.36,410.1,406.89,400.08,403.72,403.17z"/>
		<path class="st1" d="M394.57,406.82c0,0-72.07,23.54-90.33,41.91"/>
	</g>
	<g>
		<path class="st0" d="M386.47,402.29c24.59,18.85,24.59,18.85,30.83,53.8c26.73-13.86,38.73-4.27,53.3,16
			c1.61-31.24,42.58-31.09,42.58-31.09s-42.52-12.76-24.65-40.47C454.76,421.44,443.48,387,443.48,387
			C406.54,406.96,382.95,399.58,386.47,402.29z"/>
		<path class="st1" d="M489.41,434.15c-51.24-19.3-45.16-21.23-95.28-29.86"/>
	</g>
	<g>
		<path class="st2" d="M393.7,406.89c6.07,13.05,6.07,13.05,21.82,19.81c-9.58,10.27-6.44,16.69,1.45,25.46
			c-14.9-2.85-19.51,15.33-19.51,15.33s-1.15-20.31-16.25-15.55c13.71-12.59-1.22-21.52-1.22-21.52
			C393.61,416.32,392.83,405.02,393.7,406.89z"/>
		<path class="st3" d="M393.63,412.71c0,0,7.16,8.22,4.7,33.97"/>
	</g>
	<g>
		<path class="st2" d="M391.63,415.66c13.08-7.7,13.08-7.7,30-4.69c-1.28-14.02,5.28-17.71,17.13-20.78
			c-13.79-5.85-6.1-23.82-6.1-23.82s-13.67,16.57-22.84,4.17c3.15,18.27-14.48,17.56-14.48,17.56
			C397.47,407.61,389.75,416.76,391.63,415.66z"/>
		<path class="st3" d="M394.57,413.27c0,0,1.66-10.64,23.25-25.79"/>
	</g>
	<ellipse class="st4" cx="381.62" cy="406.5" rx="15.61" ry="15.15"/>
	<ellipse class="st4" cx="402.21" cy="410.37" rx="11.62" ry="11.28"/>
	<ellipse class="st5" cx="396.9" cy="393.6" rx="11.62" ry="11.28"/>
	<ellipse class="st6" cx="394.24" cy="390.38" rx="4.32" ry="4.19"/>
	<ellipse class="st6" cx="375.31" cy="404.24" rx="4.65" ry="4.51"/>
	<ellipse class="st6" cx="398.23" cy="411.01" rx="3.65" ry="3.55"/>
</g>
</svg>
