<?xml version="1.0" encoding="utf-8"?>
<!-- Generator: Adobe Illustrator 23.1.0, SVG Export Plug-In . SVG Version: 6.00 Build 0)  -->
<svg version="1.1" id="Layer_1" xmlns="http://www.w3.org/2000/svg" xmlns:xlink="http://www.w3.org/1999/xlink" x="0px" y="0px"
	 viewBox="0 0 792 792" style="enable-background:new 0 0 792 792;" xml:space="preserve">
<style type="text/css">
	.st0{fill:#7D3834;}
	.st1{fill:#505060;}
	.st2{fill:#C3A4A2;}
	.st3{fill:none;}
	.st4{fill:none;stroke:#031709;stroke-width:4.4207;stroke-miterlimit:10;}
	.st5{clip-path:url(#SVGID_2_);}
	.st6{clip-path:url(#SVGID_4_);}
	.st7{clip-path:url(#SVGID_6_);}
	.st8{fill:none;stroke:#031709;stroke-width:4.4203;stroke-miterlimit:10;}
	.st9{fill:#E9EBEA;}
</style>
<g>
	<circle class="st0" cx="385.5" cy="492.5" r="267.5"/>
	<path class="st1" d="M333.2,113.7c3.1-11.8,3.2-24.5-0.5-37c-10.8-36.2-49-56.9-85.3-46.1c-36.2,10.8-56.9,49-46.1,85.3
		c3.9,13.2,11.5,24.3,21.4,32.6c-7.3,7.8-10.5,19.2-7.2,30.2l21.4,71.7c4.9,16.4,22.2,25.8,38.7,20.9l84.4-25.2
		c16.4-4.9,25.8-22.2,20.9-38.7l-21.4-71.7C355.8,123.4,345.2,115.1,333.2,113.7z M214.1,112.1c-8.8-29.2,7.9-60,37.1-68.7
		c29.2-8.8,60,7.9,68.7,37.1c3.6,11.9,2.8,24.1-1.2,35l-82.4,24.6c-0.7,0.2-1.4,0.5-2.1,0.8C224.9,133.9,217.6,124.1,214.1,112.1z"
		/>
	<path class="st2" d="M643.9,423.1l-57,77l-101.4-20.5l-87.8,77l-110.9-31.5l-72,86.1c0,0-78.4-21.3-78.8-22.1
		c-11.4-20.2-14.6-55-14.6-55l78.2,7.9l72-72.2l109.7,31.8l77.7-87.8l107.4,27.9L622,365C628.7,372.2,645.6,413.3,643.9,423.1z"/>
	<line class="st3" x1="246" y1="141.8" x2="285.2" y2="273.1"/>
	<line class="st4" x1="232" y1="141.4" x2="271.2" y2="272.7"/>
	<line class="st4" x1="248.9" y1="136.3" x2="288.2" y2="267.6"/>
	<line class="st4" x1="289.2" y1="124.3" x2="328.4" y2="255.6"/>
	<line class="st4" x1="306.1" y1="119.2" x2="345.4" y2="250.6"/>
	<g>
		<g>
			<g>
				<defs>
					<line id="SVGID_1_" x1="342.6" y1="117.6" x2="376.7" y2="231.9"/>
				</defs>
				<clipPath id="SVGID_2_">
					<use xlink:href="#SVGID_1_"  style="overflow:visible;"/>
				</clipPath>
				<g class="st5">
					<g>
						<g>
							<defs>
								<rect id="SVGID_3_" x="320.5" y="95.5" width="78.4" height="158.6"/>
							</defs>
							<clipPath id="SVGID_4_">
								<use xlink:href="#SVGID_3_"  style="overflow:visible;"/>
							</clipPath>
							<g class="st6">
								<g>
									<defs>
										<rect id="SVGID_5_" x="320.5" y="95.5" width="78.4" height="158.6"/>
									</defs>
									<clipPath id="SVGID_6_">
										<use xlink:href="#SVGID_5_"  style="overflow:visible;"/>
									</clipPath>
									<g class="st7">
										
											<image style="overflow:visible;enable-background:new    ;" width="40" height="79" xlink:href="3FC5C4A5.jpeg"  transform="matrix(2.0158 0 0 2.0158 318.7444 94.5863)">
										</image>
									</g>
								</g>
							</g>
						</g>
					</g>
				</g>
			</g>
		</g>
		<line class="st8" x1="342.6" y1="117.6" x2="376.7" y2="231.9"/>
		<line class="st3" x1="342.6" y1="117.6" x2="376.7" y2="231.9"/>
	</g>
	<line class="st4" x1="323.1" y1="114.2" x2="362.3" y2="245.5"/>
	<line class="st4" x1="219.7" y1="154.3" x2="253.9" y2="268.6"/>
	<line class="st4" x1="270.2" y1="130" x2="309.4" y2="261.3"/>
	<circle class="st9" cx="367.6" cy="457" r="15.5"/>
	<circle class="st9" cx="553.3" cy="404" r="15.5"/>
	<circle class="st9" cx="495.8" cy="518.9" r="15.5"/>
	<circle class="st9" cx="301.3" cy="563.1" r="15.5"/>
	<path class="st9" d="M158.8,634.6c2-2.7,3.3-6,3.3-9.5c0-8.5-4.4-15.5-13.3-15.5c-0.5,0-3.7-0.4-3.8,0.1
		C144.3,614,157.6,636.1,158.8,634.6z"/>
	<circle class="st9" cx="186.3" cy="510.1" r="15.5"/>
	<path class="st9" d="M635,457c0,8.5,6.9,15.6,15.5,15.5c0.6,0,1.6,0.3,1.6-0.2c0.6-8.7-3.3-30.7-4.1-30.5
		C641.9,443.3,635,449.5,635,457z"/>
</g>
</svg>
