<?xml version="1.0" encoding="utf-8"?>
<!-- Generator: Adobe Illustrator 23.1.0, SVG Export Plug-In . SVG Version: 6.00 Build 0)  -->
<svg version="1.1" id="Layer_1" xmlns="http://www.w3.org/2000/svg" xmlns:xlink="http://www.w3.org/1999/xlink" x="0px" y="0px"
	 viewBox="0 0 792 792" style="enable-background:new 0 0 792 792;" xml:space="preserve">
<style type="text/css">
	.st0{fill:#094B1A;}
	.st1{fill:#505060;}
	.st2{fill:none;}
	.st3{fill:none;stroke:#031709;stroke-width:4.5189;stroke-miterlimit:10;}
	.st4{clip-path:url(#SVGID_2_);}
	.st5{clip-path:url(#SVGID_4_);}
	.st6{clip-path:url(#SVGID_6_);}
	.st7{fill:none;stroke:#031709;stroke-width:4.5184;stroke-miterlimit:10;}
	.st8{fill:#E9EBEA;}
	.st9{fill:none;stroke:#094B1A;stroke-width:2.7904;stroke-miterlimit:10;}
	.st10{fill:none;stroke:#094B1A;stroke-width:2.8844;stroke-miterlimit:10;}
</style>
<g>
	<circle class="st0" cx="412.5" cy="503.6" r="273.4"/>
	<g>
		<path class="st1" d="M470.2,124.7c6.7-10.5,10.8-22.9,11-36.2c0.8-38.7-30-70.7-68.6-71.4c-38.7-0.8-70.7,30-71.4,68.6
			c-0.3,14.1,3.7,27.2,10.6,38.4c-9.6,5.3-16.2,15.4-16.4,27.2l-1.5,76.5c-0.4,17.5,13.6,32,31.1,32.4l90.1,1.8
			c17.5,0.4,32-13.6,32.4-31.1l1.5-76.5C489.1,141.1,481.4,129.7,470.2,124.7z M354.7,85.9c0.6-31.2,26.4-56,57.6-55.4
			c31.2,0.6,56,26.4,55.4,57.6c-0.3,12.7-4.7,24.4-12.1,33.7l-87.9-1.8c-0.8,0-1.5,0-2.3,0.1C358.5,110.5,354.4,98.7,354.7,85.9z"/>
		<line class="st2" x1="376.5" y1="124.7" x2="373.7" y2="264.8"/>
		<line class="st3" x1="363" y1="120" x2="360.2" y2="260"/>
		<line class="st3" x1="381.1" y1="120.3" x2="378.3" y2="260.4"/>
		<line class="st3" x1="424" y1="121.2" x2="421.2" y2="261.3"/>
		<line class="st3" x1="442.1" y1="121.5" x2="439.3" y2="261.6"/>
		<g>
			<g>
				<g>
					<defs>
						<line id="SVGID_1_" x1="478.1" y1="131.3" x2="475.6" y2="253.3"/>
					</defs>
					<clipPath id="SVGID_2_">
						<use xlink:href="#SVGID_1_"  style="overflow:visible;"/>
					</clipPath>
					<g class="st4">
						<g>
							<g>
								<defs>
									<rect id="SVGID_3_" x="453" y="108.7" width="47.6" height="167.2"/>
								</defs>
								<clipPath id="SVGID_4_">
									<use xlink:href="#SVGID_3_"  style="overflow:visible;"/>
								</clipPath>
								<g class="st5">
									<g>
										<defs>
											<rect id="SVGID_5_" x="453" y="108.7" width="47.6" height="167.2"/>
										</defs>
										<clipPath id="SVGID_6_">
											<use xlink:href="#SVGID_5_"  style="overflow:visible;"/>
										</clipPath>
										<g class="st6">
											
												<image style="overflow:visible;enable-background:new    ;" width="25" height="79" xlink:href="CBA91C13.jpeg"  transform="matrix(1.9955 0 0 1.9955 451.2816 113.6134)">
											</image>
										</g>
									</g>
								</g>
							</g>
						</g>
					</g>
				</g>
			</g>
			<line class="st7" x1="478.1" y1="131.3" x2="475.6" y2="253.3"/>
			<line class="st2" x1="478.1" y1="131.3" x2="475.6" y2="253.3"/>
		</g>
		<line class="st3" x1="460.2" y1="121.9" x2="457.4" y2="262"/>
		<line class="st3" x1="347" y1="128.7" x2="344.6" y2="250.7"/>
		<line class="st3" x1="403.7" y1="120.8" x2="400.9" y2="260.9"/>
	</g>
	<polygon class="st8" points="416.3,631.9 370.3,548.2 287.8,500.1 369.2,458.5 412.9,378.3 458.8,462 541.3,510.1 460,551.7 	"/>
	<path class="st8" d="M156.8,600.1c-36.2-81.4-18.1-167.3,0-190c0,0.1,33.6,61.4,33.6,61.4l61.4,33.6l-61.4,33.6
		C190.4,538.7,156.8,600,156.8,600.1z"/>
	<path class="st8" d="M671.9,586.5l-36.6-59.9l-62.8-30.9l59.9-36.2c0,0,30.7-63.1,30.9-62.8C712.6,473.5,681,572.9,671.9,586.5z"/>
	<g>
		<g>
			<line class="st9" x1="451.5" y1="469.1" x2="374.7" y2="536.5"/>
			<line class="st9" x1="380.6" y1="469.2" x2="448.5" y2="539.3"/>
		</g>
		<line class="st10" x1="468.6" y1="502" x2="360.1" y2="502"/>
		<line class="st10" x1="412.9" y1="450.9" x2="412.9" y2="550.3"/>
	</g>
	<line class="st9" x1="687.8" y1="498.4" x2="650.4" y2="531.9"/>
	<line class="st9" x1="656.3" y1="464.7" x2="687.8" y2="498.4"/>
	<line class="st10" x1="687.8" y1="498.4" x2="635.8" y2="497.5"/>
	<line class="st9" x1="175.8" y1="473.6" x2="136.5" y2="507.4"/>
	<line class="st9" x1="136.5" y1="507.4" x2="172.8" y2="543.8"/>
	<line class="st10" x1="192.9" y1="506.5" x2="136.5" y2="507.4"/>
</g>
</svg>
