<?xml version="1.0" encoding="utf-8"?>
<!-- Generator: Adobe Illustrator 23.1.0, SVG Export Plug-In . SVG Version: 6.00 Build 0)  -->
<svg version="1.1" id="Layer_1" xmlns="http://www.w3.org/2000/svg" xmlns:xlink="http://www.w3.org/1999/xlink" x="0px" y="0px"
	 viewBox="0 0 792 792" style="enable-background:new 0 0 792 792;" xml:space="preserve">
<style type="text/css">
	.st0{fill:#031709;}
	.st1{fill:#505060;}
	.st2{fill:none;}
	.st3{fill:none;stroke:#031709;stroke-width:4.4402;stroke-miterlimit:10;}
	.st4{clip-path:url(#SVGID_2_);}
	.st5{clip-path:url(#SVGID_4_);}
	.st6{clip-path:url(#SVGID_6_);}
	.st7{fill:none;stroke:#031709;stroke-width:4.4398;stroke-miterlimit:10;}
	.st8{fill:#E9EBEA;}
</style>
<g>
	<circle class="st0" cx="374.6" cy="485.4" r="268.6"/>
	<g>
		<path class="st1" d="M524.3,138.6c8.8-8.4,15.6-19.3,19-32c9.8-36.7-12.1-74.4-48.8-84.2s-74.4,12.1-84.2,48.8
			c-3.6,13.4-2.9,26.9,1.2,39.1c-10.4,2.8-19,10.9-22,22.1l-19.4,72.7c-4.4,16.7,5.5,33.8,22.2,38.2l85.6,22.8
			c16.7,4.4,33.8-5.5,38.2-22.2l19.4-72.7C538.6,158.7,533.9,146,524.3,138.6z M423.1,74.6C431,45,461.4,27.4,491,35.3
			c29.6,7.9,47.2,38.3,39.3,67.9c-3.2,12.1-10.2,22.1-19.4,29.3l-83.5-22.2c-0.7-0.2-1.4-0.3-2.2-0.4C421,99,419.9,86.8,423.1,74.6z
			"/>
		<line class="st2" x1="434.8" y1="116.8" x2="399.5" y2="249.8"/>
		<line class="st3" x1="423.1" y1="109.1" x2="387.7" y2="242.1"/>
		<line class="st3" x1="440.3" y1="113.6" x2="404.9" y2="246.7"/>
		<line class="st3" x1="481.1" y1="124.5" x2="445.6" y2="257.5"/>
		<line class="st3" x1="498.2" y1="129" x2="462.8" y2="262.1"/>
		<g>
			<g>
				<g>
					<defs>
						<line id="SVGID_1_" x1="530.3" y1="146.8" x2="499.4" y2="262.6"/>
					</defs>
					<clipPath id="SVGID_2_">
						<use xlink:href="#SVGID_1_"  style="overflow:visible;"/>
					</clipPath>
					<g class="st4">
						<g>
							<g>
								<defs>
									<rect id="SVGID_3_" x="477.2" y="124.6" width="75.3" height="160.2"/>
								</defs>
								<clipPath id="SVGID_4_">
									<use xlink:href="#SVGID_3_"  style="overflow:visible;"/>
								</clipPath>
								<g class="st5">
									<g>
										<defs>
											<rect id="SVGID_5_" x="477.2" y="124.6" width="75.3" height="160.2"/>
										</defs>
										<clipPath id="SVGID_6_">
											<use xlink:href="#SVGID_5_"  style="overflow:visible;"/>
										</clipPath>
										<g class="st6">
											
												<image style="overflow:visible;enable-background:new    ;" width="40" height="79" xlink:href="85B7705A.jpeg"  transform="matrix(1.9182 0 0 1.9182 476.0481 128.9766)">
											</image>
										</g>
									</g>
								</g>
							</g>
						</g>
					</g>
				</g>
			</g>
			<line class="st7" x1="530.3" y1="146.8" x2="499.4" y2="262.6"/>
			<line class="st2" x1="530.3" y1="146.8" x2="499.4" y2="262.6"/>
		</g>
		<line class="st3" x1="515.4" y1="133.6" x2="480" y2="266.6"/>
		<line class="st3" x1="405.8" y1="113.7" x2="375" y2="229.5"/>
		<line class="st3" x1="461.8" y1="119.4" x2="426.4" y2="252.4"/>
	</g>
	<polygon class="st8" points="337.5,506.9 234.9,485.8 338.9,473.7 291.5,380.4 365.8,454.2 409.2,358.9 397.8,463 499.4,437.5 
		410.9,493.5 494.2,557 395.2,522.8 397.5,627.5 362.5,528.7 282.1,595.8 	"/>
	<polygon class="st8" points="530.3,329.2 558.3,343.4 526.9,344.7 512.7,371.6 511,341.2 483.1,327 514.4,325.8 528.6,298.8 	"/>
	<polygon class="st8" points="581.3,475.5 618.3,494.6 576.7,496.6 557.6,533.5 555.7,492 518.7,472.9 560.2,470.9 579.3,433.9 	"/>
	<polygon class="st8" points="496,652.3 515.8,662.6 493.5,663.6 483.2,683.4 482.3,661 462.5,650.7 484.8,649.7 495.1,629.9 	"/>
	<polygon class="st8" points="409.7,276.6 425.9,287.1 406.6,286.1 396.2,302.3 397.1,283 380.8,272.5 400.2,273.5 410.6,257.3 	"/>
	<polygon class="st8" points="189.7,533.1 209.2,544.8 186.5,545.2 174.8,566.2 175.1,542.2 155.6,530.4 178.4,530.1 190.1,509.1 	
		"/>
	<polygon class="st8" points="336.8,673.8 369.4,691.2 332.5,692.4 315,725.1 313.8,688.1 281.1,670.7 318.1,669.5 335.5,636.8 	"/>
	<polygon class="st8" points="280.6,312.6 316.9,332.9 275.3,333.4 254.9,369.7 254.4,328.1 218.1,307.8 259.7,307.2 280.1,270.9 	
		"/>
	<polygon class="st8" points="174.6,424.8 188.5,432.7 172.5,432.8 164.5,446.7 164.5,430.7 150.6,422.7 166.6,422.6 174.6,408.7 	
		"/>
</g>
</svg>
