<?xml version="1.0" encoding="utf-8"?>
<!-- Generator: Adobe Illustrator 23.1.0, SVG Export Plug-In . SVG Version: 6.00 Build 0)  -->
<svg version="1.1" id="Layer_1" xmlns="http://www.w3.org/2000/svg" xmlns:xlink="http://www.w3.org/1999/xlink" x="0px" y="0px"
	 viewBox="0 0 792 792" style="enable-background:new 0 0 792 792;" xml:space="preserve">
<style type="text/css">
	.st0{fill:#C3A4A2;}
	.st1{fill:#505060;}
	.st2{fill:none;}
	.st3{fill:none;stroke:#031709;stroke-width:4.5156;stroke-miterlimit:10;}
	.st4{clip-path:url(#SVGID_2_);}
	.st5{clip-path:url(#SVGID_4_);}
	.st6{clip-path:url(#SVGID_6_);}
	.st7{fill:none;stroke:#031709;stroke-width:4.5151;stroke-miterlimit:10;}
	.st8{fill:none;stroke:#E9EBEA;stroke-width:10.3398;stroke-miterlimit:10;}
	.st9{fill:none;stroke:#E9EBEA;stroke-width:4.5951;stroke-miterlimit:10;}
	.st10{fill:none;stroke:#E9EBEA;stroke-width:11.289;stroke-miterlimit:10;}
	.st11{fill:none;stroke:#E9EBEA;stroke-width:11.196;stroke-miterlimit:10;}
	.st12{fill:#7D3834;}
</style>
<g>
	<circle class="st0" cx="374.8" cy="492.8" r="273.2"/>
	<g>
		<path class="st1" d="M505.4,130.6c8.5-9.1,14.7-20.5,17.3-33.6c7.7-37.9-16.7-74.8-54.6-82.6c-37.9-7.7-74.8,16.7-82.6,54.6
			c-2.8,13.8-1.3,27.5,3.5,39.6c-10.4,3.5-18.7,12.2-21,23.8l-15.3,74.9c-3.5,17.2,7.6,34,24.7,37.5l88.2,18
			c17.2,3.5,34-7.6,37.5-24.7l15.3-74.9C521.1,150.3,515.5,137.7,505.4,130.6z M398.8,71.8c6.2-30.5,36-50.3,66.6-44
			s50.3,36,44,66.6c-2.5,12.5-9.1,23.1-17.9,30.9l-86.1-17.6c-0.7-0.1-1.5-0.2-2.2-0.3C398.2,96.7,396.3,84.3,398.8,71.8z"/>
		<line class="st2" x1="413.3" y1="113.9" x2="385.3" y2="251"/>
		<line class="st3" x1="400.9" y1="106.8" x2="373" y2="243.9"/>
		<line class="st3" x1="418.6" y1="110.3" x2="390.7" y2="247.5"/>
		<line class="st3" x1="460.7" y1="118.9" x2="432.7" y2="256.1"/>
		<line class="st3" x1="478.4" y1="122.5" x2="450.4" y2="259.7"/>
		<g>
			<g>
				<g>
					<defs>
						<line id="SVGID_1_" x1="511.9" y1="138.6" x2="487.6" y2="258.1"/>
					</defs>
					<clipPath id="SVGID_2_">
						<use xlink:href="#SVGID_1_"  style="overflow:visible;"/>
					</clipPath>
					<g class="st4">
						<g>
							<g>
								<defs>
									<rect id="SVGID_3_" x="465" y="116" width="69.5" height="164.6"/>
								</defs>
								<clipPath id="SVGID_4_">
									<use xlink:href="#SVGID_3_"  style="overflow:visible;"/>
								</clipPath>
								<g class="st5">
									<g>
										<defs>
											<rect id="SVGID_5_" x="465" y="116" width="69.5" height="164.6"/>
										</defs>
										<clipPath id="SVGID_6_">
											<use xlink:href="#SVGID_5_"  style="overflow:visible;"/>
										</clipPath>
										<g class="st6">
											
												<image style="overflow:visible;enable-background:new    ;" width="33" height="79" xlink:href="119AC7C8.jpeg"  transform="matrix(2.1126 0 0 2.1126 464.5379 114.9421)">
											</image>
										</g>
									</g>
								</g>
							</g>
						</g>
					</g>
				</g>
			</g>
			<line class="st7" x1="511.9" y1="138.6" x2="487.6" y2="258.1"/>
			<line class="st2" x1="511.9" y1="138.6" x2="487.6" y2="258.1"/>
		</g>
		<line class="st3" x1="496.1" y1="126.1" x2="468.1" y2="263.3"/>
		<line class="st3" x1="383.6" y1="112.5" x2="359.3" y2="231.9"/>
		<line class="st3" x1="440.7" y1="114.9" x2="412.8" y2="252"/>
	</g>
	<g>
		<polygon class="st8" points="457.3,629.3 387.3,573.9 334.8,646.1 327.7,559.6 237,576.5 297,509.6 221.2,461.4 313.1,453.2 
			296.6,368 366.6,423.4 419.2,351.2 426.3,437.7 517,420.8 457,487.7 532.8,536 440.9,544.1 		"/>
		<polygon class="st9" points="413.5,557.2 382.9,531.7 360.4,564.4 357.1,525 317.8,532.4 343.6,502.1 310.6,479.8 350.4,476.5 
			343,437.5 373.5,463 396,430.3 399.4,469.7 438.6,462.3 412.9,492.6 445.8,514.8 406.1,518.3 		"/>
		<line class="st10" x1="353.7" y1="316.3" x2="405" y2="669.3"/>
		<line class="st10" x1="225.5" y1="388.7" x2="515.1" y2="596.9"/>
		<g>
			<line class="st10" x1="222" y1="412.1" x2="271.4" y2="423"/>
			<line class="st10" x1="250.8" y1="375.5" x2="272.5" y2="421.1"/>
		</g>
		<g>
			<line class="st11" x1="334.2" y1="332.4" x2="360.8" y2="374.9"/>
			<line class="st11" x1="379.6" y1="326.8" x2="362.8" y2="374.4"/>
		</g>
		<g>
			<line class="st10" x1="467.2" y1="354.7" x2="453.5" y2="403.4"/>
			<line class="st10" x1="502.1" y1="385.4" x2="455.2" y2="404.5"/>
		</g>
		<g>
			<line class="st10" x1="536.3" y1="465.1" x2="491.9" y2="489.1"/>
			<line class="st10" x1="538.5" y1="511.5" x2="492.3" y2="491.3"/>
		</g>
		<g>
			<line class="st10" x1="516.9" y1="572.5" x2="467.8" y2="560.4"/>
			<line class="st10" x1="487.3" y1="608.4" x2="466.7" y2="562.3"/>
		</g>
		<g>
			<line class="st10" x1="428.1" y1="650.2" x2="398.5" y2="609.3"/>
			<line class="st10" x1="382.4" y1="658.5" x2="396.5" y2="609.9"/>
		</g>
		<g>
			<line class="st10" x1="295.9" y1="636.8" x2="307.4" y2="587.6"/>
			<line class="st10" x1="259.7" y1="607.7" x2="305.5" y2="586.5"/>
		</g>
		<g>
			<line class="st10" x1="211.7" y1="545.1" x2="253.8" y2="517.1"/>
			<line class="st10" x1="205.3" y1="499" x2="253.2" y2="515.1"/>
		</g>
		<line class="st10" x1="552.1" y1="482.2" x2="197.5" y2="521.4"/>
		<line class="st10" x1="491.6" y1="358.7" x2="267.1" y2="635.9"/>
	</g>
	<circle class="st12" cx="525.7" cy="318.5" r="22.6"/>
	<circle class="st12" cx="561.8" cy="630.1" r="22.6"/>
	<circle class="st12" cx="412.8" cy="724.9" r="22.6"/>
	<circle class="st12" cx="187.1" cy="359.1" r="22.6"/>
	<circle class="st12" cx="232.2" cy="679.8" r="22.6"/>
	<circle class="st12" cx="607" cy="476.6" r="22.6"/>
	<circle class="st12" cx="155.4" cy="544.3" r="22.6"/>
	<circle class="st12" cx="345.1" cy="264.3" r="22.6"/>
</g>
</svg>
