<?xml version="1.0" encoding="utf-8"?>
<!-- Generator: Adobe Illustrator 23.1.0, SVG Export Plug-In . SVG Version: 6.00 Build 0)  -->
<svg version="1.1" id="Layer_1" xmlns="http://www.w3.org/2000/svg" xmlns:xlink="http://www.w3.org/1999/xlink" x="0px" y="0px"
	 viewBox="0 0 733.9 98.3" style="enable-background:new 0 0 733.9 98.3;" xml:space="preserve">
<style type="text/css">
	.st0{fill:#031709;}
	.st1{fill:#FFFFFF;}
</style>
<g>
	<polygon class="st0" points="720.9,75.5 716.7,68.2 712.4,75.5 704.4,75.5 698.7,59.8 695.3,59.8 695.3,53.2 689.2,53.2 
		689.2,59.8 688.3,59.8 679.5,59.8 675.8,52.8 670.4,52.8 670.4,36.2 659.9,17.3 648.5,35.8 648.5,52.8 645,52.8 645,43.2 
		638.9,43.2 638.9,52.8 635.3,52.8 623.2,75.5 623.2,75.5 622.7,75.5 622.7,28.5 622.8,28.5 622.7,28.5 622.7,28.3 622.7,28.3 
		606.6,0.4 590.6,28.3 590.8,64.6 581.2,64.6 581.2,50.2 574.2,37.1 561.8,37.1 549.3,37.1 542.4,49.3 542.3,49.3 542.3,49.4 
		542.3,50.2 542.3,64.6 537.5,64.6 537.5,55 538.1,55 533.2,46.3 528.1,55 528.8,55 528.8,75.1 509.6,75.1 509.6,65 498.2,65 
		498.2,37.9 498.1,37.9 487.3,19.1 476.2,38.1 476.3,38.1 476.3,65 460.2,65 460.2,48.4 454.1,48.4 454.1,41.4 447.9,41.4 
		447.9,48.4 441.5,48.4 434.3,31.5 419.6,31.5 404.8,31.5 400.5,41.6 386.8,17.6 366.3,51.9 366.2,51.9 366.2,52 365.2,53.7 
		366.2,53.7 366.2,75.5 355.2,75.5 350.9,68.2 346.6,75.5 338.7,75.5 332.9,59.8 329.5,59.8 329.5,53.2 323.4,53.2 323.4,59.8 
		322.5,59.8 313.7,59.8 310,52.8 304.6,52.8 304.6,36.2 294.1,17.3 282.8,35.8 282.8,52.8 279.3,52.8 279.3,43.2 273.1,43.2 
		273.1,52.8 269.5,52.8 257.4,75.5 257.4,75.5 257,75.5 257,28.5 257,28.5 257,28.5 257,28.3 256.9,28.3 240.8,0.4 224.8,28.3 
		225.1,64.6 215.5,64.6 215.5,50.2 208.5,37.1 196,37.1 183.6,37.1 176.6,49.3 176.6,49.3 176.6,49.4 176.6,50.2 176.6,64.6 
		171.8,64.6 171.8,55 172.4,55 167.4,46.3 162.3,55 163,55 163,75.1 143.8,75.1 143.8,65 132.4,65 132.4,37.9 132.3,37.9 
		121.5,19.1 110.4,38.1 110.6,38.1 110.6,65 94.4,65 94.4,48.4 88.3,48.4 88.3,41.4 82.2,41.4 82.2,48.4 75.7,48.4 68.5,31.5 
		53.8,31.5 39,31.5 34.8,41.6 21,17.6 0.5,51.9 0.4,51.9 0.4,52 -0.6,53.7 0.4,53.7 0.4,98.7 143.8,98.2 256.5,98.7 367.5,98.7 
		367.5,98.7 509.6,98.2 622.3,98.7 733.3,98.7 733.3,75.5 	"/>
	<rect x="6.6" y="57.6" class="st1" width="7.9" height="11.4"/>
	<rect x="21.4" y="57.2" class="st1" width="7.9" height="11.4"/>
	<rect x="230.3" y="34.9" class="st1" width="7.9" height="11.4"/>
	<rect x="549.3" y="53.2" class="st1" width="7.9" height="11.4"/>
	<rect x="650.3" y="70.7" class="st1" width="7.9" height="4.4"/>
	<rect x="637.6" y="70.7" class="st1" width="7.9" height="4.4"/>
	<rect x="720.2" y="81.6" class="st1" width="7.9" height="4.4"/>
	<rect x="565.9" y="53.2" class="st1" width="7.9" height="11.4"/>
	<rect x="291.9" y="43.2" class="st1" width="5.2" height="7"/>
	<rect x="272.7" y="74.6" class="st1" width="5.2" height="7"/>
	<rect x="597.4" y="36.6" class="st1" width="5.2" height="7"/>
	<rect x="183.6" y="54.5" class="st1" width="5.2" height="7"/>
	<rect x="193.6" y="54.5" class="st1" width="5.2" height="7"/>
	<rect x="60.8" y="53.7" class="st1" width="5.2" height="7"/>
	<rect x="114.9" y="42.7" class="st1" width="5.2" height="7"/>
	<rect x="386.8" y="55.9" class="st1" width="5.2" height="7"/>
	<rect x="406.9" y="55" class="st1" width="5.2" height="7"/>
	<rect x="431.3" y="55" class="st1" width="5.2" height="7"/>
	<rect x="419.1" y="55" class="st1" width="5.2" height="7"/>
	<rect x="124.1" y="54.5" class="st1" width="5.2" height="7"/>
	<rect x="204.4" y="54.9" class="st1" width="5.2" height="7"/>
	<rect x="285.8" y="74.6" class="st1" width="5.2" height="7"/>
	<rect x="165.6" y="58.5" class="st1" width="3.9" height="3.9"/>
	<rect x="358.8" y="80.8" class="st1" width="3.9" height="3.9"/>
	<rect x="482" y="49.7" class="st1" width="3.1" height="2.2"/>
	<rect x="79.5" y="59.8" class="st1" width="3.9" height="3.9"/>
	<rect x="87" y="53.2" class="st1" width="3.9" height="3.9"/>
	<rect x="299.8" y="74.6" class="st1" width="5.2" height="7"/>
	<rect x="482" y="44.1" class="st1" width="3.1" height="2.2"/>
	<rect x="482.2" y="61.5" class="st1" width="2.8" height="2.2"/>
	<rect x="482" y="56.3" class="st1" width="3.1" height="2.2"/>
	<rect x="605.7" y="48.4" class="st1" width="5.2" height="7"/>
	<rect x="605.7" y="61.5" class="st1" width="5.2" height="7"/>
	<rect x="652.9" y="41" class="st1" width="5.2" height="7"/>
	<rect x="660.8" y="41" class="st1" width="5.2" height="7"/>
</g>
</svg>
