<?xml version="1.0" encoding="utf-8"?>
<!-- Generator: Adobe Illustrator 23.1.0, SVG Export Plug-In . SVG Version: 6.00 Build 0)  -->
<svg version="1.1" id="Layer_1" xmlns="http://www.w3.org/2000/svg" xmlns:xlink="http://www.w3.org/1999/xlink" x="0px" y="0px"
	 viewBox="0 0 792 792" style="enable-background:new 0 0 792 792;" xml:space="preserve">
<style type="text/css">
	.st0{fill:#031709;}
	.st1{fill:#FFFFFF;}
</style>
<g>
	<polygon class="st0" points="755.76,304.84 751.54,297.49 747.24,304.84 739.26,304.84 733.53,289.11 730.13,289.11 730.13,282.55 
		724.01,282.55 724.01,289.11 723.13,289.11 714.32,289.11 710.6,282.11 705.22,282.12 705.22,265.51 694.73,246.57 683.37,265.07 
		683.37,282.12 679.87,282.12 679.87,272.5 673.75,272.5 673.75,282.12 670.11,282.11 658.02,304.84 658.02,304.84 657.58,304.84 
		657.58,257.85 657.62,257.85 657.58,257.79 657.58,257.64 657.5,257.64 641.41,229.67 625.44,257.61 625.68,293.91 616.07,293.91 
		616.07,279.49 609.07,266.38 596.62,266.39 584.17,266.38 577.23,278.62 577.17,278.62 577.17,278.72 577.17,279.49 577.17,293.91 
		572.37,293.91 572.37,284.3 572.97,284.3 568,275.64 562.91,284.32 563.63,284.32 563.63,304.4 544.4,304.4 544.4,294.35 
		533.03,294.35 533.03,267.26 532.92,267.26 522.11,248.46 511.01,267.45 511.18,267.45 511.18,294.35 495.01,294.35 495.01,277.74 
		488.9,277.74 488.9,270.75 482.78,270.75 482.78,277.74 476.31,277.74 469.16,260.77 454.41,260.77 439.65,260.77 435.38,270.92 
		421.6,246.96 401.11,281.24 401.06,281.24 401.06,281.33 400.03,283.04 401.06,283.03 401.06,304.84 389.99,304.84 385.76,297.49 
		381.46,304.84 373.49,304.84 367.75,289.11 364.35,289.11 364.35,282.55 358.23,282.55 358.23,289.11 357.36,289.11 348.55,289.11 
		344.82,282.11 339.44,282.12 339.44,265.51 328.95,246.57 317.59,265.07 317.59,282.12 314.09,282.12 314.09,272.5 307.97,272.5 
		307.97,282.12 304.34,282.11 292.24,304.84 292.24,304.84 291.81,304.84 291.81,257.85 291.84,257.85 291.81,257.79 291.81,257.64 
		291.72,257.64 275.64,229.67 259.67,257.61 259.9,293.91 250.29,293.91 250.29,279.49 243.29,266.38 230.84,266.39 218.4,266.38 
		211.45,278.62 211.4,278.62 211.4,278.72 211.4,279.49 211.4,293.91 206.59,293.91 206.59,284.3 207.2,284.3 202.22,275.64 
		197.14,284.32 197.85,284.32 197.85,304.4 178.62,304.4 178.62,294.35 167.26,294.35 167.26,267.26 167.14,267.26 156.33,248.46 
		145.24,267.45 145.41,267.45 145.41,294.35 129.24,294.35 129.24,277.74 123.12,277.74 123.12,270.75 117,270.75 117,277.74 
		110.54,277.74 103.38,260.77 88.63,260.77 73.88,260.77 69.6,270.92 55.82,246.96 35.33,281.24 35.28,281.24 35.28,281.33 
		34.26,283.04 35.28,283.03 35.28,328 178.62,327.56 291.37,328 402.37,328 402.37,328 544.4,327.56 657.14,328 768.14,328 
		768.14,304.84 	"/>
	<rect x="41.4" y="286.92" class="st1" width="7.87" height="11.36"/>
	<rect x="56.26" y="286.48" class="st1" width="7.87" height="11.36"/>
	<rect x="265.15" y="264.2" class="st1" width="7.87" height="11.36"/>
	<rect x="584.16" y="282.55" class="st1" width="7.87" height="11.36"/>
	<rect x="685.11" y="300.03" class="st1" width="7.87" height="4.37"/>
	<rect x="672.44" y="300.03" class="st1" width="7.87" height="4.37"/>
	<rect x="755.03" y="310.96" class="st1" width="7.87" height="4.37"/>
	<rect x="600.77" y="282.55" class="st1" width="7.87" height="11.36"/>
	<rect x="326.77" y="272.5" class="st1" width="5.24" height="6.99"/>
	<rect x="307.54" y="303.96" class="st1" width="5.24" height="6.99"/>
	<rect x="632.24" y="265.94" class="st1" width="5.24" height="6.99"/>
	<rect x="218.39" y="283.86" class="st1" width="5.24" height="6.99"/>
	<rect x="228.44" y="283.86" class="st1" width="5.24" height="6.99"/>
	<rect x="95.59" y="282.99" class="st1" width="5.24" height="6.99"/>
	<rect x="149.78" y="272.06" class="st1" width="5.24" height="6.99"/>
	<rect x="421.6" y="285.17" class="st1" width="5.24" height="6.99"/>
	<rect x="441.7" y="284.3" class="st1" width="5.24" height="6.99"/>
	<rect x="466.17" y="284.3" class="st1" width="5.24" height="6.99"/>
	<rect x="453.94" y="284.3" class="st1" width="5.24" height="6.99"/>
	<rect x="158.96" y="283.86" class="st1" width="5.24" height="6.99"/>
	<rect x="239.26" y="284.17" class="st1" width="5.24" height="6.99"/>
	<rect x="320.65" y="303.96" class="st1" width="5.24" height="6.99"/>
	<rect x="200.47" y="287.8" class="st1" width="3.93" height="3.93"/>
	<rect x="393.63" y="310.08" class="st1" width="3.93" height="3.93"/>
	<rect x="516.87" y="279.06" class="st1" width="3.06" height="2.19"/>
	<rect x="114.38" y="289.11" class="st1" width="3.93" height="3.93"/>
	<rect x="121.81" y="282.55" class="st1" width="3.93" height="3.93"/>
	<rect x="334.63" y="303.96" class="st1" width="5.24" height="6.99"/>
	<rect x="516.87" y="273.37" class="st1" width="3.06" height="2.19"/>
	<rect x="517.08" y="290.83" class="st1" width="2.84" height="2.19"/>
	<rect x="516.87" y="285.61" class="st1" width="3.06" height="2.19"/>
	<rect x="640.54" y="277.74" class="st1" width="5.24" height="6.99"/>
	<rect x="640.54" y="290.85" class="st1" width="5.24" height="6.99"/>
	<rect x="687.74" y="270.31" class="st1" width="5.24" height="6.99"/>
	<rect x="695.6" y="270.31" class="st1" width="5.24" height="6.99"/>
</g>
</svg>
