<?xml version="1.0" encoding="utf-8"?>
<!-- Generator: Adobe Illustrator 23.1.0, SVG Export Plug-In . SVG Version: 6.00 Build 0)  -->
<svg version="1.1" id="Layer_1" xmlns="http://www.w3.org/2000/svg" xmlns:xlink="http://www.w3.org/1999/xlink" x="0px" y="0px"
	 viewBox="0 0 792 792" style="enable-background:new 0 0 792 792;" xml:space="preserve">
<style type="text/css">
	.st0{fill:#031709;stroke:#031709;stroke-width:1.0093;stroke-miterlimit:10;}
	.st1{fill:none;stroke:#031709;stroke-width:4.037;stroke-miterlimit:10;}
</style>
<g>
	<path class="st0" d="M295.1,411.56c-21.92-2.35,14.55,41.12-26.45,42.48c0,0,0,0-12.22-17.35c14.39-11.6,5.04-22.8-0.1-41.98
		c-4.09-17.73,6.33-22.61,13.85-14.69c1.65,3.4-0.46,8.36-5.58,9.16c12.83,9.05,15.05-7.73,14.19-12.7
		c-1.38-7.96-16.72-19.64-35.84,0.06c-2.08,2.14-4.01,4.21-5.86,6.22c-3.31-2.55-7.73-4.28-12.71-4.94
		c-0.82-1.29-1.74-2.47-2.72-3.54c1.12-0.1,2.2-0.42,3.17-1.02c4.04-2.47,4.72-8.48,1.51-13.44c-2.17-3.35-5.55-5.35-8.77-5.53
		c-0.04-0.39-0.08-0.79-0.14-1.18c0,0,0,0,0.01,0c1.88-0.32,3.14-2.05,2.83-3.86c-0.31-1.81-2.09-3.01-3.96-2.68
		c-0.35,0.06-0.67,0.18-0.97,0.33c-1.28-2.34-3.03-4.3-5.05-5.75c0.3-0.33,0.53-0.69,0.7-1.08c0,0,0,0,0,0l0,0
		c0.53-1.26,0.34-2.75-0.64-3.83l-0.68-0.76c-1.39-1.54-3.82-1.69-5.44-0.33l-0.57,0.48c-9.24-4.7-25.1-9.61-34.81,4.86
		c-0.58-0.23-1.24-0.32-1.92-0.2c-1.88,0.32-3.14,2.05-2.83,3.86c0.31,1.81,2.09,3.01,3.96,2.68c1.88-0.32,3.14-2.05,2.83-3.86
		c-0.01-0.03-0.02-0.06-0.02-0.09c5.47,0.14,13.88,1.24,16.06,6.86l-3.08,2.6c-1.61,1.36-1.79,3.71-0.41,5.25l0.68,0.76
		c1.11,1.23,2.87,1.56,4.36,0.97c1.59,6.25,6.09,10.94,11.44,12.4c-4.64,3.95-7.42,10.84-7.21,18.55c-1.11,1.68-1.92,3.46-2.37,5.28
		l-19.1-22.3l9.07-4.35l-27.7-32.34l6.88-3.15l-32.83-38.33l2.8,52.1l7.32-3.35l0.94,20.24c-18.35-3.21-36.34,5.25-36.34,5.25
		c-0.82,1.17,29.26,9.27,34,24.84c4.74,15.57,8,58.02,24.25,57.26c0,0-5.68,20.44-5.51,21.44l-27.02,3.65l6.35,7.09l144.54-22.97
		c30.83-5.34,16.85-38.77,16.85-38.77C297.82,421.33,301.76,414.5,295.1,411.56z M163.24,472.28l4.21-17.12
		c30.08,8.11,80.25-9.79,83.54-14.46l10.71,14.53L163.24,472.28z"/>
	<path class="st0" d="M439.78,381.28c0,0-13.33-3.17-16-2.68c6.15-9.55-12.92-38.74-8.36-40.89c8.76-4.14,14.58-9.15,13.52-12.7
		c-2.38-7.95-3.4,2.95-14.81-5.25c-1.03-0.74-2.55-0.66-4.23-0.05c1.23-4.88,3.54-12.47,5.97-12.54c1.8-0.06,1.74-1.85,1.74-1.85
		c-0.06-1.8-3.65-1.69-5.34,1.97c-1.69,3.65-3.32,9.1-3.32,9.1s1.91-10.95-1.53-16.45c0,0,1.18-6.02,3.01-7.31
		c4.88-3.44-0.63-6.87-2.83-1.38l-1.12,3.61l-1.97-5.34c-2.02-7.14-9.16-5.12-3.6,0.11c2.14,2.01,5.9,16.02,4.04,14.28
		c-1.85-1.74-7.36-5.17-7.36-5.17c-4.09-1.39-4.69,4.85,0.11,3.6c2.46-0.64,9.16,5.12,9.16,5.12s0.42,9.63-0.5,14.16
		c-0.91,0.65-1.82,1.41-2.67,2.25c-1.09-3.84-4-15.07-1.42-16.57c1.56-0.9,0.65-2.46,0.65-2.46c-0.9-1.56-4.02,0.25-3.76,4.27
		c0.25,4.02,1.41,9.59,1.41,9.59s-3.52-10.55-9.17-13.75c0,0-1.82-5.86-0.83-7.86c2.66-5.35-3.82-5.75-3.14,0.13l0.74,3.71
		l-4.27-3.76c-5.17-5.32-10.49-0.15-3.11,1.81c2.84,0.75,12.8,11.29,10.34,10.64c-2.46-0.65-8.94-1.05-8.94-1.05
		c-4.26,0.72-1.82,6.49,1.81,3.11c1.86-1.74,10.49,0.15,10.49,0.15s4.66,7.8,6.16,12.31l-5.32,0.38c-1.13,0.08-1.57,1.5-0.68,2.21
		l4.12,3.29c0.14,0.11,0.29,0.18,0.45,0.22c-0.98,2.38-1.19,4.8-0.09,6.87c0.04,0.61,14.78,32.03,2.36,42.11
		c-0.26-0.42-4.02-1.21-22.72,0.85c-7.44-3.07-18.21-2.3-21.28,5.14c-0.61-0.96-8.84,2.44-8.84,2.44c-2.16,0.46,5.98,4.65,6.78,4.62
		c-0.29,2.77,1.14,5.13,1.31,7.42c0.24,3.37-8.33,9.62-12.99,12.74c3.9,11.37-2.5,22.65-2.5,22.65c-2.79,1.04-8.08,0.5-7.88,3.27
		c0.25,3.47,3.67,6.05,7.63,5.76c3.97-0.29,6.65-7.17,6.62-7.36c0,0,6.69-20.67,7.84-20.68c6.02-0.72,13.27-9.38,12.92-9.69
		c-0.35-0.31,14.02-1.27,15.65-3.49c-0.23-1.23,9.23,2.94,18.21,2.3c8.97-0.65,20.45-10.35,26.02-14.51l9.12,1.37l-5.76,20.26
		c-2.57,1.12-7.11,1.46-6.92,4.11c0.25,3.47,3.67,6.05,7.63,5.76s6.62-7.58,6.51-7.96l7.98-21.05c0,0,1.07-5.49,0.81-9.08
		C447.37,380.5,439.78,381.28,439.78,381.28z"/>
	<path class="st0" d="M565.94,346.97c0,0-13.33-3.17-16-2.68c6.15-9.55-12.92-38.74-8.36-40.89c8.76-4.14,14.58-9.15,13.52-12.7
		c-2.38-7.95-3.4,2.95-14.81-5.25c-1.03-0.74-2.55-0.66-4.23-0.05c1.23-4.88,3.54-12.47,5.97-12.54c1.8-0.06,1.74-1.85,1.74-1.85
		c-0.06-1.8-3.65-1.69-5.34,1.97c-1.69,3.65-3.32,9.1-3.32,9.1s1.91-10.95-1.53-16.45c0,0,1.18-6.02,3.01-7.31
		c4.88-3.44-0.63-6.87-2.83-1.38l-1.12,3.61l-1.97-5.34c-2.02-7.14-9.16-5.12-3.6,0.11c2.14,2.01,5.9,16.02,4.04,14.28
		c-1.85-1.74-7.36-5.17-7.36-5.17c-4.09-1.39-4.69,4.85,0.11,3.6c2.46-0.64,9.16,5.12,9.16,5.12s0.42,9.63-0.5,14.16
		c-0.91,0.65-1.82,1.41-2.67,2.25c-1.09-3.84-4-15.07-1.42-16.57c1.56-0.9,0.65-2.46,0.65-2.46c-0.9-1.56-4.02,0.25-3.76,4.27
		c0.25,4.02,1.41,9.59,1.41,9.59s-3.52-10.55-9.17-13.75c0,0-1.82-5.86-0.83-7.86c2.66-5.35-3.82-5.75-3.14,0.13l0.74,3.71
		l-4.27-3.76c-5.17-5.32-10.49-0.15-3.11,1.81c2.84,0.75,12.8,11.29,10.34,10.64c-2.46-0.65-8.94-1.05-8.94-1.05
		c-4.26,0.72-1.82,6.49,1.81,3.11c1.86-1.74,10.49,0.15,10.49,0.15s4.66,7.8,6.16,12.31l-5.32,0.38c-1.13,0.08-1.57,1.5-0.68,2.21
		l4.12,3.29c0.14,0.11,0.29,0.18,0.45,0.22c-0.98,2.38-1.19,4.8-0.09,6.87c0.04,0.61,14.78,32.03,2.36,42.11
		c-0.26-0.42-4.02-1.21-22.72,0.85c-7.44-3.07-18.21-2.3-21.28,5.14c-0.61-0.96-8.84,2.44-8.84,2.44c-2.16,0.46,5.98,4.65,6.78,4.62
		c-0.29,2.77,1.14,5.13,1.31,7.42c0.24,3.37-8.33,9.62-12.99,12.74c3.9,11.37-2.5,22.65-2.5,22.65c-2.79,1.04-8.08,0.5-7.88,3.27
		c0.25,3.47,3.67,6.05,7.63,5.76c3.97-0.29,6.65-7.17,6.62-7.36c0,0,6.69-20.67,7.84-20.68c6.02-0.72,13.27-9.38,12.92-9.69
		c-0.35-0.31,14.02-1.27,15.65-3.49c-0.23-1.23,9.23,2.94,18.21,2.3c8.97-0.65,20.45-10.35,26.02-14.51l9.12,1.37L557.78,378
		c-2.57,1.12-7.11,1.46-6.92,4.11c0.25,3.47,3.67,6.05,7.63,5.76c3.97-0.29,6.62-7.58,6.51-7.96l7.98-21.05c0,0,1.07-5.49,0.81-9.08
		C573.52,346.19,565.94,346.97,565.94,346.97z"/>
	<path class="st0" d="M694.11,305.59c0,0-13.33-3.17-16-2.68c6.15-9.55-12.92-38.74-8.36-40.89c8.76-4.14,14.58-9.15,13.52-12.7
		c-2.38-7.95-3.4,2.95-14.81-5.25c-1.03-0.74-2.55-0.66-4.23-0.05c1.23-4.88,3.54-12.47,5.97-12.54c1.8-0.06,1.74-1.85,1.74-1.85
		c-0.06-1.8-3.65-1.69-5.34,1.97c-1.69,3.65-3.32,9.1-3.32,9.1s1.91-10.95-1.53-16.45c0,0,1.18-6.02,3.01-7.31
		c4.88-3.44-0.63-6.87-2.83-1.38l-1.12,3.61l-1.97-5.34c-2.02-7.14-9.16-5.12-3.6,0.11c2.14,2.01,5.9,16.02,4.04,14.28
		c-1.85-1.74-7.36-5.17-7.36-5.17c-4.09-1.39-4.69,4.85,0.11,3.6c2.46-0.64,9.16,5.12,9.16,5.12s0.42,9.63-0.5,14.16
		c-0.91,0.65-1.82,1.41-2.67,2.25c-1.09-3.84-4-15.07-1.42-16.57c1.56-0.9,0.65-2.46,0.65-2.46c-0.9-1.56-4.02,0.25-3.76,4.27
		c0.25,4.02,1.41,9.59,1.41,9.59s-3.52-10.55-9.17-13.75c0,0-1.82-5.86-0.83-7.86c2.66-5.35-3.82-5.75-3.14,0.13l0.74,3.71
		l-4.27-3.76c-5.17-5.32-10.49-0.15-3.11,1.81c2.84,0.75,12.8,11.29,10.34,10.64c-2.46-0.65-8.94-1.05-8.94-1.05
		c-4.26,0.72-1.82,6.49,1.81,3.11c1.86-1.74,10.49,0.15,10.49,0.15s4.66,7.8,6.16,12.31l-5.32,0.38c-1.13,0.08-1.57,1.5-0.68,2.21
		l4.12,3.29c0.14,0.11,0.29,0.18,0.45,0.22c-0.98,2.38-1.19,4.8-0.09,6.87c0.04,0.61,14.78,32.03,2.36,42.11
		c-0.26-0.42-4.02-1.21-22.72,0.85c-7.44-3.07-18.21-2.3-21.28,5.14c-0.61-0.96-8.84,2.44-8.84,2.44c-2.16,0.46,5.98,4.65,6.78,4.62
		c-0.29,2.77,1.14,5.13,1.31,7.42c0.24,3.37-8.33,9.62-12.99,12.74c3.9,11.37-2.5,22.65-2.5,22.65c-2.79,1.04-8.08,0.5-7.88,3.27
		c0.25,3.47,3.67,6.05,7.63,5.76s6.65-7.17,6.62-7.36c0,0,6.69-20.67,7.84-20.68c6.02-0.72,13.27-9.38,12.92-9.69
		c-0.35-0.31,14.02-1.27,15.65-3.49c-0.23-1.23,9.23,2.94,18.21,2.3s20.45-10.35,26.02-14.51l9.12,1.37l-5.76,20.26
		c-2.57,1.12-7.11,1.46-6.92,4.11c0.25,3.47,3.67,6.05,7.63,5.76c3.97-0.29,6.62-7.58,6.51-7.96l7.98-21.05c0,0,1.07-5.49,0.81-9.08
		C701.7,304.81,694.11,305.59,694.11,305.59z"/>
	<path class="st1" d="M244.84,380.7c80.1,48.16,103.09,19.35,159.46,1.01c17.64,25.11,142.49-21.09,132.21-40.37
		c57.01,12.21,106.37-17.16,135.75-52.99"/>
	<path class="st1" d="M251.91,373.64c95.25,48.93,128.74,18.63,159.46-1.01c17.64,25.11,139.46-20.08,129.18-39.36
		c57.01,12.21,102.83-8.58,132.21-44.41"/>
</g>
</svg>
