<?xml version="1.0" encoding="utf-8"?>
<!-- Generator: Adobe Illustrator 23.1.0, SVG Export Plug-In . SVG Version: 6.00 Build 0)  -->
<svg version="1.1" id="Layer_1" xmlns="http://www.w3.org/2000/svg" xmlns:xlink="http://www.w3.org/1999/xlink" x="0px" y="0px"
	 viewBox="0 0 792 792" style="enable-background:new 0 0 792 792;" xml:space="preserve">
<style type="text/css">
	.st0{fill:#094B1A;}
	.st1{font-family:'Parisienne-Regular';}
	.st2{font-size:71.1116px;}
	.st3{fill:#C9B53F;}
</style>
<g>
	<text transform="matrix(1.1073 0 0 1 342.5876 306.1836)" class="st0 st1 st2">Joy</text>
	<text transform="matrix(1.1073 0 0 1 314.0037 384.0615)" class="st0 st1 st2">Love</text>
	<text transform="matrix(1.1073 0 0 1 296.9958 444.1572)" class="st0 st1 st2">Peace</text>
	<text transform="matrix(1.1073 0 0 1 254.2771 500.334)" class="st0 st1 st2">Christmas</text>
	<polygon class="st3" points="402.04,259.83 395.56,241.14 374.91,235.13 395.25,230.4 400.65,212.07 407.13,230.77 427.78,236.78 
		407.44,241.51 	"/>
	<polygon class="st3" points="444.75,353.71 441.96,345.02 432.36,342.43 441.96,339.99 444.73,331.35 447.52,340.04 457.12,342.62 
		447.52,345.06 	"/>
	<polygon class="st3" points="385.69,330 382.9,321.31 373.3,318.73 382.9,316.29 385.68,307.64 388.46,316.33 398.06,318.92 
		388.47,321.36 	"/>
	<polygon class="st3" points="337.37,364.94 334.4,357.23 325.88,354.47 334.07,352.85 335.94,345.46 338.92,353.18 347.43,355.93 
		339.24,357.55 	"/>
	<polygon class="st3" points="427.51,470.03 425.36,463.14 417.75,461.14 425.4,459.14 427.67,452.25 429.82,459.14 437.44,461.14 
		429.79,463.14 	"/>
	<polygon class="st3" points="457.82,418.89 453.6,405.61 438.92,401.69 453.62,397.92 457.91,384.68 462.13,397.96 476.81,401.88 
		462.11,405.65 	"/>
	<polygon class="st3" points="471,472.23 468.21,463.54 458.61,460.95 468.21,458.51 470.98,449.86 473.77,458.55 483.37,461.14 
		473.77,463.58 	"/>
	<polygon class="st3" points="386.56,415.31 382.87,405.3 371.82,401.88 382.56,399.59 385.18,389.91 388.87,399.92 399.93,403.33 
		389.18,405.62 	"/>
	<polygon class="st3" points="360.31,474.57 356.62,464.56 345.57,461.14 356.31,458.85 358.93,449.17 362.63,459.18 373.68,462.59 
		362.94,464.88 	"/>
	<polygon class="st3" points="322.47,440.4 318.88,428.91 306.19,425.59 318.94,422.26 322.73,410.77 326.32,422.26 339,425.59 
		326.26,428.91 	"/>
	<polygon class="st3" points="406.22,358.07 404.07,351.18 396.46,349.18 404.11,347.18 406.38,340.29 408.53,347.18 416.14,349.18 
		408.49,351.18 	"/>
	<polygon class="st3" points="274.98,496.36 272.83,489.47 265.22,487.48 272.87,485.48 275.14,478.59 277.29,485.48 284.9,487.48 
		277.25,489.47 	"/>
	<polygon class="st3" points="417.72,401.86 416.06,397.07 410.77,395.52 415.98,394.32 417.35,389.62 419.02,394.41 424.31,395.96 
		419.1,397.16 	"/>
	<polygon class="st3" points="399.92,278.26 398.26,273.47 392.97,271.93 398.18,270.72 399.55,266.02 401.22,270.81 406.51,272.36 
		401.3,273.56 	"/>
</g>
</svg>
