<?xml version="1.0" encoding="utf-8"?>
<!-- Generator: Adobe Illustrator 23.1.0, SVG Export Plug-In . SVG Version: 6.00 Build 0)  -->
<svg version="1.1" id="Layer_1" xmlns="http://www.w3.org/2000/svg" xmlns:xlink="http://www.w3.org/1999/xlink" x="0px" y="0px"
	 viewBox="0 0 792 792" style="enable-background:new 0 0 792 792;" xml:space="preserve">
<style type="text/css">
	.st0{fill:#E9EBEA;}
	.st1{fill:#094B1A;}
	.st2{fill:#7D3834;}
</style>
<g>
	<polygon class="st0" points="575.8,726.1 424.8,8 271.4,723.5 396.5,724.6 396.5,792 449,792 449,725 	"/>
	<g>
		<polygon class="st1" points="523.7,478.2 339.6,405.2 292.4,625.6 534.5,529.6 		"/>
		<polygon class="st1" points="359.4,312.8 343.3,388 519.4,457.7 478.9,265.5 		"/>
		<polygon class="st1" points="475.3,248.2 424.8,8 363.8,292.4 		"/>
		<polygon class="st1" points="288,646 271.4,723.5 396.5,724.6 396.5,792 449,792 449,725 575.8,726.1 538.1,546.9 		"/>
	</g>
	<ellipse class="st2" cx="372.3" cy="510.7" rx="18.2" ry="19.8"/>
	<ellipse class="st2" cx="501.5" cy="649.2" rx="18.2" ry="19.8"/>
	<ellipse class="st2" cx="457.1" cy="356.9" rx="18.2" ry="19.8"/>
	<ellipse class="st2" cx="418.7" cy="207.4" rx="18.2" ry="19.8"/>
</g>
</svg>
