<?xml version="1.0" encoding="utf-8"?>
<!-- Generator: Adobe Illustrator 23.1.0, SVG Export Plug-In . SVG Version: 6.00 Build 0)  -->
<svg version="1.1" id="Layer_1" xmlns="http://www.w3.org/2000/svg" xmlns:xlink="http://www.w3.org/1999/xlink" x="0px" y="0px"
	 viewBox="0 0 792 792" style="enable-background:new 0 0 792 792;" xml:space="preserve">
<style type="text/css">
	.st0{fill:#3A6F47;}
	.st1{fill:#E9EBEA;}
	.st2{fill:#094B1A;}
	.st3{fill:#7D3834;}
</style>
<g>
	<polygon class="st0" points="675.5,590.8 590.7,253.6 504.6,589.6 574.8,590.1 574.8,621.8 604.3,621.8 604.3,590.3 	"/>
	<polygon class="st0" points="346.8,674.5 222.9,174.8 97,672.8 199.7,673.5 199.7,720.4 242.8,720.4 242.8,673.8 	"/>
	<g>
		<polygon class="st1" points="583,716 419.1,0 252.6,713.5 388.4,714.5 388.4,781.8 445.4,781.8 445.4,715 		"/>
		<g>
			<polygon class="st2" points="526.4,468.8 326.7,396.1 275.4,615.8 538.2,520.1 			"/>
			<polygon class="st2" points="348.2,304 330.7,378.9 521.8,448.4 477.9,256.7 			"/>
			<polygon class="st2" points="473.9,239.5 419.1,0 352.9,283.6 			"/>
			<polygon class="st2" points="270.6,636.2 252.6,713.5 388.4,714.5 388.4,781.8 445.4,781.8 445.4,715 583,716 542.1,537.3 			"/>
		</g>
		<circle class="st3" cx="362.1" cy="501.3" r="19.7"/>
		<circle class="st3" cx="502.4" cy="639.3" r="19.7"/>
		<circle class="st3" cx="454.2" cy="347.9" r="19.7"/>
		<circle class="st3" cx="412.5" cy="198.9" r="19.7"/>
	</g>
</g>
</svg>
