<?xml version="1.0" encoding="utf-8"?>
<!-- Generator: Adobe Illustrator 23.1.0, SVG Export Plug-In . SVG Version: 6.00 Build 0)  -->
<svg version="1.1" id="Layer_1" xmlns="http://www.w3.org/2000/svg" xmlns:xlink="http://www.w3.org/1999/xlink" x="0px" y="0px"
	 viewBox="0 0 792 792" style="enable-background:new 0 0 792 792;" xml:space="preserve">
<style type="text/css">
	.st0{fill:#3A6F47;}
	.st1{fill:#E9EBEA;}
	.st2{fill:#094B1A;}
	.st3{fill:#7D3834;}
</style>
<g>
	<polygon class="st0" points="530.19,465.98 491.5,312.1 452.2,465.43 484.26,465.66 484.26,480.1 497.71,480.1 497.71,465.75 	"/>
	<polygon class="st0" points="380.19,504.17 323.65,276.1 266.2,503.36 313.06,503.69 313.06,525.1 332.72,525.1 332.72,503.83 	"/>
	<g>
		<polygon class="st1" points="487.99,523.1 413.19,196.35 337.2,521.95 399.19,522.42 399.19,553.1 425.19,553.1 425.19,522.62 		
			"/>
		<g>
			<polygon class="st2" points="462.16,410.28 371.01,377.1 347.6,477.36 467.52,433.7 			"/>
			<polygon class="st2" points="380.82,335.06 372.84,369.25 460.04,400.99 440.01,313.51 			"/>
			<polygon class="st2" points="438.21,305.65 413.19,196.35 382.99,325.75 			"/>
			<polygon class="st2" points="345.43,486.67 337.2,521.95 399.19,522.42 399.19,553.1 425.19,553.1 425.19,522.62 487.99,523.1 
				469.32,441.56 			"/>
		</g>
		<circle class="st3" cx="387.19" cy="425.1" r="9"/>
		<circle class="st3" cx="451.19" cy="488.1" r="9"/>
		<circle class="st3" cx="429.19" cy="355.1" r="9"/>
		<circle class="st3" cx="410.19" cy="287.1" r="9"/>
	</g>
</g>
</svg>
