<?xml version="1.0" encoding="utf-8"?>
<!-- Generator: Adobe Illustrator 23.1.0, SVG Export Plug-In . SVG Version: 6.00 Build 0)  -->
<svg version="1.1" id="Layer_1" xmlns="http://www.w3.org/2000/svg" xmlns:xlink="http://www.w3.org/1999/xlink" x="0px" y="0px"
	 viewBox="0 0 792 792" style="enable-background:new 0 0 792 792;" xml:space="preserve">
<style type="text/css">
	.st0{fill:#E9EBEA;}
	.st1{fill:#094B1A;}
	.st2{fill:#7D3834;}
</style>
<g>
	<polygon class="st0" points="471.99,534.33 417.52,275.35 362.19,533.41 407.33,533.79 407.33,558.1 426.26,558.1 426.26,533.95 	
		"/>
	<g>
		<polygon class="st1" points="453.18,444.91 386.81,418.6 369.77,498.07 457.09,463.47 		"/>
		<polygon class="st1" points="393.95,385.28 388.14,412.38 451.63,437.55 437.05,368.2 		"/>
		<polygon class="st1" points="435.74,361.98 417.52,275.35 395.53,377.91 		"/>
		<polygon class="st1" points="368.19,505.45 362.19,533.41 407.33,533.79 407.33,558.1 426.26,558.1 426.26,533.95 471.99,534.33 
			458.4,469.7 		"/>
	</g>
	<ellipse class="st2" cx="398.59" cy="456.65" rx="6.55" ry="7.13"/>
	<ellipse class="st2" cx="445.19" cy="506.59" rx="6.55" ry="7.13"/>
	<ellipse class="st2" cx="429.18" cy="401.17" rx="6.55" ry="7.13"/>
	<ellipse class="st2" cx="415.34" cy="347.28" rx="6.55" ry="7.13"/>
</g>
</svg>
